<?xml version="1.0" encoding="UTF-8" standalone="no"?>
<!-- Created with Inkscape (http://www.inkscape.org/) -->

<svg
   xmlns:dc="http://purl.org/dc/elements/1.1/"
   xmlns:cc="http://creativecommons.org/ns#"
   xmlns:rdf="http://www.w3.org/1999/02/22-rdf-syntax-ns#"
   xmlns:svg="http://www.w3.org/2000/svg"
   xmlns="http://www.w3.org/2000/svg"
   xmlns:sodipodi="http://sodipodi.sourceforge.net/DTD/sodipodi-0.dtd"
   xmlns:inkscape="http://www.inkscape.org/namespaces/inkscape"
   id="svg3406"
   version="1.1"
   inkscape:version="0.91 r13725"
   width="360.228"
   height="673.25311"
   viewBox="0 0 360.228 673.25312"
   sodipodi:docname="silhouette-danse-16 .svg">
  <title
     id="title3340">Silhouette Danse 16</title>
  <metadata
     id="metadata3412">
    <rdf:RDF>
      <cc:Work
         rdf:about="">
        <dc:format>image/svg+xml</dc:format>
        <dc:type
           rdf:resource="http://purl.org/dc/dcmitype/StillImage" />
        <dc:title>Silhouette Danse 16</dc:title>
        <cc:license
           rdf:resource="http://creativecommons.org/publicdomain/zero/1.0/" />
        <dc:date>2017-02-15</dc:date>
        <dc:creator>
          <cc:Agent>
            <dc:title>JLouis</dc:title>
          </cc:Agent>
        </dc:creator>
        <dc:rights>
          <cc:Agent>
            <dc:title>Domaine pubic</dc:title>
          </cc:Agent>
        </dc:rights>
        <dc:publisher>
          <cc:Agent>
            <dc:title>inkscape</dc:title>
          </cc:Agent>
        </dc:publisher>
        <dc:subject>
          <rdf:Bag>
            <rdf:li>Silhouette</rdf:li>
            <rdf:li>dance</rdf:li>
            <rdf:li>dancer</rdf:li>
            <rdf:li>woman</rdf:li>
            <rdf:li>danse</rdf:li>
            <rdf:li>danseuse</rdf:li>
            <rdf:li>femme</rdf:li>
          </rdf:Bag>
        </dc:subject>
        <dc:description>Silhouette of dancer - Silhouette de danseuse.</dc:description>
      </cc:Work>
      <cc:License
         rdf:about="http://creativecommons.org/publicdomain/zero/1.0/">
        <cc:permits
           rdf:resource="http://creativecommons.org/ns#Reproduction" />
        <cc:permits
           rdf:resource="http://creativecommons.org/ns#Distribution" />
        <cc:permits
           rdf:resource="http://creativecommons.org/ns#DerivativeWorks" />
      </cc:License>
    </rdf:RDF>
  </metadata>
  <defs
     id="defs3410" />
  <sodipodi:namedview
     pagecolor="#ffffff"
     bordercolor="#666666"
     borderopacity="1"
     objecttolerance="10"
     gridtolerance="10"
     guidetolerance="10"
     inkscape:pageopacity="0"
     inkscape:pageshadow="2"
     inkscape:window-width="1239"
     inkscape:window-height="756"
     id="namedview3408"
     showgrid="false"
     fit-margin-top="0"
     fit-margin-left="0"
     fit-margin-right="0"
     fit-margin-bottom="0"
     inkscape:zoom="0.72241404"
     inkscape:cx="119.89032"
     inkscape:cy="489.44126"
     inkscape:window-x="0"
     inkscape:window-y="0"
     inkscape:window-maximized="1"
     inkscape:current-layer="svg3406" />
  <g
     id="g3416"
     transform="translate(-113.40348,-60.507889)">
    <path
       style="fill:#cdacd1"
       d="m 119.85,733.52071 c -1.92085,-0.32682 -2.56934,-0.78324 -4.59365,-3.23301 -1.61827,-1.95843 -1.85722,-2.80131 -1.85281,-6.53574 0.004,-3.36918 0.43396,-5.42439 2.3855,-11.40198 0.90355,-2.76756 1.31642,-4.59687 1.42189,-6.3 0.12595,-2.03376 0.33232,-2.76624 1.3523,-4.79991 0.66202,-1.31997 1.2647,-2.73747 1.33929,-3.15 0.0746,-0.41256 0.54979,-2.30259 1.05601,-4.20009 0.50621,-1.8975 1.36367,-5.17638 1.90546,-7.28643 0.54178,-2.11002 1.34018,-4.51554 1.77421,-5.34561 0.74694,-1.42851 0.81271,-2.66796 0.14158,-2.66796 -0.94361,0 0.39086,-1.86447 4.0797,-5.7 4.18951,-4.35609 5.94064,-6.87597 7.20298,-10.36512 0.59395,-1.64169 1.5902,-3.79488 2.2139,-4.78488 4.75535,-7.54827 13.7688,-24.54312 17.58153,-33.15 3.95137,-8.91984 8.86295,-22.3437 9.02585,-24.66864 0.0626,-0.894 0.45736,-2.14269 1.00431,-3.17712 0.49561,-0.93732 1.72128,-3.85938 2.72372,-6.49347 1.00243,-2.63406 2.96238,-7.23392 4.35542,-10.22189 1.39304,-2.988 2.53281,-5.66295 2.53281,-5.94435 0,-0.2814 0.38641,-1.28403 0.8587,-2.22807 1.1814,-2.36148 2.9823,-7.70496 3.48336,-10.3356 0.22847,-1.19946 0.56147,-4.02045 0.74001,-6.26883 0.41224,-5.19159 0.69389,-6.68127 1.98638,-10.50642 0.57715,-1.70808 1.3773,-4.87329 1.77812,-7.03377 0.40082,-2.16051 0.94481,-4.56456 1.20887,-5.34231 0.26406,-0.77778 0.8052,-3.36408 1.20253,-5.74737 0.39734,-2.38326 1.27287,-6.48294 1.94564,-9.11037 1.2223,-4.7736 1.22298,-4.77939 0.9098,-7.83126 -0.17238,-1.67973 -0.31078,-6.44853 -0.30756,-10.59732 0.006,-7.57575 0.3359,-11.56035 1.32046,-15.9432 0.25945,-1.155 0.87966,-4.29762 1.37822,-6.98361 1.33315,-7.18218 2.67016,-12.0747 5.18306,-18.96639 1.23335,-3.3825 3.08052,-8.985 4.10481,-12.45 2.05786,-6.96132 3.56932,-10.88745 6.25082,-16.23684 2.91343,-5.81208 3.22377,-6.74673 4.07229,-12.26466 0.43147,-2.80581 0.78528,-5.50581 0.78625,-6 9e-4,-0.49416 0.41197,-2.3835 0.91333,-4.1985 2.26427,-8.19699 2.72747,-10.07739 3.1407,-12.75 0.24237,-1.5675 0.43896,-4.605 0.43686,-6.75 -0.002,-2.145 0.22703,-7.33026 0.50916,-11.52279 0.44484,-6.61023 0.46415,-8.46321 0.14542,-13.95 -0.20215,-3.47997 -0.56559,-9.76971 -0.80764,-13.97721 -0.24205,-4.2075 -0.55612,-9.42111 -0.69792,-11.58582 -0.26715,-4.07808 0.005,-11.1972 0.57821,-15.11418 0.43911,-3.00165 2.24824,-12.94182 3.00304,-16.5 0.33251,-1.5675 1.20768,-4.66009 1.94481,-6.87243 0.73713,-2.21234 1.61574,-5.38484 1.95246,-7.05 1.18783,-5.87414 3.66602,-12.27971 7.13339,-18.43826 0.80181,-1.42412 1.77683,-3.39931 2.16672,-4.38931 0.72523,-1.84146 4.72874,-7.4329 7.46811,-10.4302 l 1.49939,-1.64057 -0.4439,-1.70425 c -0.57674,-2.21423 -0.55589,-3.04985 0.1608,-6.44551 0.79059,-3.74582 0.80042,-8.40374 0.0234,-11.09712 -0.31454,-1.09029 -0.72606,-3.12985 -0.91451,-4.53235 -0.52179,-3.88336 -1.27277,-5.82297 -5.34309,-13.8 C 229.55701,206.30261 227.22658,200.68856 223.68906,189.6 220.9769,181.09854 216.9,167.36417 216.9,166.72882 c 0,-0.72694 -2.69478,-8.63972 -3.44948,-10.12882 -0.3763,-0.7425 -1.12812,-2.20286 -1.6707,-3.24524 l -0.98651,-1.89524 0.48909,-3.50476 c 0.269,-1.92762 0.68712,-4.17976 0.92914,-5.00476 0.24203,-0.825 0.70577,-2.445 1.03055,-3.6 0.32478,-1.155 1.35195,-4.26 2.2826,-6.9 0.93066,-2.64 2.37476,-7.01343 3.20911,-9.71873 0.83436,-2.70529 2.58418,-7.40861 3.88849,-10.45182 1.30432,-3.0432 2.6975,-6.56728 3.09596,-7.83128 0.8614,-2.73256 2.69845,-7.963429 4.3567,-12.405415 l 1.1973,-3.207246 -1.0515,-3.092754 c -1.04428,-3.071493 -1.04934,-3.111672 -0.73613,-5.843889 0.38951,-3.39783 0.40385,-6.127104 0.0373,-7.091325 -0.34533,-0.908283 -1.29592,-1.165848 -4.19864,-1.137639 -1.96796,0.01914 -2.42217,0.138048 -3.90806,1.023189 -2.51393,1.497537 -3.56908,1.806114 -4.37353,1.27902 C 216.42435,73.567651 216,72.375205 216,71.045104 c 0,-0.318942 0.6075,-1.178796 1.35,-1.910784 0.7425,-0.731988 1.35,-1.453248 1.35,-1.602804 0,-0.149553 0.50625,-0.39225 1.125,-0.539328 0.95468,-0.226932 1.11404,-0.37905 1.05263,-1.004802 -0.0966,-0.984048 0.27635,-1.404966 2.90175,-3.275265 3.32457,-2.36838 3.68716,-2.476323 6.50803,-1.937403 1.29942,0.248253 3.17259,0.64428 4.16259,0.880062 1.72527,0.410898 1.83711,0.40164 2.694,-0.223044 1.73121,-1.26207 2.52729,-0.959748 5.46573,2.075685 1.88939,1.951761 2.91855,2.786346 3.61877,2.934606 1.50799,0.319293 2.53213,1.865694 2.51714,3.800766 -0.009,1.22151 0.14459,1.746669 0.7092,2.41767 1.26633,1.504956 1.33776,4.262673 0.15356,5.929407 -0.29703,0.418071 -0.83805,1.772628 -1.20225,3.010128 -0.36421,1.2375 -1.09836,3.078408 -1.63146,4.090905 -0.72482,1.376631 -0.98593,2.284542 -1.03538,3.6 -0.0658,1.751241 -1.19605,7.43778 -1.98936,10.009094 -0.44918,1.455903 -1.41267,6.149823 -1.90894,9.300003 -0.27754,1.76169 -0.62936,5.74647 -1.09923,12.45 -0.0925,1.32 -0.42507,4.09391 -0.73899,6.16426 -0.50519,3.33181 -1.13111,6.40728 -4.07279,20.01184 -0.4015,1.85686 -0.73,4.15746 -0.73,5.11245 0,2.10512 1.48112,7.46832 3.65112,13.22084 3.8407,10.18146 4.53747,12.11677 6.25983,17.38698 2.03473,6.22602 2.59251,7.35371 4.88157,9.86925 4.11948,4.52706 7.26426,8.4711 13.67022,17.14458 3.34417,4.52792 4.31352,7.60963 4.21173,13.38979 l -0.0581,3.3 2.75435,2.85 c 1.60276,1.65843 2.82679,3.19137 2.92761,3.66649 0.24993,1.17772 1.67201,1.88269 5.01032,2.48376 4.26212,0.76741 7.7776,0.53766 10.69135,-0.69875 3.07812,-1.30614 5.33181,-3.06877 8.75794,-6.84967 2.48771,-2.7453 2.95682,-3.42891 3.2462,-4.73044 0.69504,-3.12589 3.83745,-10.33455 5.10993,-11.72208 0.47073,-0.51327 0.52572,-0.9336 0.37788,-2.88833 -0.17124,-2.26412 -0.15948,-2.31312 1.14252,-4.76416 0.72354,-1.36208 1.61928,-2.6766 1.99053,-2.92116 0.37125,-0.24456 0.675,-0.68361 0.675,-0.97566 0,-0.7572 1.28607,-1.49873 2.61444,-1.50743 1.24224,-0.008 3.96069,-1.72229 3.88317,-2.44858 -0.0231,-0.21669 0.13893,-1.10273 0.36009,-1.96898 0.31098,-1.21793 0.53358,-1.575 0.9819,-1.575 0.31968,0 0.68703,0.29004 0.81894,0.64661 0.22206,0.60034 0.30267,0.55204 1.12647,-0.675 0.48801,-0.72689 1.67466,-1.92911 2.63703,-2.67161 0.96234,-0.7425 2.74728,-2.25493 3.96651,-3.36095 1.25232,-1.13603 3.05892,-2.41287 4.15242,-2.93475 1.06464,-0.50809 2.01825,-1.05742 2.11917,-1.22073 0.10095,-0.16331 1.12731,-0.76336 2.28081,-1.33344 1.1535,-0.57007 2.49369,-1.31876 2.97816,-1.66375 0.61404,-0.43723 0.88227,-0.50745 0.88548,-0.23181 0.004,0.31662 0.0563,0.31379 0.26409,-0.0142 0.14274,-0.22529 1.38942,-0.74841 2.77041,-1.1625 2.96802,-0.88994 7.12869,-1.20831 9.14757,-0.69994 1.28202,0.32281 1.4499,0.29836 2.09178,-0.30465 0.90456,-0.84979 2.31486,-0.65074 4.10214,0.57895 0.7671,0.52778 1.90497,0.98032 2.78346,1.10702 1.35939,0.19605 1.6776,0.41455 3.73596,2.56529 1.2375,1.29305 2.58603,2.7615 2.9967,3.26322 0.4107,0.50173 0.91695,0.91223 1.125,0.91223 0.20808,0 0.3783,0.1934 0.3783,0.42978 0,0.23638 0.27,0.51548 0.6,0.62022 0.33,0.10474 0.6,0.42852 0.6,0.71952 0,0.291 0.3375,0.70971 0.75,0.93048 0.4125,0.22076 0.75432,0.54732 0.7596,0.72569 0.005,0.17837 0.68151,0.99931 1.50276,1.82431 0.82125,0.825 1.56969,1.77 1.6632,2.1 0.0935,0.33 0.45318,1.2075 0.79923,1.95 1.13778,2.4413 1.22817,2.69704 1.02501,2.9002 -0.11061,0.11061 0.018,0.44328 0.28593,0.73928 0.26787,0.29599 0.40536,0.75104 0.30552,1.0112 -0.0998,0.26017 -0.015,0.75534 0.18861,1.10037 0.28035,0.47514 0.28464,0.65846 0.0177,0.75561 -0.26013,0.0947 -0.23544,0.40821 0.0943,1.19738 0.53286,1.27529 0.58791,2.92811 0.13626,4.09049 -0.18051,0.46449 -0.32751,1.40949 -0.3267,2.1 0.003,1.25989 -0.56574,3.34672 -1.4421,5.30547 -0.56637,1.26585 -0.60048,1.48325 -0.35004,2.22988 0.47328,1.41089 -0.64716,4.27441 -2.57478,6.58045 -0.65151,0.77941 -1.15896,1.51219 -1.1277,1.62839 0.0312,0.1162 -0.18813,0.48128 -0.48753,0.81128 -0.73944,0.81503 -1.28034,1.90855 -1.09356,2.21076 0.0844,0.13661 -0.0955,0.51567 -0.3999,0.84237 -0.30438,0.3267 -0.88797,1.12339 -1.2969,1.77043 -1.20855,1.91224 -5.54103,6.47773 -6.91092,7.28255 -0.69741,0.40975 -1.59,0.99225 -1.98351,1.29445 -0.39348,0.30219 -0.91986,0.54944 -1.16967,0.54944 -0.24984,0 -0.91314,0.4725 -1.47399,1.05 -0.56088,0.5775 -1.1298,1.05 -1.26432,1.05 -0.13449,0 -1.17423,0.6908 -2.31054,1.53512 -1.13631,0.84432 -2.67336,1.79893 -3.41568,2.12135 -0.74232,0.32242 -1.75482,0.89223 -2.25,1.26624 -1.79133,1.35299 -6.84981,4.44724 -9.09969,5.56622 -2.94795,1.46618 -6.67209,2.63508 -9.23058,2.89721 -1.36185,0.13952 -2.19486,0.38867 -2.57694,0.77074 -0.55275,0.55275 -0.5409,0.60984 0.56694,2.72884 1.44927,2.77205 5.73696,8.48459 8.78613,11.70582 l 2.37447,2.50846 2.18967,0.0115 c 1.47153,0.008 2.68164,0.20904 3.68967,0.61378 1.86618,0.7493 8.49684,2.06441 11.7,2.32055 3.762,0.30082 7.4763,1.4329 13.10232,3.99343 2.85873,1.30108 6.18726,2.74044 7.39677,3.19858 1.20948,0.45815 4.11198,1.81297 6.45,3.0107 2.33799,1.19774 4.92591,2.40777 5.75091,2.68897 1.96452,0.66958 10.85835,2.04318 19.5,3.01163 6.6114,0.74094 9.85032,1.30581 17.1,2.98229 5.71095,1.32064 7.86696,0.93766 10.35639,-1.83966 3.03693,-3.38812 5.35827,-8.57137 7.47762,-16.69658 0.50997,-1.95513 2.01684,-6.88263 3.34857,-10.95 2.08392,-6.36469 2.60373,-8.39852 3.73026,-14.5952 0.71988,-3.96 1.65276,-10.11775 2.073,-13.68387 0.42024,-3.56613 0.8991,-7.19581 1.06413,-8.06595 1.02396,-5.39935 -0.37662,-8.00086 -7.00866,-13.01815 -4.78815,-3.62235 -4.91334,-3.78215 -5.94471,-7.58694 -0.48381,-1.7848 -1.34472,-4.33065 -1.91313,-5.65744 -0.56841,-1.32678 -1.03347,-2.8598 -1.03347,-3.40669 0,-1.63517 0.89727,-4.59111 1.67373,-5.51388 1.32039,-1.56919 0.78453,-4.59389 -1.0446,-5.89635 -0.89586,-0.6379 -0.93309,-0.74622 -0.8145,-2.3696 0.16146,-2.20982 1.23189,-6.99211 1.80489,-8.06361 0.59865,-1.11941 3.294,-3.98752 3.74733,-3.98752 0.19824,0 0.6918,0.33136 1.0968,0.73636 0.5991,0.5991 0.73497,1.0325 0.72903,2.325 -0.004,0.87375 -0.14409,2.18175 -0.31119,2.90666 -0.60903,2.64189 -0.89526,7.26262 -0.52995,8.5554 0.44919,1.58965 0.8316,1.98158 1.63146,1.67199 0.48222,-0.18665 0.68058,-0.6035 0.83265,-1.74998 0.36081,-2.71992 2.49558,-3.77932 5.9403,-2.94793 1.04172,0.25142 2.32347,0.54352 2.84832,0.6491 0.52485,0.10558 1.11513,0.38579 1.31172,0.62268 0.19662,0.2369 0.66057,0.43072 1.03101,0.43072 0.64818,0 4.14282,2.14449 5.42235,3.32742 0.34062,0.31492 1.02375,0.57258 1.51803,0.57258 0.99588,0 2.53857,1.29983 3.30756,2.78688 0.44643,0.8633 0.62166,4.99957 0.25257,5.96143 -0.0928,0.24175 0.11658,0.69768 0.46518,1.01318 0.7635,0.69095 1.3488,1.94191 2.94222,6.28851 2.46348,6.71988 3.07221,13.05658 1.54236,16.05533 -1.43796,2.81867 -2.38458,9.97811 -2.39907,18.14467 -0.007,4.26448 -0.17547,6.97441 -0.88302,14.25 -0.16848,1.7325 -0.441,4.7025 -0.60561,6.6 -0.54231,6.25209 -1.12419,11.7752 -1.51707,14.39999 -1.49088,9.9603 -2.02794,13.0316 -3.30498,18.9 -2.86914,13.18467 -5.52777,22.8906 -6.68607,24.40923 -1.2798,1.6779 -2.57715,2.10807 -5.5812,1.85052 -1.41363,-0.1212 -9.86025,-0.25977 -18.77025,-0.30795 -31.61466,-0.17097 -39.95229,-1.14459 -60.45,-7.05897 -15.60672,-4.50315 -20.02947,-4.64736 -27.73281,-0.90429 -4.74609,2.30616 -9.08085,5.29959 -10.66719,7.36638 -0.7425,0.96741 -1.70511,2.10456 -2.13912,2.52699 -1.40289,1.36548 -5.46066,4.42968 -7.36359,5.56059 -1.24704,0.74112 -3.45372,2.7402 -6.75,6.11493 -4.96629,5.08449 -6.00615,6.54972 -7.48191,10.54257 -0.21345,0.5775 -0.83175,1.7925 -1.37403,2.7 -1.09266,1.82856 -4.536,6 -4.95276,6 -0.14619,0 -0.18132,0.45021 -0.0781,1.00044 0.16533,0.88131 0.042,1.15212 -1.03608,2.27412 -0.90873,0.94581 -1.1814,1.44243 -1.05921,1.92921 0.11841,0.47178 -0.0919,0.90117 -0.75036,1.53198 -1.04619,1.00236 -1.14564,1.36425 -0.37485,1.36425 0.76443,0 1.26,0.5904 1.26,1.50114 0,0.50253 0.38193,1.1499 1.07079,1.815 1.5387,1.4856 5.17959,6.03042 7.11342,8.87946 2.16405,3.18822 4.79073,8.47992 6.90192,13.9044 3.05976,7.86189 6.50916,17.05179 7.40343,19.72422 1.88169,5.62344 2.99697,13.35396 3.60315,24.97578 0.16785,3.2175 0.51099,7.9425 0.76257,10.5 0.25155,2.5575 0.58038,8.7 0.73068,13.65 0.21852,7.19589 0.46926,10.53348 1.25085,16.65 l 0.97755,7.65 0.0177,14.7 c 0.0162,13.3791 -0.0437,15.25263 -0.66648,20.85 -0.98361,8.84028 -1.6572,13.18878 -3.48522,22.5 -0.89082,4.5375 -1.76754,9.465 -1.94823,10.95 -0.43335,3.56079 -0.93225,11.59674 -0.93225,15.01542 0,3.45561 -0.42405,4.86012 -2.91126,9.64257 -1.09899,2.11311 -2.29932,4.44951 -2.66745,5.19201 -0.7134,1.43892 -2.2605,5.92158 -3.57207,10.35 -0.82209,2.77566 -2.62743,7.635 -3.23223,8.7 -0.18741,0.33 -1.24209,2.1525 -2.34372,4.05 -1.10163,1.8975 -4.06248,7.0275 -6.57966,11.4 -2.51718,4.3725 -4.81122,8.2875 -5.09785,8.7 -0.28664,0.4125 -0.62065,1.20918 -0.74226,1.77036 -0.13816,0.63762 -0.82897,1.65045 -1.84155,2.7 -1.54025,1.59651 -6.7044,9.10161 -10.96095,15.92964 -4.56791,7.3275 -8.24648,14.39637 -12.06285,23.18036 -2.24951,5.17758 -3.99554,8.1546 -4.96278,8.46159 -0.35082,0.11133 -0.70082,0.55044 -0.79952,1.00305 -0.0966,0.44274 -0.42017,1.41249 -0.71915,2.15499 -0.29898,0.7425 -0.71424,2.12604 -0.92279,3.07455 -0.33246,1.51206 -0.31268,1.94418 0.16059,3.50727 0.33813,1.11678 0.47249,2.19732 0.35966,2.8926 -0.17117,1.05477 -0.0876,1.19838 1.68287,2.89134 1.02463,0.9798 2.4137,2.02617 3.08682,2.32527 0.67311,0.29907 2.36061,1.40862 3.75,2.46564 5.28148,4.01808 9.71748,6.52578 11.56686,6.5388 0.71544,0.005 1.47753,0.37482 3.29034,1.59648 1.15975,0.78156 1.55937,0.85461 6.9,1.26111 7.5048,0.57123 10.87047,1.5057 13.38966,3.71757 2.07219,1.81938 2.87874,4.88097 1.99152,7.55961 -0.56004,1.69086 -2.13372,3.77568 -3.11094,4.12137 -3.1038,1.09797 -16.0002,1.20774 -25.65129,0.21837 -12.08589,-1.239 -16.93528,-1.67823 -23.24999,-2.10582 -18.12857,-1.22763 -23.46573,-1.79364 -23.33241,-2.47452 0.0586,-0.29916 -1.52774,-0.88497 -2.05561,-0.75912 -0.52027,0.12402 -2.20548,-2.32101 -2.91211,-4.22514 -0.75287,-2.02872 -0.79987,-2.46105 -0.79987,-7.35708 0,-5.00304 0.0253,-5.22219 0.66235,-5.73786 0.36429,-0.29487 0.98469,-1.26501 1.37867,-2.15586 0.39398,-0.89085 1.05097,-2.15631 1.45999,-2.81214 1.32659,-2.12712 6.25056,-14.10921 6.24812,-15.20433 -6e-4,-0.21345 0.32481,-1.19811 0.72285,-2.18811 0.39803,-0.99 0.96013,-2.60532 1.24911,-3.58962 0.28897,-0.9843 0.76304,-2.1993 1.05348,-2.7 0.59274,-1.02189 0.82164,-2.51928 0.47167,-3.08556 -0.15662,-0.25341 -0.0316,-0.37482 0.38605,-0.37482 0.33974,0 0.61771,-0.0497 0.61771,-0.11043 0,-0.0607 1.69335,-5.02199 3.76301,-11.02499 4.17446,-12.10797 4.77718,-14.25825 6.12852,-21.86457 2.71421,-15.27753 4.39121,-21.85719 5.46548,-21.4437 0.30113,0.11589 0.36951,-0.22593 0.29255,-1.46232 -0.0807,-1.29636 0.0549,-1.90158 0.68989,-3.07875 0.43467,-0.80589 1.22415,-2.27523 1.75439,-3.26523 2.13721,-3.9903 5.05045,-8.20227 9.60569,-13.8879 1.67982,-2.09664 3.72837,-4.74666 4.55234,-5.88888 0.82397,-1.14225 1.85219,-2.42475 2.28493,-2.85 1.26638,-1.24452 4.44601,-5.7063 5.36773,-7.53219 0.46718,-0.9255 1.00339,-2.55084 1.19158,-3.61188 0.18819,-1.06104 0.54901,-2.73915 0.80184,-3.72915 0.25282,-0.99 0.57039,-2.4075 0.70571,-3.15 0.13532,-0.7425 0.47102,-1.9575 0.746,-2.7 1.5651,-4.22613 2.44838,-12.03357 1.9578,-17.30526 -0.6106,-6.56142 -3.39828,-18.57021 -7.62134,-32.83119 -1.25189,-4.22754 -2.66949,-9.29715 -3.15021,-11.26578 -1.09391,-4.47975 -2.80325,-14.84076 -3.77762,-22.89777 -0.40907,-3.3825 -0.87584,-6.6225 -1.03728,-7.2 -0.16144,-0.5775 -0.50133,-2.65767 -0.75532,-4.62261 -0.25398,-1.96494 -0.69891,-4.04676 -0.98874,-4.62621 -0.61999,-1.2396 -2.18933,-2.15496 -3.67228,-2.14191 -0.90436,0.008 -1.20429,0.21105 -2.10443,1.425 -0.96555,1.30215 -3.60483,4.59828 -6.65859,8.31573 -1.27864,1.55652 -1.47384,1.93788 -4.29956,8.4 -2.84265,6.50082 -8.14409,16.87497 -13.79764,27 -6.64641,11.90313 -13.0605,24.56334 -15.135,29.8737 -1.46576,3.75207 -2.42514,7.2195 -4.80772,17.3763 -0.52253,2.2275 -1.67758,5.90577 -2.56678,8.17395 -3.22104,8.21622 -5.21208,17.15814 -5.72826,25.72605 -0.0944,1.5675 -0.35763,3.525 -0.58488,4.35 -0.22725,0.825 -0.62264,2.6475 -0.87864,4.05 -0.98237,5.382 -3.80854,14.10861 -5.53796,17.1 -0.42926,0.7425 -1.15201,2.11815 -1.60612,3.05703 -0.94067,1.94487 -3.24809,4.21428 -5.41693,5.32776 -1.8139,0.93123 -3.71834,3.01596 -6.65801,7.28826 -1.27797,1.85733 -3.49207,4.99695 -4.92023,6.97695 -3.52772,4.89087 -4.87026,7.04442 -4.68787,7.51971 0.086,0.22425 -0.005,0.34506 -0.20633,0.27522 -0.39845,-0.13794 -0.60898,0.14904 -5.62023,7.66083 -4.15875,6.23416 -5.38931,8.35285 -5.38931,9.27922 0,0.37758 -0.4725,1.46433 -1.05,2.415 -0.5775,0.95067 -1.05,1.81275 -1.05,1.91571 0,0.10299 -0.34523,0.89532 -0.76716,1.76076 -0.82724,1.69677 -1.255,4.79529 -0.91339,6.6162 0.16913,0.90156 0.3734,1.12206 1.31538,1.41993 1.59389,0.50403 4.26517,1.86576 4.26517,2.17422 0,0.14382 0.50625,1.00419 1.125,1.91193 0.61875,0.90774 1.26,1.87503 1.425,2.14956 0.165,0.2745 0.54529,0.87075 0.84509,1.32495 0.47728,0.72306 0.52046,1.22712 0.34709,4.05126 -0.30372,4.94757 -0.4079,5.19537 -3.52085,8.3739 -3.79381,3.87372 -7.13491,5.36319 -14.47133,6.45126 -5.12583,0.76023 -7.47482,1.31139 -9.3,2.18211 -0.825,0.3936 -2.13707,1.00746 -2.91571,1.36416 -2.10068,0.96237 -3.89056,3.2865 -9.01371,11.70405 -2.45162,4.0281 -7.45057,11.95353 -9.12566,14.46798 -2.4325,3.65136 -3.58492,5.11383 -4.81776,6.11397 -0.78494,0.63678 -1.47216,1.26135 -1.52716,1.38792 -0.11619,0.26739 -1.7766,0.24408 -3.5,-0.0491 z m 114.3,-18.62073 c 0.10197,-0.165 0.24494,-0.3 0.3177,-0.3 0.0728,0 0.1323,0.135 0.1323,0.3 0,0.165 -0.14297,0.3 -0.31771,0.3 -0.17474,0 -0.23427,-0.135 -0.13229,-0.3 z"
       id="path3430"
       inkscape:connector-curvature="0" />
    <path
       style="fill:#a355ae"
       d="m 119.96428,733.52545 c -1.68262,-0.23598 -3.14353,-1.29393 -4.78024,-3.46173 -1.52028,-2.0136 -1.78491,-2.9517 -1.7805,-6.31176 0.004,-3.03948 0.48665,-5.28576 2.3855,-11.10198 0.91182,-2.79291 1.3137,-4.58127 1.41572,-6.3 0.12197,-2.05494 0.32989,-2.7882 1.44608,-5.1 0.71699,-1.485 1.50169,-3.645 1.74377,-4.8 0.24208,-1.155 0.91312,-3.7875 1.49119,-5.85 0.57808,-2.0625 1.21827,-4.4925 1.42265,-5.4 0.20437,-0.9075 0.75858,-2.51241 1.23157,-3.56649 0.9927,-2.21226 1.01371,-2.3664 0.41311,-3.03006 -0.40026,-0.44226 -0.34778,-0.63246 0.50317,-1.82361 0.52252,-0.7314 2.18622,-2.61234 3.69711,-4.17984 4.07856,-4.23138 5.87121,-6.82362 7.05375,-10.2 0.549,-1.5675 1.46389,-3.58782 2.0331,-4.48959 2.71838,-4.30665 8.66049,-15.05814 12.3581,-22.36041 5.74084,-11.33736 8.26734,-17.23668 12.1869,-28.4562 0.56801,-1.62588 1.24383,-3.44838 1.50182,-4.05 0.25799,-0.60159 0.52421,-1.8363 0.5916,-2.7438 0.0827,-1.11381 0.49953,-2.42991 1.28266,-4.05 0.63808,-1.32 1.46014,-3.21 1.8268,-4.2 0.36666,-0.99 0.84198,-2.2725 1.05626,-2.85 1.09313,-2.94596 2.27475,-5.67962 4.26306,-9.86249 1.2059,-2.53689 2.19254,-4.86948 2.19254,-5.18355 0,-0.3141 0.38641,-1.34346 0.8587,-2.2875 1.11606,-2.23086 2.90063,-7.45068 3.45866,-10.11645 0.24177,-1.155 0.58964,-3.9879 0.77303,-6.29532 0.39642,-4.9878 0.93432,-7.76715 2.13177,-11.0148 0.4874,-1.32189 1.21482,-4.17789 1.61648,-6.34668 0.40166,-2.16876 0.99621,-4.8207 1.32123,-5.8932 0.32502,-1.0725 0.8181,-3.43482 1.09573,-5.24958 0.27764,-1.81479 1.10746,-5.72979 1.84405,-8.7 l 1.33925,-5.40042 -0.31945,-3.3159 c -0.40775,-4.23237 -0.41397,-16.62339 -0.01,-19.94196 0.28731,-2.36028 1.94252,-11.34219 3.31565,-17.99214 0.92395,-4.47465 2.00445,-8.10753 4.20098,-14.12463 1.11925,-3.06603 2.9362,-8.60103 4.03767,-12.3 2.43395,-8.17371 2.99137,-9.61488 6.63389,-17.15169 l 2.86418,-5.92632 0.86431,-5.17368 c 0.47536,-2.84553 0.86646,-5.7288 0.86909,-6.40725 0.003,-0.67848 0.53426,-3.10848 1.1814,-5.4 2.82207,-9.99297 3.32691,-12.75999 3.31581,-18.17391 -0.004,-2.03088 0.22626,-7.28892 0.51206,-11.68452 0.45304,-6.96777 0.47193,-8.81322 0.14741,-14.4 -0.20471,-3.5244 -0.57091,-9.8505 -0.81375,-14.058 -0.24285,-4.2075 -0.54569,-9.3375 -0.67298,-11.4 -0.45038,-7.29765 0.12586,-13.46148 2.36994,-25.35 1.27983,-6.78018 1.86313,-9.12828 3.42813,-13.8 0.55274,-1.65 1.35321,-4.61358 1.77882,-6.58575 1.39744,-6.47538 3.44572,-11.77575 6.90347,-17.86425 0.89021,-1.5675 1.91271,-3.64328 2.27223,-4.61284 0.66972,-1.80614 4.63183,-7.36124 7.44821,-10.4428 1.46355,-1.60137 1.47442,-1.62815 1.19922,-2.95518 -0.59834,-2.88523 -0.59738,-3.5255 0.01,-6.41197 0.77066,-3.66462 0.84881,-9.17102 0.16217,-11.42721 -0.25107,-0.825 -0.70869,-3.0525 -1.01693,-4.95 -0.71449,-4.3984 -1.15828,-5.53939 -5.35397,-13.76505 C 229.68867,206.30036 227.18622,200.26205 223.68906,189.3 220.91933,180.61808 216.9,167.05929 216.9,166.3978 c 0,-0.50658 -1.64674,-5.58052 -2.83665,-8.74035 -0.37436,-0.9941 -1.10758,-2.48038 -1.62939,-3.30284 -1.36629,-2.15351 -1.61714,-3.3463 -1.21362,-5.77054 0.83767,-5.03243 1.99947,-9.30807 4.30252,-15.83407 0.93166,-2.64 2.37542,-7.00964 3.20835,-9.7103 0.83293,-2.70066 2.51258,-7.24226 3.73256,-10.09244 1.84179,-4.30291 3.20938,-8.01055 6.14043,-16.647262 0.13999,-0.4125 0.67869,-1.83 1.19711,-3.15 1.67763,-4.271547 1.66156,-4.010076 0.46682,-7.595571 -1.02688,-3.08175 -1.05808,-3.30051 -0.77821,-5.457435 0.32724,-2.522013 0.39306,-6.406968 0.12547,-7.404858 -0.22303,-0.83172 -1.3424,-1.100607 -4.35363,-1.045791 -2.08728,0.03799 -2.47195,0.147567 -4.38002,1.247655 -1.15048,0.6633 -2.4286,1.206 -2.84027,1.206 -0.99522,0 -1.67069,-0.801684 -1.90381,-2.259531 -0.16858,-1.054251 -0.0913,-1.282935 0.66072,-1.955667 0.46839,-0.418995 1.2243,-1.206543 1.6798,-1.750101 0.45549,-0.543561 1.19799,-1.086381 1.65,-1.20627 0.64107,-0.17004 0.84212,-0.423126 0.91415,-1.150758 0.0763,-0.771156 0.49086,-1.228968 2.39238,-2.642211 3.52367,-2.618853 3.79508,-2.710212 6.73448,-2.266917 1.36444,0.205773 3.31706,0.581562 4.33915,0.835083 1.7673,0.438366 1.89958,0.432207 2.7,-0.125709 1.90567,-1.328307 2.73535,-0.957372 6.10485,2.729403 0.96209,1.052682 1.99546,1.837311 2.84916,2.163339 1.72616,0.659229 2.53765,1.920201 2.53765,3.943254 0,1.113141 0.153,1.631559 0.60126,2.037231 0.78788,0.713016 1.29888,2.670972 1.04721,4.012479 -0.1102,0.587451 -0.51558,1.612203 -0.90082,2.277231 -0.38525,0.665031 -0.93107,2.019144 -1.21293,3.009144 -0.28186,0.99 -0.96748,2.707881 -1.5236,3.817512 -0.75646,1.509369 -1.01112,2.406987 -1.01112,3.563877 0,1.515426 -1.12413,7.198239 -1.95214,9.86861 -1.07938,3.481093 -2.11722,9.880393 -2.53001,15.600003 -0.77313,10.71238 -1.3075,14.18798 -4.12816,26.85 -2.16965,9.73961 -2.2769,11.45972 -1.00123,16.05704 0.52545,1.89362 2.34447,7.15546 4.04227,11.69296 1.6978,4.5375 3.86682,10.6125 4.82004,13.5 2.14191,6.48824 2.6386,7.49013 5.00877,10.10335 5.512,6.07721 14.42812,17.74157 16.01141,20.94664 1.40764,2.84949 1.99323,5.85987 1.89662,9.75 l -0.0782,3.15 2.48496,2.55 c 1.36673,1.4025 2.74412,3.11511 3.06088,3.8058 0.70031,1.52705 1.62178,2.03013 4.83495,2.63966 8.08081,1.53291 13.27308,-0.33498 19.30416,-6.94455 3.20356,-3.51085 3.64903,-4.1532 3.88717,-5.60514 0.372,-2.26827 4.37544,-11.21234 5.26473,-11.76196 0.17955,-0.11096 0.21633,-1.04439 0.0942,-2.39182 -0.19755,-2.18035 -0.18273,-2.24468 1.11255,-4.82304 0.74832,-1.48962 1.54086,-2.67286 1.8432,-2.75193 0.29172,-0.0763 0.61161,-0.46221 0.71085,-0.85761 0.27327,-1.08879 1.51398,-1.90941 2.88684,-1.90941 0.95739,0 1.48251,-0.24246 2.65983,-1.22817 0.80679,-0.6755 1.38945,-1.35354 1.29477,-1.50675 -0.19992,-0.32345 0.72165,-3.26732 1.02069,-3.26048 0.36378,0.008 0.85857,0.43812 0.99576,0.86496 0.0851,0.26484 0.53817,-0.14186 1.22862,-1.10294 0.60159,-0.83737 1.8774,-2.10354 2.83515,-2.81371 0.95775,-0.71017 2.63535,-2.10385 3.72804,-3.09706 1.09269,-0.99322 2.78019,-2.19677 3.75,-2.67456 0.96981,-0.4778 2.03331,-1.10996 2.36331,-1.4048 0.33,-0.29484 1.27407,-0.82443 2.0979,-1.17687 0.82386,-0.35244 1.97028,-0.93273 2.5476,-1.28954 0.57735,-0.35682 1.18578,-0.65952 1.3521,-0.67267 0.16632,-0.0132 0.82329,-0.25989 1.45995,-0.54829 3.18378,-1.44225 8.02434,-2.04746 10.96107,-1.37047 1.1751,0.2709 1.39368,0.23347 2.00823,-0.34387 0.87252,-0.8197 2.14332,-0.63142 4.09587,0.60685 0.75825,0.48088 2.03085,0.96592 2.82795,1.07787 1.33584,0.18761 1.62555,0.39492 3.69933,2.64703 1.2375,1.34391 3.02625,3.19535 3.975,4.11431 0.94875,0.91896 1.725,1.88307 1.725,2.14248 0,0.2594 0.3375,0.55635 0.75,0.65988 0.4125,0.10353 0.75,0.34221 0.75,0.5304 0,0.18818 0.7425,1.12059 1.65,2.07201 0.9075,0.95142 1.65,1.93466 1.65,2.18498 0,0.25031 0.28674,0.9411 0.6372,1.53508 0.35046,0.59397 0.55266,1.16448 0.44934,1.2678 -0.10332,0.10331 0.0313,0.43002 0.29919,0.72601 0.26787,0.296 0.40356,0.75574 0.30153,1.02164 -0.10206,0.26591 0.0243,0.69334 0.28086,0.94986 0.2565,0.25651 0.3888,0.66859 0.29397,0.91573 -0.0949,0.24714 -0.0138,0.64045 0.18003,0.87403 0.23943,0.28851 0.2544,0.52276 0.0466,0.73051 -0.20775,0.20775 -0.16596,0.70871 0.13032,1.56228 0.27753,0.79953 0.36915,1.74743 0.25197,2.60647 -0.10131,0.7425 -0.30918,2.32449 -0.462,3.51552 -0.15279,1.19103 -0.41982,2.4309 -0.59343,2.75528 -0.17361,0.32437 -0.31563,0.85043 -0.31563,1.16902 0,0.3186 -0.25122,0.90123 -0.5583,1.29473 -0.42747,0.54784 -0.53856,1.12382 -0.47415,2.45856 0.10515,2.17782 -0.60795,4.00088 -2.43723,6.23089 -0.73167,0.89196 -1.33032,1.77053 -1.33032,1.95238 0,0.18185 -0.26493,0.57038 -0.58872,0.8634 -0.32376,0.29303 -0.74925,1.0227 -0.94551,1.6215 -0.19623,0.5988 -0.6738,1.50647 -1.06128,2.01704 -0.38748,0.51058 -0.70668,1.05058 -0.70932,1.2 -0.0102,0.57895 -5.48523,6.30158 -6.53556,6.83129 -0.61029,0.30779 -1.37961,0.79852 -1.70961,1.09052 -0.33,0.292 -0.9375,0.63154 -1.35,0.75453 -0.4125,0.12298 -1.30869,0.71225 -1.99155,1.30948 -0.68283,0.59722 -1.69533,1.38596 -2.25,1.75275 -0.55464,0.36678 -1.68345,1.12426 -2.50845,1.68328 -0.825,0.55903 -1.8015,1.11106 -2.17002,1.22675 -0.36849,0.11569 -2.05599,1.12386 -3.75,2.24038 -7.28997,4.80485 -12.12102,6.92821 -16.86993,7.41475 -1.25052,0.12812 -1.98411,0.34797 -2.09106,0.62667 -0.0906,0.23612 -0.30072,0.34529 -0.46686,0.24259 -0.57051,-0.35259 -0.29772,0.60157 0.77154,2.69869 1.36896,2.68493 5.53638,8.19918 8.74371,11.56952 l 2.49618,2.62307 2.01822,-0.005 c 1.32402,-0.003 2.53416,0.20042 3.51822,0.59249 1.87518,0.74711 8.51343,2.06109 11.7,2.3159 3.30657,0.26441 7.28121,1.35582 10.9815,3.01546 1.71516,0.76929 5.31444,2.32808 7.99839,3.46399 2.68395,1.1359 6.59895,2.94 8.7,4.0091 2.10105,1.0691 4.42761,2.16033 5.17011,2.42494 1.7931,0.63905 10.81059,2.03267 19.35,2.99049 6.67395,0.74857 10.14357,1.35219 17.1,2.97494 3.81759,0.89054 6.65205,0.99223 8.12847,0.29162 1.57647,-0.74809 4.01331,-3.61034 5.7315,-6.7321 1.67853,-3.0497 2.79906,-6.14457 4.28481,-11.83428 0.51702,-1.98 1.9434,-6.65723 3.16971,-10.39384 1.22634,-3.73661 2.42754,-7.65161 2.66934,-8.7 0.9792,-4.24559 2.57862,-13.98227 3.30015,-20.09003 0.42126,-3.56613 0.90096,-7.19581 1.06599,-8.06595 0.47571,-2.50839 0.35946,-5.09019 -0.29397,-6.52983 -0.82647,-1.82081 -3.18822,-4.19602 -7.07544,-7.11573 -3.94506,-2.96317 -4.48881,-3.58503 -5.09475,-5.82689 -0.77388,-2.86303 -2.20401,-7.03851 -2.83404,-8.27426 -0.33096,-0.64919 -0.60177,-1.56279 -0.60177,-2.03025 0,-1.65874 0.97581,-4.77176 1.73316,-5.52911 0.68178,-0.68177 0.73161,-0.91052 0.58806,-2.69889 -0.1404,-1.74918 -0.273,-2.07296 -1.26504,-3.0889 -1.10088,-1.1274 -1.10727,-1.14853 -0.96408,-3.19561 0.30999,-4.43194 1.03569,-6.82911 2.64882,-8.74967 0.65184,-0.77607 1.44525,-1.72171 1.76313,-2.10141 0.50178,-0.59939 0.66807,-0.64236 1.26195,-0.326 1.54929,0.82533 1.74951,2.04645 1.00974,6.15823 -0.73944,4.10991 -0.83739,6.69168 -0.31992,8.43414 0.27087,0.91209 0.64146,1.574 0.88128,1.574 0.93213,0 1.3629,-0.39247 1.3629,-1.24173 0,-1.71073 0.77418,-2.93635 2.27385,-3.59972 0.80622,-0.35663 1.72764,-0.55202 2.18511,-0.46335 3.01794,0.58499 5.35737,1.21255 5.74104,1.54007 0.2475,0.21128 0.84543,0.47842 1.32876,0.59365 0.97266,0.23189 5.27124,3.09303 5.27124,3.50855 0,0.14439 0.46215,0.26253 1.02699,0.26253 1.26678,0 2.65677,1.10002 3.5145,2.78134 0.51306,1.0057 0.59805,1.64156 0.51186,3.83056 -0.0821,2.08355 -0.004,2.73947 0.37737,3.1814 0.73044,0.8459 1.3671,2.1423 2.18871,4.4567 0.41001,1.155 1.02435,2.8425 1.36521,3.75 0.34086,0.9075 0.88731,3.0675 1.21434,4.8 0.71265,3.77515 0.57204,7.67092 -0.33114,9.17549 -1.41072,2.35002 -2.18622,8.55072 -2.5107,20.07451 -0.0929,3.3 -0.30291,7.2825 -0.46668,8.85 -0.27327,2.61584 -0.75486,7.87012 -1.49856,16.35 -0.98313,11.21001 -3.55521,25.37371 -7.164,39.45 -2.71014,10.57101 -2.87658,11.06973 -4.11861,12.34167 -1.49673,1.53282 -2.66367,1.88394 -5.32044,1.6008 -1.17636,-0.12537 -9.42885,-0.26142 -18.33885,-0.30231 -31.15161,-0.14304 -40.20756,-1.17603 -59.55,-6.79284 -13.47261,-3.91227 -18.55764,-4.56483 -24.15,-3.09906 -2.52291,0.66126 -7.22955,3.01377 -10.99287,5.49456 -2.6382,1.7391 -3.5196,2.52627 -5.07354,4.53096 -1.03437,1.33443 -1.98681,2.42622 -2.11656,2.42622 -0.12972,0 -1.0428,0.67152 -2.02902,1.49226 -0.98625,0.82077 -2.91699,2.21985 -4.29057,3.10908 -1.80906,1.17117 -3.82047,2.97504 -7.29744,6.54456 -4.85796,4.98726 -5.91954,6.49008 -7.38462,10.4541 -0.21345,0.5775 -0.83175,1.7925 -1.37403,2.7 -1.09266,1.82856 -4.536,6 -4.95276,6 -0.14619,0 -0.18033,0.45555 -0.0759,1.01235 0.1692,0.90186 0.0551,1.14585 -1.04571,2.23569 -0.95988,0.95034 -1.19676,1.3782 -1.06146,1.91727 0.12999,0.51798 -0.0578,0.91623 -0.7407,1.57044 -1.0545,1.01028 -1.14573,1.36425 -0.35157,1.36425 0.74022,0 1.35327,0.76356 1.1139,1.38735 -0.13062,0.34041 0.30951,1.02093 1.40916,2.17884 5.07375,5.34246 9.28485,11.82546 12.29862,18.93381 1.7166,4.0488 6.99069,17.98626 8.57103,22.65 2.14791,6.3387 3.37053,14.00448 3.80388,23.84999 0.1053,2.3925 0.45501,7.2525 0.77712,10.8 0.32211,3.5475 0.71007,10.5675 0.86208,15.6 0.20373,6.74388 0.47751,10.68834 1.04115,15 1.14726,8.77623 1.44705,15.26058 1.27551,27.58692 -0.20991,15.08133 -1.05504,22.98672 -4.12275,38.56308 -0.97488,4.95 -1.91184,10.1475 -2.08212,11.55 -0.41982,3.45735 -0.91086,11.51265 -0.91086,14.94198 0,3.58866 -0.78099,6.00501 -3.6549,11.30802 -2.4039,4.43574 -3.6453,7.50153 -5.04129,12.45 -0.93171,3.30267 -2.9925,9.08652 -3.68772,10.35 -0.18159,0.33 -1.40418,2.4225 -2.71686,4.65 -2.94648,4.99983 -5.17341,8.8401 -7.39365,12.75 -0.93693,1.65 -2.334,4.05741 -3.10455,5.34978 -0.77056,1.2924 -1.40103,2.48034 -1.40103,2.63991 0,0.68163 -1.05229,2.30643 -2.30582,3.56031 -1.50045,1.5009 -7.88581,10.99134 -12.04666,17.90475 -4.35039,7.22835 -6.84944,12.11628 -10.70862,20.94525 -2.11453,4.83756 -3.87031,7.88604 -4.78098,8.30097 -0.5407,0.24636 -0.93672,1.04334 -1.77685,3.57582 -1.21015,3.64788 -1.27091,4.28289 -0.61462,6.42321 0.29766,0.97074 0.39378,1.99293 0.27244,2.89707 -0.16643,1.24005 -0.11703,1.41945 0.43964,1.59612 0.34493,0.10947 1.04395,0.71769 1.55338,1.35162 0.50943,0.63393 1.74497,1.58895 2.74564,2.12232 1.00067,0.53334 2.91657,1.80687 4.25755,2.83002 2.76159,2.10711 7.90556,5.26893 9.43467,5.79921 0.56087,0.19449 1.33895,0.35364 1.72907,0.35364 0.77811,0 1.68665,0.4494 2.63589,1.3038 1.06995,0.96309 1.98395,1.15395 7.51527,1.56948 6.00996,0.45147 7.99521,0.87183 11.1558,2.36229 3.29694,1.55475 4.83543,4.04043 4.50177,7.27338 -0.18825,1.824 -1.48956,4.40154 -2.66535,5.2794 -1.23468,0.92181 -5.66799,1.36491 -12.40907,1.24026 -7.59068,-0.14037 -12.86926,-0.38946 -15.73315,-0.74244 -7.05145,-0.86913 -17.49455,-1.76196 -27.89999,-2.3853 -10.63545,-0.63711 -17.34472,-1.4622 -16.95941,-2.08566 0.0873,-0.14121 -0.26629,-0.40491 -0.78572,-0.58599 -1.2001,-0.41835 -1.17096,-0.42441 -0.94343,0.19578 0.42306,1.15308 -2.12665,-2.26839 -2.76343,-3.70827 -1.01131,-2.28675 -1.34952,-4.27719 -1.33495,-7.85649 0.0159,-3.9021 0.33387,-5.70747 1.1159,-6.33549 0.32513,-0.26112 0.73629,-0.91116 0.91368,-1.44456 0.17738,-0.53337 0.79012,-1.76763 1.36163,-2.74275 1.51501,-2.58498 4.98349,-10.74213 6.20269,-14.58744 0.20925,-0.66 0.68492,-2.01 1.05703,-3 0.74817,-1.9905 1.63601,-4.86489 1.63601,-5.29659 0,-0.15273 0.2679,-0.6435 0.59535,-1.09056 0.35093,-0.47913 0.62805,-1.39728 0.675,-2.23638 0.0459,-0.82017 0.22498,-1.42413 0.42255,-1.425 0.42584,-0.003 0.2118,0.55122 3.59978,-9.30147 5.25365,-15.27834 5.15167,-14.91207 7.01015,-25.17873 1.95131,-10.77954 3.37495,-17.14689 4.27581,-19.12407 0.17472,-0.38346 0.53225,-0.69702 0.79451,-0.69678 0.38678,0 0.45976,-0.29715 0.38637,-1.575 -0.0688,-1.19877 0.0746,-1.878 0.6,-2.84103 0.37976,-0.69606 1.26937,-2.36352 1.97691,-3.70548 2.13978,-4.0584 4.95728,-8.04555 11.41719,-16.15686 2.02716,-2.54538 3.88285,-5.00913 4.12376,-5.475 0.24091,-0.46587 0.5532,-0.84705 0.69397,-0.84705 0.29874,0 3.35077,-3.97125 4.72605,-6.14946 1.11985,-1.77366 1.56386,-3.17697 2.65801,-8.40054 0.4493,-2.145 1.05874,-4.58202 1.35431,-5.4156 0.29558,-0.83361 0.90291,-3.26361 1.34963,-5.4 1.01301,-4.84473 1.14922,-11.65878 0.32951,-16.4844 -1.16186,-6.83979 -3.51362,-16.39428 -6.78962,-27.58419 -1.31286,-4.48434 -2.79527,-9.76491 -3.29425,-11.73459 -1.13496,-4.48017 -3.07596,-16.04601 -4.04975,-24.13122 -0.40738,-3.3825 -0.87279,-6.6225 -1.03423,-7.2 -0.16144,-0.5775 -0.49845,-2.63568 -0.7489,-4.57371 -0.25046,-1.93803 -0.6682,-3.93525 -0.92831,-4.43826 -0.63473,-1.22745 -2.12098,-2.08554 -3.61461,-2.08692 -1.15584,0 -1.30258,0.10665 -2.75746,2.02389 -1.75008,2.30625 -4.34636,5.55933 -6.10164,7.6452 -1.21827,1.44771 -2.01312,3.00522 -4.78687,9.3798 -2.56789,5.90148 -7.38023,15.27255 -13.32615,25.95 -6.55552,11.77215 -12.99629,24.5316 -15.10782,29.92926 -1.7403,4.44867 -2.30719,6.41514 -4.25622,14.76417 -0.79047,3.38613 -1.86419,7.30407 -2.38606,8.70657 -3.36188,9.03495 -4.05175,11.28156 -4.9511,16.12347 -0.72778,3.91818 -1.6561,11.08323 -1.65182,12.74919 0.002,0.86754 -0.26118,2.65734 -0.58535,3.97734 -0.32417,1.32 -0.87783,3.75 -1.23037,5.4 -1.26197,5.90658 -3.15584,11.28123 -5.86429,16.64241 -1.72859,3.42162 -3.17545,5.06073 -5.84176,6.61794 -2.59446,1.51524 -4.21689,3.32466 -8.51061,9.49152 -1.93315,2.77647 -4.36676,6.25695 -5.40801,7.73439 -1.04125,1.47741 -2.14506,3.16491 -2.45291,3.75 -0.30784,0.58506 -0.706,1.19874 -0.8848,1.36374 -0.38109,0.35169 -2.31249,3.10287 -4.84398,6.9 -3.55434,5.33135 -5.78197,9.15362 -5.78197,9.9209 0,0.42759 -0.4725,1.48926 -1.05,2.35929 -0.5775,0.87006 -1.05,1.71141 -1.05,1.86972 0,0.15828 -0.32036,0.9543 -0.71192,1.76892 -0.87168,1.81356 -1.16308,3.08853 -1.16308,5.0889 0,2.37189 0.21621,2.73975 2.00333,3.40839 3.08246,1.15329 4.02816,2.11377 6.88436,6.99189 l 0.8244,1.40799 -0.30338,3.79653 c -0.21131,2.64426 -0.45841,4.03794 -0.81416,4.59198 -1.01135,1.57509 -5.40112,5.67624 -6.87424,6.42228 -2.37132,1.20093 -7.17457,2.53851 -11.06301,3.08076 -1.96223,0.27363 -4.31909,0.69324 -5.23747,0.93243 -2.02474,0.5274 -6.85095,2.63721 -7.65563,3.34677 -1.00788,0.88872 -3.95428,5.00979 -6.20546,8.67945 -5.83621,9.51363 -7.03795,11.43738 -7.94797,12.723 -0.54084,0.76407 -1.21378,1.84407 -1.49542,2.4 -0.28164,0.55593 -0.90306,1.55079 -1.38093,2.21079 -0.47786,0.66 -1.40042,1.93047 -2.05013,2.8233 -1.55075,2.13099 -4.12239,4.23909 -5.10717,4.18662 -0.41367,-0.0219 -1.3757,-0.12753 -2.13784,-0.23445 z"
       id="path3428"
       inkscape:connector-curvature="0" />
    <path
       style="fill:#9a47a6"
       d="m 119.90767,733.48708 c -1.74408,-0.29301 -3.10987,-1.28595 -4.74164,-3.44721 -1.43558,-1.90143 -1.75042,-3.02958 -1.75533,-6.28989 -0.004,-2.71356 0.53349,-5.15235 2.38063,-10.8 0.95048,-2.9061 1.31316,-4.54986 1.42313,-6.45 0.13026,-2.25081 0.29953,-2.85369 1.4427,-5.13837 0.76265,-1.52418 1.53818,-3.68268 1.88626,-5.25 0.32512,-1.46391 0.88744,-3.67413 1.24961,-4.91163 0.36216,-1.2375 0.99077,-3.58599 1.39691,-5.21886 0.40614,-1.63287 1.01412,-3.52287 1.35107,-4.2 1.05221,-2.11452 1.16069,-2.74746 0.54672,-3.18999 -0.5175,-0.37299 -0.49714,-0.46548 0.38897,-1.76736 0.51428,-0.75558 2.23268,-2.72379 3.81867,-4.37379 4.33392,-4.50885 5.55437,-6.26022 6.91116,-9.91761 0.64815,-1.7472 1.77666,-4.14549 2.50778,-5.32956 7.23893,-11.72352 16.70958,-30.45528 20.73077,-41.00283 4.47182,-11.72955 5.29734,-14.14152 5.43479,-15.87921 0.0881,-1.11414 0.54277,-2.48937 1.43809,-4.35 0.72007,-1.49643 1.58954,-3.53079 1.93214,-4.52079 1.29292,-3.73605 2.10423,-5.77688 3.2797,-8.24999 3.02664,-6.36786 3.9702,-8.50503 3.9702,-8.99253 0,-0.28842 0.54,-1.67673 1.2,-3.08514 0.66,-1.40841 1.2,-2.71143 1.2,-2.8956 0,-0.18417 0.13483,-0.56928 0.29962,-0.85581 0.70179,-1.22013 1.81396,-6.05193 2.10895,-9.16227 0.70542,-7.43787 1.1468,-10.04136 2.22952,-13.15098 0.59512,-1.70922 1.40803,-4.86267 1.80645,-7.00767 0.39841,-2.145 0.99031,-4.7775 1.31533,-5.85 0.32502,-1.0725 0.81687,-3.435 1.09302,-5.25 0.27614,-1.815 1.10665,-5.715 1.84558,-8.66667 l 1.3435,-5.3667 -0.35782,-3.86568 c -0.52955,-5.72103 -0.20578,-19.27428 0.55424,-23.20095 3.5636,-18.41154 3.96695,-20.03337 7.20304,-28.96296 0.98922,-2.72961 2.63105,-7.72461 3.6485,-11.1 2.81802,-9.34863 2.90241,-9.56757 6.85145,-17.77467 l 2.85704,-5.93766 0.83793,-5.01234 c 0.46087,-2.75682 0.845,-5.55237 0.85362,-6.21237 0.0155,-1.1892 0.5379,-3.38562 2.39012,-10.05 1.70601,-6.1383 1.87337,-7.30842 2.12399,-14.85 0.13161,-3.96 0.41412,-9.86568 0.62782,-13.12371 0.40778,-6.21684 0.41983,-5.82435 -0.80846,-26.32629 -0.26196,-4.3725 -0.56565,-9.5025 -0.67487,-11.4 -0.4105,-7.13196 0.12146,-12.66015 2.38164,-24.75 1.41199,-7.55286 1.68415,-8.68053 3.40291,-14.1 0.73261,-2.31 1.68157,-5.7525 2.10881,-7.65 1.07173,-4.75992 2.64211,-9.10076 4.8296,-13.35 1.0193,-1.98 2.30894,-4.48314 2.86587,-5.56254 0.55693,-1.07939 1.31203,-2.63189 1.67801,-3.45 0.75236,-1.68181 4.28733,-6.48029 7.00769,-9.51246 0.99923,-1.11375 1.6728,-2.025 1.49683,-2.025 -0.17596,0 -0.31993,-0.35558 -0.31993,-0.79019 0,-0.43461 -0.15157,-1.29608 -0.33681,-1.91437 -0.27588,-0.9208 -0.22159,-1.68693 0.30012,-4.23481 0.85152,-4.15861 0.87471,-9.5638 0.0542,-12.63228 -0.32037,-1.19809 -0.73301,-3.25835 -0.91699,-4.57835 -0.512,-3.67363 -0.95203,-4.79372 -5.25553,-13.37774 -4.66723,-9.30953 -9.45024,-20.02665 -9.4434,-21.15945 8.8e-4,-0.14454 -1.00308,-3.3678 -2.23101,-7.1628 -2.57111,-7.94615 -6.77057,-22.04298 -6.77057,-22.72755 0,-0.50642 -1.39365,-4.83902 -2.6288,-8.17245 -0.42797,-1.155 -1.20493,-2.775 -1.72659,-3.6 -1.48964,-2.35588 -1.6817,-3.18779 -1.30512,-5.65317 0.18036,-1.18076 0.52705,-2.95683 0.77043,-3.94683 0.24338,-0.99 0.55785,-2.35353 0.69883,-3.03006 0.14098,-0.67652 1.01472,-3.44402 1.94164,-6.15 0.92693,-2.70597 2.16265,-6.40494 2.74606,-8.21994 0.58341,-1.815 1.54074,-4.785 2.12741,-6.6 0.58667,-1.815 1.79497,-4.9875 2.68513,-7.05 1.6954,-3.92828 3.10349,-7.62922 5.19338,-13.65 0.68728,-1.980003 1.55856,-4.410002 1.93619,-5.400002 0.37762,-0.99 1.00431,-2.706624 1.39264,-3.814722 l 0.70606,-2.014722 -1.08988,-3.385278 c -0.98286,-3.052854 -1.06573,-3.562032 -0.84395,-5.185278 0.13526,-0.99 0.25733,-3.106608 0.27125,-4.703571 0.0348,-3.988197 -0.0964,-4.088112 -5.07468,-3.865545 -1.64072,0.07335 -2.26206,0.272112 -3.91746,1.253148 -1.08209,0.641283 -2.30992,1.165968 -2.7285,1.165968 -0.75118,0 -1.83726,-0.877446 -1.71735,-1.387452 0.034,-0.144402 -0.0443,-0.640794 -0.17391,-1.103094 -0.21075,-0.751791 -0.0734,-0.992055 1.30079,-2.275437 C 218.3086,68.544823 219,67.74568 219,67.558138 c 0,-0.187542 0.43875,-0.453873 0.975,-0.591846 0.805,-0.20712 0.99107,-0.413607 1.06719,-1.184262 0.0753,-0.76245 0.45992,-1.2006 2.1,-2.392326 4.11098,-2.987145 4.00043,-2.946852 6.92953,-2.525547 1.41805,0.203964 3.43109,0.584157 4.47341,0.844872 1.84424,0.461298 1.91844,0.456798 2.76285,-0.167502 1.65651,-1.224705 2.86197,-0.673413 5.97468,2.732394 0.9894,1.082553 2.01917,1.868103 2.87969,2.196738 1.72616,0.659229 2.53765,1.920201 2.53765,3.943254 0,1.113141 0.153,1.631559 0.60126,2.037231 0.78788,0.713016 1.29888,2.670972 1.04721,4.012479 -0.1102,0.587451 -0.51065,1.612203 -0.88988,2.277231 -0.37923,0.665031 -0.98346,2.140905 -1.34274,3.27972 -0.35928,1.138818 -1.04982,2.856219 -1.53454,3.816447 -0.63501,1.257936 -0.88131,2.177673 -0.88131,3.290913 0,1.374516 -1.56694,9.252251 -1.97009,9.904559 -0.5642,0.912903 -1.99891,9.610287 -2.39478,14.517507 -0.98755,12.24174 -1.84612,17.68494 -4.80696,30.47548 -0.58878,2.54349 -1.14567,5.85014 -1.23753,7.34813 -0.14947,2.43737 -0.0675,3.08011 0.77986,6.11554 0.52079,1.86556 2.34313,7.11993 4.04966,11.67638 1.70652,4.55646 3.87817,10.64697 4.82588,13.53447 2.0954,6.38431 2.66505,7.54595 4.8856,9.96283 5.15594,5.61178 14.50217,17.83219 16.12759,21.08716 1.36118,2.72585 2.00001,6.0672 1.89278,9.9 l -0.0839,3 2.49921,2.55 c 1.37456,1.4025 2.76045,3.1235 3.07974,3.82443 0.7085,1.55535 1.49862,1.99039 4.72727,2.60285 3.4702,0.65829 7.60463,0.61968 9.66816,-0.0903 3.36802,-1.15876 6.37259,-3.09526 8.48189,-5.4667 0.64589,-0.72616 1.95581,-2.15985 2.91092,-3.18597 1.20498,-1.29455 1.83522,-2.25883 2.05881,-3.15 0.87933,-3.50478 3.48171,-9.53951 5.17758,-12.00654 0.47712,-0.69405 0.53385,-1.14059 0.36393,-2.86498 -0.19551,-1.98389 -0.16368,-2.11904 1.10367,-4.68764 0.86457,-1.75224 1.53378,-2.73184 1.98285,-2.90259 0.37284,-0.14175 0.67788,-0.44861 0.67788,-0.68192 0,-0.93384 1.04151,-1.70802 2.54175,-1.88936 1.81422,-0.21929 4.61307,-2.14631 4.16658,-2.86871 -0.20802,-0.3366 0.77634,-3.23258 1.09878,-3.23258 0.14238,0 0.45213,0.2759 0.68832,0.61311 0.41508,0.59263 0.46524,0.56329 1.50066,-0.87793 0.58917,-0.82009 1.85481,-2.07102 2.81256,-2.77986 0.95775,-0.70883 2.56671,-2.04695 3.57549,-2.97358 1.78287,-1.63766 4.31637,-3.28174 5.05716,-3.28174 0.20112,0 0.62289,-0.28583 0.9372,-0.63516 0.31434,-0.34935 1.66656,-1.14198 3.00495,-1.76143 1.33839,-0.61944 2.52897,-1.28082 2.64573,-1.46973 0.11676,-0.18891 0.33771,-0.26595 0.49101,-0.1712 0.15333,0.0947 0.57903,-0.038 0.94605,-0.29511 0.36699,-0.25705 0.94773,-0.46737 1.29051,-0.46737 0.34278,0 0.7515,-0.11641 0.90825,-0.25868 0.50235,-0.45596 4.2546,-1.24132 5.9307,-1.24132 0.89232,0 2.33976,0.13604 3.21654,0.30232 1.44549,0.27413 1.65756,0.24275 2.27418,-0.33654 0.86238,-0.81017 2.14173,-0.61736 4.0863,0.61584 0.75825,0.48088 2.03085,0.97036 2.82795,1.08775 1.3266,0.19536 1.63986,0.4186 3.69933,2.63635 1.2375,1.3326 3.02625,3.19568 3.975,4.14018 0.94875,0.94449 1.725,1.91815 1.725,2.16368 0,0.24553 0.18408,0.49007 0.40908,0.54342 0.58806,0.13943 4.39092,4.36681 4.39092,4.88109 0,0.23739 0.28071,0.90738 0.62382,1.48888 0.34308,0.5815 0.54708,1.18142 0.4533,1.33316 -0.0938,0.15173 0.0392,0.44991 0.29547,0.66261 0.28743,0.23855 0.40131,0.64439 0.29721,1.05917 -0.0928,0.36983 -0.0279,0.71935 0.14406,0.7767 0.17202,0.0573 0.33069,0.43977 0.35256,0.84983 0.0219,0.41005 0.17214,0.92003 0.33393,1.13327 0.19551,0.25762 0.1824,0.49953 -0.039,0.72096 -0.21723,0.21725 -0.2361,0.51474 -0.0542,0.85467 0.46305,0.86519 0.57654,2.69131 0.26784,4.30902 -0.16032,0.8402 -0.35487,2.26296 -0.4323,3.16169 -0.0774,0.89873 -0.27621,1.76948 -0.44175,1.935 -0.16551,0.16552 -0.30093,0.64891 -0.30093,1.07419 0,0.42529 -0.23526,1.10704 -0.52281,1.515 -0.35805,0.50801 -0.53121,1.35625 -0.54951,2.69175 -0.0321,2.34551 -0.74259,4.08749 -2.49105,6.1077 -0.68016,0.78584 -1.24212,1.58934 -1.24881,1.78555 -0.007,0.19622 -0.41172,0.82415 -0.9,1.39542 -0.48831,0.57127 -0.88782,1.33099 -0.88782,1.68827 0,0.35728 -0.22341,0.83488 -0.49647,1.06133 -0.27306,0.22645 -0.67371,0.81673 -0.89034,1.31173 -0.21666,0.495 -1.48917,2.115 -2.82786,3.6 -2.32515,2.57929 -4.10355,3.96067 -6.73626,5.23243 -0.66051,0.31907 -1.59702,0.99355 -2.08113,1.49885 -0.48411,0.5053 -1.03314,0.91872 -1.22007,0.91872 -0.18693,0 -0.87042,0.45157 -1.51887,1.00349 -1.44435,1.22934 -3.59055,2.59651 -4.07604,2.59651 -0.19743,0 -1.24635,0.58682 -2.33097,1.30404 -7.0422,4.65684 -9.45525,5.95462 -13.67199,7.35302 -1.485,0.49247 -3.63966,0.99237 -4.78815,1.11088 -2.5752,0.26575 -3.07956,0.66588 -2.54325,2.01765 1.30968,3.30102 6.55206,10.37807 10.52721,14.21138 1.59786,1.54087 1.6119,1.54696 3.55419,1.54322 1.25502,-0.002 2.48577,0.20978 3.4533,0.59539 1.88451,0.75108 8.51967,2.06336 11.6967,2.31334 3.39534,0.26716 7.39047,1.3853 11.3187,3.16786 1.85973,0.8439 5.4063,2.38068 7.8813,3.41507 2.475,1.0344 6.39,2.8332 8.7,3.99735 2.31,1.16415 4.9425,2.32846 5.85,2.58735 2.18238,0.62259 8.06613,1.51704 15.94164,2.42347 9.60792,1.10582 10.76133,1.28928 16.45836,2.61787 6.54348,1.52599 10.00776,1.79696 11.45664,0.89613 2.55267,-1.5871 5.68464,-6.04034 7.42851,-10.56241 0.4971,-1.28901 1.57599,-4.81819 2.39757,-7.84263 0.82155,-3.02444 2.16351,-7.45648 2.98215,-9.84898 0.81864,-2.3925 1.77054,-5.31497 2.11536,-6.49438 1.38126,-4.72447 2.97108,-13.72376 4.07304,-23.05562 0.42864,-3.63 0.90369,-7.14 1.0557,-7.8 0.48117,-2.08925 0.3369,-5.26993 -0.30297,-6.67965 -0.83463,-1.83879 -3.264,-4.28362 -7.08723,-7.13232 -3.74376,-2.78946 -4.47732,-3.58357 -4.94556,-5.35365 -0.73752,-2.78823 -2.4264,-7.78581 -2.98044,-8.81952 -0.32604,-0.60828 -0.59277,-1.50411 -0.59277,-1.99073 0,-1.58755 0.96018,-4.49831 1.73037,-5.24556 0.68589,-0.66544 0.73206,-0.88261 0.59502,-2.79802 -0.13608,-1.90193 -0.24249,-2.17277 -1.26531,-3.22022 -1.08075,-1.10679 -1.11225,-1.2003 -0.9777,-2.90198 0.2115,-2.67427 0.76722,-5.707 1.26339,-6.89446 0.24492,-0.58619 1.0548,-1.74372 1.79976,-2.57229 0.74496,-0.82857 1.35447,-1.62689 1.35447,-1.77404 0,-0.53055 1.49025,-0.25294 2.0883,0.38901 0.68193,0.73194 0.80352,2.53178 0.31032,4.59344 -0.15789,0.66 -0.43296,2.72645 -0.61125,4.59211 -0.28134,2.94353 -0.25833,3.59047 0.17397,4.89205 0.44286,1.33327 0.58413,1.48972 1.27146,1.40789 0.681,-0.0811 0.81345,-0.29449 1.11039,-1.78924 0.41067,-2.06718 0.72993,-2.47835 2.42778,-3.12676 1.07991,-0.41243 1.55898,-0.44578 2.60136,-0.18107 0.70272,0.17844 2.02017,0.4835 2.92767,0.67789 0.9075,0.19439 1.8525,0.52064 2.1,0.72499 0.2475,0.20435 0.79881,0.45412 1.22514,0.55504 0.91092,0.21564 4.81653,2.77028 5.16477,3.37824 0.13194,0.23037 0.68748,0.41886 1.23453,0.41886 1.23951,0 2.34327,0.8468 3.35577,2.57448 0.71133,1.21378 0.77055,1.56462 0.67479,3.99635 -0.0864,2.19385 -0.0141,2.76611 0.40785,3.23265 1.18005,1.30443 4.1082,9.51769 4.85646,13.62202 0.57819,3.1715 0.37323,7.17579 -0.43638,8.52556 -1.47279,2.45541 -2.20089,8.19243 -2.53176,19.94893 -0.0952,3.3825 -0.29964,7.2975 -0.45432,8.7 -0.15468,1.4025 -0.4224,4.305 -0.59493,6.45 -0.29817,3.70679 -0.46323,5.4521 -1.20579,12.75 -1.2783,12.56297 -4.25385,27.64727 -8.46258,42.9 -1.3914,5.04264 -1.63578,5.58858 -3.0618,6.84066 -1.2501,1.09761 -2.62539,1.41669 -4.76319,1.10514 -0.85719,-0.12495 -8.91606,-0.26001 -17.90856,-0.30015 -31.84272,-0.14217 -41.70693,-1.30803 -61.84395,-7.30944 -12.67965,-3.77889 -18.60315,-4.22622 -24.55605,-1.85442 -3.30309,1.31604 -11.70117,6.29337 -12.35955,7.32522 -0.52587,0.82413 -2.54973,3.35262 -3.09045,3.861 -1.35543,1.27434 -4.45704,3.61485 -6.80256,5.13333 -3.55848,2.30373 -11.66028,10.64058 -13.18212,13.56459 -0.59658,1.14624 -1.24905,2.5926 -1.44996,3.21414 -0.20088,0.62154 -0.8163,1.87911 -1.36758,2.79462 -1.16787,1.93944 -4.25784,5.72661 -4.86132,5.95818 -0.29646,0.11376 -0.36063,0.44976 -0.22446,1.17555 0.17007,0.90666 0.0574,1.14822 -1.04499,2.23962 -0.95988,0.95034 -1.19676,1.3782 -1.06146,1.91727 0.12999,0.51798 -0.0578,0.91623 -0.7407,1.57044 -1.0545,1.01028 -1.14573,1.36425 -0.35157,1.36425 0.74673,0 1.29552,0.69771 1.05066,1.33578 -0.13851,0.36099 0.2451,0.96906 1.30155,2.06304 5.028,5.20668 9.45843,11.99631 12.48897,19.13937 1.58235,3.72963 7.15731,18.50463 8.70177,23.06181 1.96248,5.79057 3.23976,13.97391 3.65235,23.4 0.10473,2.3925 0.45504,7.32 0.7785,10.95 0.32346,3.63 0.71181,10.65 0.86304,15.6 0.21966,7.19151 0.46923,10.50708 1.24197,16.5 l 0.96702,7.5 0.0204,14.4 c 0.0186,13.11054 -0.0416,14.96415 -0.67257,20.7 -0.94197,8.56326 -1.62447,12.94683 -3.49986,22.47894 -0.87879,4.46658 -1.74531,9.33606 -1.92564,10.82106 -0.43686,3.59781 -0.9315,11.61195 -0.9315,15.09198 0,3.58866 -0.78099,6.00501 -3.6549,11.30802 -2.4039,4.43574 -3.6453,7.50153 -5.04129,12.44999 -0.927,3.28596 -2.98563,9.06819 -3.6849,10.35 -0.18003,0.33 -0.69156,1.2075 -1.13676,1.95 -2.30106,3.83763 -3.93177,6.63219 -6.65241,11.4 -1.64769,2.8875 -3.87204,6.7317 -4.94302,8.54271 -1.07098,1.81098 -1.99755,3.55392 -2.05904,3.87324 -0.18778,0.97503 -1.55277,2.80587 -2.51624,3.375 -0.50129,0.29613 -0.91144,0.68265 -0.91144,0.85896 0,0.17631 -1.1401,2.00346 -2.53356,4.06032 -8.54202,12.60876 -13.73499,21.79884 -18.45652,32.66283 -2.50853,5.772 -4.28083,8.93544 -5.2546,9.37911 -0.5132,0.23382 -0.94368,1.00491 -1.62348,2.90802 -1.25105,3.50229 -1.41566,4.95393 -0.80139,7.06695 0.33253,1.14387 0.43324,2.16021 0.30126,3.04032 -0.18288,1.21953 -0.13979,1.34433 0.55554,1.60869 0.41459,0.15762 1.10739,0.75018 1.53955,1.31676 0.43217,0.56661 1.61475,1.47204 2.62796,2.01207 1.01321,0.54003 2.93413,1.81047 4.26872,2.82315 4.65323,3.53097 9.35059,6.17187 10.97781,6.17187 0.63458,0 1.47944,0.36093 2.41032,1.02969 1.89558,1.36185 2.88418,1.59144 8.38839,1.94805 5.19894,0.33684 7.54683,0.83667 10.70091,2.27805 3.33885,1.52577 4.88763,4.08816 4.47366,7.40148 -0.22497,1.80069 -1.6014,4.4844 -2.65353,5.17377 -1.41141,0.92481 -4.86999,1.14408 -15.37104,0.97449 -5.61,-0.0906 -11.28,-0.30738 -12.6,-0.48177 -6.3596,-0.84018 -22.01794,-2.17869 -29.99999,-2.56443 -4.4374,-0.21447 -12.33375,-1.00926 -13.725,-1.38147 -0.61875,-0.16554 -1.125,-0.40911 -1.125,-0.54126 0,-0.2574 -1.3284,-0.9366 -1.83183,-0.9366 -0.16697,0 -0.20724,0.16875 -0.0895,0.375 0.11776,0.20625 -0.2157,-0.0252 -0.74101,-0.51447 -2.10049,-1.95615 -3.32003,-5.88495 -3.30912,-10.66053 0.01,-4.31775 0.29495,-5.82495 1.27326,-6.73164 0.439,-0.40683 0.79852,-0.98241 0.79895,-1.27905 3e-4,-0.29661 0.49079,-1.34931 1.08972,-2.33931 2.18637,-3.61401 6.09475,-13.29204 8.53218,-21.12765 0.48378,-1.5552 1.06515,-3.0402 1.29192,-3.3 0.39303,-0.45024 0.7924,-1.97166 0.81306,-3.09735 0.005,-0.28875 0.1218,-0.525 0.25889,-0.525 0.32246,0 0.20726,0.30348 3.53003,-9.3 5.17794,-14.96529 5.16357,-14.91315 7.12461,-25.8372 2.10844,-11.74512 3.91027,-19.2075 4.6158,-19.1166 0.71913,0.0926 0.83348,-0.16374 0.72309,-1.6212 -0.0937,-1.2375 0.0296,-1.84398 0.57532,-2.8302 0.38203,-0.69036 1.21551,-2.24286 1.85217,-3.45 2.17788,-4.12938 5.19052,-8.42508 11.00694,-15.6948 1.58418,-1.97999 3.40957,-4.34249 4.05644,-5.24999 0.64686,-0.9075 1.39687,-1.8525 1.66668,-2.1 0.26981,-0.2475 1.40484,-1.665 2.5223,-3.15 2.16873,-2.88207 3.32813,-5.05167 3.60708,-6.75 0.42542,-2.59017 1.75812,-8.38794 2.24477,-9.7656 0.86682,-2.45397 2.02439,-8.73957 2.2347,-12.1344 0.47568,-7.67859 -1.72505,-18.48099 -8.25089,-40.5 -3.06644,-10.34655 -4.80168,-19.14435 -6.42,-32.55 -0.41829,-3.465 -0.89273,-6.7725 -1.05432,-7.35 -0.16158,-0.5775 -0.4987,-2.63568 -0.74915,-4.57371 -0.25046,-1.93803 -0.6682,-3.93525 -0.92831,-4.43826 -0.63473,-1.22745 -2.12098,-2.08554 -3.61461,-2.08692 -1.15584,0 -1.30258,0.10665 -2.75746,2.02389 -1.45765,1.92087 -3.23148,4.15005 -6.27804,7.88955 -0.91749,1.12617 -1.97979,3.11532 -3.2844,6.15 -3.18264,7.40319 -8.38278,17.67822 -14.49226,28.63545 -6.93312,12.4344 -14.17406,26.95311 -16.00931,32.1 -0.73543,2.0625 -1.75557,5.505 -2.26698,7.65 -0.51141,2.145 -1.34601,5.6361 -1.85466,7.75797 -0.50864,2.1219 -1.33052,4.9569 -1.82638,6.3 -2.63695,7.14249 -3.31881,9.16647 -4.01983,11.93196 -0.99774,3.93606 -2.19694,11.60679 -2.40914,15.41007 -0.0921,1.65 -0.42156,4.0125 -0.73223,5.24999 -0.31068,1.2375 -0.85384,3.6675 -1.20703,5.4 -1.20848,5.92794 -2.76886,10.42989 -5.59242,16.13493 -1.96652,3.97341 -3.5837,5.90019 -6.05984,7.21995 -2.07089,1.10379 -4.81151,3.92979 -6.88073,7.09512 -0.75504,1.155 -3.00706,4.395 -5.00449,7.2 -1.99742,2.805 -3.95921,5.64 -4.35952,6.3 -0.40031,0.66 -1.81977,2.7525 -3.15435,4.65 -2.33127,3.31458 -4.55587,6.69294 -7.25685,11.02044 -0.6967,1.11627 -1.27045,2.38725 -1.275,2.82441 -0.005,0.43716 -0.48077,1.497 -1.05827,2.35515 -0.5775,0.85815 -1.05,1.72911 -1.05,1.93545 0,0.20637 -0.31049,0.96903 -0.68999,1.69488 -0.93068,1.78005 -1.30639,3.39198 -1.25244,5.37342 0.0608,2.2338 0.41476,2.76225 2.29122,3.42099 0.88066,0.30915 1.81434,0.74505 2.07483,0.96867 0.26049,0.22362 0.62016,0.40659 0.79927,0.40659 0.33965,0 2.17711,2.78898 2.17711,3.3045 0,0.16254 0.13162,0.2955 0.2925,0.2955 0.16087,0 0.56552,0.59931 0.89921,1.33182 0.33369,0.73248 0.7493,1.41993 0.92357,1.52763 0.36492,0.22554 0.12874,5.16456 -0.35244,7.37034 -0.31474,1.44279 -1.81307,3.57021 -2.51447,3.57021 -0.22437,0 -0.48968,0.25755 -0.58959,0.57234 -0.27103,0.85395 -2.60602,2.89113 -4.25672,3.71382 -2.39182,1.19205 -7.2314,2.54865 -10.90206,3.05595 -1.8975,0.26226 -4.31809,0.69243 -5.37908,0.95595 -2.49563,0.61986 -6.83226,2.61456 -7.9261,3.64575 -1.15929,1.0929 -4.10988,5.36115 -7.07869,10.2399 -2.88998,4.74921 -4.13287,6.73209 -6.16613,9.83727 -0.825,1.25991 -1.86433,2.9583 -2.30962,3.77418 -0.44529,0.81588 -1.05957,1.76949 -1.36506,2.11914 -0.3055,0.34962 -0.95368,1.23969 -1.44039,1.9779 -1.0389,1.57575 -3.69768,4.2078 -4.25052,4.2078 -0.21143,0 -0.38441,0.135 -0.38441,0.3 0,0.342 -1.00486,0.33783 -3.09233,-0.0129 z"
       id="path3426"
       inkscape:connector-curvature="0" />
    <path
       style="fill:#8d2a9b"
       d="m 120.03494,733.49044 c -0.88828,-0.12906 -1.69828,-0.35832 -1.8,-0.50946 -0.10172,-0.15111 -0.41671,-0.36021 -0.69997,-0.46464 -0.76289,-0.28125 -3.33127,-3.69282 -3.73692,-4.96371 -0.54543,-1.70886 -0.46432,-5.90493 0.16338,-8.45265 0.3049,-1.2375 1.12835,-4.005 1.8299,-6.15 0.93784,-2.86746 1.3174,-4.57512 1.4336,-6.45 0.13843,-2.23353 0.31755,-2.86929 1.44329,-5.12268 0.70689,-1.41498 1.48354,-3.50748 1.72589,-4.65 0.24236,-1.14252 0.91362,-3.76482 1.49169,-5.82732 0.57808,-2.0625 1.21951,-4.4925 1.42539,-5.4 0.20589,-0.9075 0.70619,-2.3925 1.11177,-3.3 1.17118,-2.6205 1.28043,-3.16803 0.73997,-3.70851 -0.43449,-0.43449 -0.38848,-0.60045 0.52916,-1.90866 0.55277,-0.78807 2.24045,-2.71533 3.7504,-4.28283 4.19006,-4.34976 5.50596,-6.24549 6.83343,-9.84453 0.63585,-1.72389 1.61296,-3.84855 2.17137,-4.72146 3.51104,-5.48865 12.34152,-21.89658 15.71084,-29.19237 2.63821,-5.71266 3.0889,-6.74223 4.5488,-10.39164 3.32122,-8.30226 6.33166,-16.95579 6.12508,-17.60667 -0.0973,-0.30654 -0.0241,-0.54333 0.16799,-0.54333 0.19902,0 0.26459,-0.23895 0.15786,-0.57522 -0.11388,-0.3588 0.31583,-1.62873 1.14199,-3.375 0.72852,-1.53987 1.75675,-4.01478 2.28496,-5.49978 1.47062,-4.13444 1.64633,-4.56224 3.32664,-8.09999 2.70178,-5.68833 3.58855,-7.70994 3.58855,-8.18097 0,-0.25083 0.45971,-1.41525 1.02159,-2.58756 0.56188,-1.17231 1.50896,-3.60783 2.10464,-5.41224 1.06146,-3.21543 1.29435,-4.59336 2.38636,-14.11923 0.32952,-2.87451 0.76243,-4.84659 1.64638,-7.5 0.65963,-1.98 1.41636,-4.8825 1.68164,-6.45 0.26528,-1.5675 0.81176,-4.0128 1.21441,-5.43402 0.40264,-1.42122 0.94074,-3.97329 1.19577,-5.67126 0.25503,-1.698 1.08513,-5.58936 1.84466,-8.64753 l 1.38097,-5.56032 -0.33821,-3.336 c -0.47695,-4.70451 -0.42145,-16.69158 0.0952,-20.55087 0.4514,-3.37221 2.02099,-11.61888 3.50846,-18.43359 0.93139,-4.26708 2.51974,-9.41508 4.7257,-15.31641 0.67846,-1.815 2.12472,-6.27 3.21391,-9.9 2.54295,-8.47506 3.17515,-10.1238 6.72946,-17.55 2.94027,-6.14328 2.9442,-6.15459 3.59741,-10.35 0.35966,-2.31 0.7664,-5.28 0.90388,-6.6 0.13747,-1.32 0.93307,-4.82136 1.76799,-7.7808 2.34322,-8.30571 2.4323,-8.86692 2.71748,-17.1192 0.14255,-4.125 0.42132,-9.5925 0.6195,-12.15 0.46618,-6.01593 0.28738,-11.01417 -1.25292,-35.02494 -0.65093,-10.14684 -0.16605,-16.27812 2.30725,-29.17506 1.29382,-6.74658 1.951,-9.3891 3.31448,-13.32754 0.57551,-1.66235 1.31198,-4.30009 1.63661,-5.86164 1.46068,-7.02619 3.76102,-13.03583 7.26146,-18.97056 0.71052,-1.20464 1.60057,-3.01885 1.97789,-4.03157 0.7119,-1.91075 4.89884,-7.78559 7.85008,-11.01472 0.85151,-0.93168 1.39964,-1.69397 1.21809,-1.69397 -0.18156,0 -0.3301,-0.35558 -0.3301,-0.79019 0,-0.43461 -0.15157,-1.29608 -0.33681,-1.91437 -0.27588,-0.9208 -0.22159,-1.68693 0.30012,-4.23481 0.78343,-3.82608 0.8728,-9.81084 0.18058,-12.0928 -0.24728,-0.81519 -0.65863,-2.84019 -0.91411,-4.5 -0.68022,-4.41937 -0.99826,-5.24591 -5.3869,-13.99973 -3.67149,-7.32336 -7.79602,-16.44961 -8.93402,-19.7681 -2.58488,-7.53766 -9.50886,-30.3536 -9.50886,-31.3336 0,-0.52845 -1.23721,-4.34817 -2.61099,-8.06112 -0.4161,-1.1246 -1.21529,-2.80655 -1.77598,-3.73767 -1.40547,-2.334 -1.63203,-3.33111 -1.26235,-5.55554 0.81482,-4.90296 1.97859,-9.14882 4.41622,-16.11206 1.01083,-2.8875 2.45689,-7.275 3.21347,-9.75 0.75657,-2.475 2.38452,-6.85274 3.61766,-9.7283 1.86293,-4.34417 3.21504,-8.00264 6.10617,-16.521702 0.13999,-0.4125 0.68206,-1.83 1.2046,-3.15 1.70612,-4.309878 1.71314,-4.422177 0.508,-8.129205 -0.95838,-2.948004 -1.03885,-3.448434 -0.81538,-5.070795 0.3358,-2.437809 0.35133,-7.402182 0.0248,-7.917888 -0.36073,-0.569682 -2.79375,-0.919407 -4.97619,-0.715281 -1.64938,0.154263 -3.33535,0.839322 -5.09176,2.068908 -0.32547,0.227844 -0.86918,0.414261 -1.20825,0.414261 -0.76979,0 -1.98514,-0.826062 -1.9091,-1.29759 0.0313,-0.193824 -0.049,-0.730656 -0.17846,-1.192956 -0.21041,-0.751644 -0.0728,-0.992304 1.30113,-2.275437 C 218.3086,68.544823 219,67.74568 219,67.558138 c 0,-0.187542 0.43875,-0.454227 0.975,-0.592635 0.78471,-0.202536 1.00427,-0.43443 1.125,-1.188189 0.11759,-0.734208 0.60187,-1.273554 2.24158,-2.49645 1.15037,-0.857946 2.62289,-1.83684 3.27227,-2.175315 1.16262,-0.605994 1.22471,-0.60747 4.05842,-0.09655 1.58275,0.285375 3.56947,0.670767 4.41493,0.856431 1.4066,0.308889 1.60758,0.282216 2.36546,-0.313932 1.56026,-1.227297 2.61122,-0.712158 6.07039,2.97543 1.04019,1.108884 1.97313,1.796796 2.75411,2.030784 1.52465,0.456795 2.42284,1.843041 2.42284,3.739371 0,0.969381 0.21939,1.699557 0.74206,2.469765 1.13687,1.675275 1.26117,2.94609 0.4647,4.751016 -0.37186,0.842673 -1.17951,2.882133 -1.79479,4.532133 -0.61529,1.65 -1.40969,3.568371 -1.76534,4.263048 -0.37478,0.732045 -0.64663,1.82175 -0.64663,2.591976 0,1.408689 -0.7801,5.463492 -1.769,9.194975 -1.23668,4.666404 -2.37253,11.409644 -2.70351,16.050004 -0.76079,10.66628 -1.55283,15.78796 -4.38415,28.35 -1.98813,8.82094 -2.05605,10.21131 -0.7425,15.2012 0.49547,1.88216 1.1151,3.92312 1.37696,4.53546 0.26185,0.61233 0.92101,2.32834 1.46479,3.81334 0.54378,1.485 1.60319,4.33931 2.35425,6.34292 0.75106,2.00361 2.25993,6.30923 3.35305,9.56804 2.47236,7.37061 2.79917,8.0629 4.90913,10.39898 5.35489,5.92879 13.72971,16.7223 16.01701,20.6428 1.63826,2.80803 2.42416,6.52406 2.28335,10.79652 l -0.094,2.85073 2.50054,2.55 c 1.37529,1.4025 2.76178,3.1235 3.08107,3.82443 0.32439,0.71214 0.94335,1.46204 1.40286,1.69966 1.45632,0.7531 5.33997,1.37591 8.57965,1.37591 2.80405,0 3.40752,-0.10037 5.42743,-0.90277 3.37624,-1.34118 4.11723,-1.86155 7.49302,-5.26205 3.6732,-3.70006 4.95,-5.21651 4.95,-5.87905 0,-0.64673 1.42272,-5.00479 1.79754,-5.50613 0.12333,-0.165 0.39759,-0.84 0.60942,-1.5 0.21183,-0.66 0.70194,-1.70356 1.08909,-2.31903 0.38718,-0.61548 0.70395,-1.22539 0.70395,-1.35536 0,-0.12998 0.35007,-0.75149 0.77793,-1.38114 0.71658,-1.05454 0.76173,-1.30599 0.57261,-3.18899 -0.20322,-2.02376 -0.19092,-2.07147 1.2324,-4.77483 0.79071,-1.50185 1.61121,-2.73065 1.82334,-2.73065 0.21213,0 0.57978,-0.46454 0.81699,-1.03232 0.34353,-0.82215 0.68169,-1.09974 1.66095,-1.36343 0.67629,-0.1821 1.34544,-0.25953 1.48695,-0.17205 0.14154,0.0875 0.7797,-0.25612 1.4181,-0.76353 0.6384,-0.50742 1.34937,-1.02819 1.57992,-1.15728 0.23058,-0.12909 0.44313,-0.55571 0.47241,-0.94805 0.0934,-1.25305 0.52425,-2.66333 0.8136,-2.66333 0.15411,0 0.19677,-0.135 0.0948,-0.3 -0.36654,-0.59306 0.42594,-0.28577 0.85956,0.3333 0.43428,0.62 0.46623,0.6018 1.52142,-0.86697 0.59283,-0.82516 2.05461,-2.24338 3.24843,-3.1516 1.19382,-0.90822 2.79864,-2.25417 3.56628,-2.991 1.38345,-1.32793 3.89178,-2.92373 4.59561,-2.92373 0.20112,0 0.61143,-0.27152 0.91173,-0.60336 0.30033,-0.33185 1.65453,-1.12767 3.00933,-1.7685 1.3548,-0.64083 2.55684,-1.31652 2.6712,-1.50153 0.11433,-0.18502 0.33333,-0.25888 0.48663,-0.16413 0.15333,0.0947 0.57903,-0.038 0.94605,-0.29511 0.36699,-0.25705 0.94773,-0.46737 1.29051,-0.46737 0.34278,0 0.7515,-0.12056 0.90825,-0.2679 0.44793,-0.42104 4.44912,-1.2321 6.07827,-1.2321 0.81117,0 2.19219,0.13604 3.06897,0.30232 1.42509,0.27026 1.66215,0.23844 2.2353,-0.3 0.96525,-0.90683 1.88361,-0.74192 4.38144,0.78677 0.59346,0.36319 1.74096,0.75782 2.55,0.87696 1.34418,0.19794 1.6521,0.41265 3.57102,2.48991 1.155,1.25031 2.95164,3.12184 3.99252,4.15896 1.04088,1.03712 1.80846,2.02168 1.70574,2.18791 -0.10275,0.16623 0.0731,0.40235 0.39063,0.5247 0.84702,0.32633 4.56111,4.48489 4.56111,5.10696 0,0.2926 0.20145,0.81961 0.44766,1.17114 0.24624,0.35152 0.48876,0.90839 0.53898,1.23749 0.0503,0.32909 0.26889,0.8123 0.48591,1.07379 0.21702,0.2615 0.30741,0.70262 0.20085,0.98028 -0.10656,0.27766 -0.0474,0.59528 0.13146,0.70581 0.17886,0.11054 0.34233,0.52633 0.36324,0.92399 0.021,0.39765 0.17046,0.89748 0.33225,1.11072 0.19551,0.25762 0.1824,0.49953 -0.039,0.72096 -0.21723,0.21725 -0.2361,0.51474 -0.0542,0.85467 0.45015,0.84113 0.54747,2.41742 0.25845,4.18665 -0.14823,0.9075 -0.3357,2.38533 -0.41661,3.28406 -0.0809,0.89873 -0.28251,1.76948 -0.44805,1.935 -0.16551,0.16552 -0.30144,0.57769 -0.30204,0.91594 0,0.33825 -0.26499,1.04773 -0.58746,1.57662 -0.46284,0.75909 -0.54858,1.28035 -0.4071,2.475 0.13077,1.10418 0.0781,1.51338 -0.19464,1.51338 -0.20853,0 -0.29778,0.19836 -0.20178,0.44847 0.27303,0.71156 -0.81729,2.8968 -2.16822,4.34554 -0.68184,0.7312 -1.23969,1.56497 -1.23969,1.85282 0,0.28785 -0.17199,0.63132 -0.3822,0.76327 -0.51429,0.32282 -1.43412,1.79581 -1.57356,2.51984 -0.062,0.32196 -0.38982,0.93764 -0.72849,1.36818 -0.33867,0.43054 -0.62016,0.93334 -0.62556,1.11734 -0.005,0.184 -1.16718,1.61704 -2.58171,3.18454 -2.39022,2.64867 -5.28786,4.85204 -7.51998,5.7182 -0.36381,0.14117 -1.02738,0.66734 -1.47459,1.16924 -0.44721,0.50191 -0.96897,0.91256 -1.1595,0.91256 -0.19053,0 -0.87696,0.44216 -1.52541,0.98258 -1.54896,1.2909 -3.61884,2.61597 -4.09758,2.62312 -0.20979,0.003 -0.98892,0.4072 -1.73142,0.89792 -0.7425,0.49073 -1.61136,1.06191 -1.9308,1.2693 -0.31941,0.2074 -1.46691,0.96162 -2.55,1.67606 -4.34469,2.86596 -10.95027,5.53074 -14.71206,5.93506 -1.93098,0.20754 -2.72337,0.61106 -2.68938,1.36953 0.0722,1.60952 5.5317,9.31102 9.66651,13.63612 l 2.6436,2.76526 1.9041,-0.011 c 1.24053,-0.007 2.50827,0.21505 3.63762,0.63761 2.11626,0.79178 8.12673,1.98446 11.3634,2.25487 4.34211,0.36276 7.97925,1.45001 13.81701,4.13032 1.98,0.90908 5.0175,2.22722 6.75,2.9292 1.7325,0.70197 5.1075,2.2646 7.5,3.47251 2.3925,1.20791 4.73955,2.34277 5.21565,2.5219 1.35954,0.51151 11.34573,2.01551 19.08435,2.87426 6.41454,0.71181 10.44567,1.42296 17.7,3.12254 3.02883,0.70961 6.58338,0.7952 7.73991,0.18636 1.15833,-0.60979 3.42213,-3.04172 4.66686,-5.01351 2.47434,-3.91955 3.22356,-5.89017 5.87382,-15.44958 0.50922,-1.83675 1.67217,-5.54925 2.58435,-8.25 0.91215,-2.70074 1.98546,-6.19294 2.38512,-7.76044 1.12578,-4.41557 2.73975,-13.88774 3.58392,-21.03387 0.42126,-3.56613 0.90096,-7.19581 1.06599,-8.06595 0.39801,-2.09876 0.35286,-5.31084 -0.0919,-6.53857 -0.47166,-1.30187 -2.03379,-3.1924 -4.01718,-4.86161 -0.88224,-0.7425 -1.90488,-1.6022 -2.2725,-1.91044 -0.36762,-0.30824 -1.17726,-0.88533 -1.79916,-1.28241 -2.03442,-1.29891 -3.7443,-3.22577 -4.11807,-4.64062 -0.80055,-3.03036 -2.18214,-7.1575 -2.85795,-8.53736 -0.39846,-0.81354 -0.72867,-1.85246 -0.73383,-2.3087 -0.0168,-1.48132 0.97014,-4.55091 1.69035,-5.25761 0.56685,-0.55624 0.69456,-0.98488 0.67035,-2.25 -0.0395,-2.06635 -0.23589,-2.62579 -1.39509,-3.97485 -1.08594,-1.26381 -1.18635,-2.03631 -0.65889,-5.06995 0.6093,-3.50447 1.46271,-5.62819 2.86527,-7.13021 0.72525,-0.77668 1.31862,-1.55293 1.31862,-1.725 0,-0.56689 1.46451,-0.32585 2.0883,0.34372 0.74199,0.79641 0.77355,1.82468 0.17328,5.64343 -0.92994,5.91607 -0.95931,6.62408 -0.34533,8.325 0.49617,1.37451 0.67239,1.575 1.38435,1.575 0.75468,0 0.82908,-0.11179 0.99246,-1.49141 0.0971,-0.82028 0.32796,-1.77415 0.51288,-2.11971 0.40344,-0.75382 2.89803,-1.88482 3.74268,-1.69686 0.33075,0.0736 1.68138,0.36442 3.00138,0.64625 1.32,0.28184 2.61312,0.70352 2.87361,0.93708 0.26049,0.23356 0.68193,0.42465 0.93651,0.42465 0.54207,0 4.70007,2.66522 5.3016,3.39826 0.23346,0.28449 0.84051,0.50174 1.40199,0.50174 1.27035,0 2.58669,1.09497 3.44307,2.86402 0.5439,1.12356 0.63705,1.76402 0.5553,3.818 -0.0904,2.26961 -0.0331,2.56475 0.71268,3.67194 0.44601,0.66218 1.16352,2.21468 1.59444,3.45 0.43092,1.23532 0.9582,2.65104 1.17174,3.14604 2.00055,4.63787 2.75688,12.87929 1.36431,14.8669 -0.59958,0.85578 -1.66356,4.95268 -1.9434,7.4831 -0.10035,0.9075 -0.38562,6.1725 -0.6339,11.7 -0.24828,5.5275 -0.57276,11.3325 -0.72105,12.9 -0.72111,7.62192 -0.9426,10.00319 -1.21377,13.05 -1.17174,13.16523 -4.34649,29.6369 -8.87565,46.04999 -1.35663,4.91634 -1.48722,5.2125 -2.83464,6.42981 -1.31409,1.18722 -2.67615,1.53645 -4.70985,1.20765 -0.78264,-0.12654 -8.78049,-0.26055 -17.77299,-0.29784 -31.69542,-0.13134 -41.61321,-1.25463 -60.45,-6.84672 -12.36567,-3.67097 -17.33064,-4.3976 -22.8486,-3.34385 -4.18056,0.79833 -14.50962,6.48716 -16.22697,8.93717 -1.64442,2.34597 -2.7066,3.53721 -3.82443,4.2891 -0.66,0.44397 -1.75851,1.29486 -2.4411,1.89093 -0.68262,0.59607 -2.03262,1.54509 -3,2.10894 -2.97342,1.73307 -13.28652,12.24642 -13.31844,13.57701 -0.005,0.21879 -0.20358,0.65415 -0.44073,0.96744 -0.23715,0.31332 -0.65859,1.25439 -0.93657,2.0913 -0.27798,0.83688 -0.9804,2.26803 -1.5609,3.18033 -1.18242,1.85814 -4.10646,5.42529 -4.76163,5.80887 -0.2961,0.1734 -0.36744,0.52254 -0.23235,1.1376 0.16617,0.75654 0.0114,1.08639 -1.04829,2.23617 -0.93282,1.01199 -1.19421,1.50324 -1.04685,1.96746 0.14412,0.45417 -0.0654,0.88872 -0.78789,1.63416 -0.54132,0.55851 -0.92598,1.05768 -0.85473,1.10922 0.0712,0.0516 0.50949,0.25719 0.97392,0.45693 0.66939,0.28788 0.80289,0.49413 0.64395,0.99489 -0.15621,0.49221 0.12801,0.97191 1.28727,2.17257 4.68438,4.85157 8.83701,11.04141 11.74545,17.50758 1.53333,3.40899 7.62099,19.33617 9.4344,24.68328 1.9677,5.80206 3.20601,13.79019 3.65064,23.55 0.10527,2.31 0.45471,7.17 0.77658,10.8 0.32187,3.63 0.71067,10.7175 0.864,15.75 0.20478,6.72204 0.48147,10.70232 1.04271,15 1.15047,8.80998 1.44249,15.0477 1.27098,27.15 -0.21051,14.85333 -1.16064,23.76156 -4.0857,38.30691 -0.8073,4.01445 -1.67865,8.78268 -1.93632,10.59606 -0.5409,3.80649 -1.08717,11.88597 -1.08789,16.09044 0,3.36189 -0.56517,5.5122 -2.35167,8.95659 -0.64185,1.2375 -1.83012,3.5325 -2.6406,5.1 -0.81048,1.5675 -1.98831,4.47 -2.61738,6.45 -3.22893,10.16322 -4.29195,13.06554 -5.54892,15.15 -2.68779,4.45725 -7.36011,12.49311 -10.37859,17.85 -0.37191,0.66 -1.31715,2.28 -2.10057,3.6 -0.78341,1.32 -1.47446,2.65797 -1.53565,2.97327 -0.18823,0.96981 -1.55595,2.80077 -2.51569,3.36768 -0.50129,0.29613 -0.91144,0.68265 -0.91144,0.85896 0,0.17631 -1.13739,2.00346 -2.52753,4.06032 -3.67375,5.43573 -8.20702,12.57153 -10.28512,16.18977 -3.29335,5.73414 -5.16379,9.52005 -8.80918,17.83044 -2.07907,4.73967 -3.62186,7.40961 -4.60258,7.96524 -0.61031,0.34575 -1.01448,1.06371 -1.69127,3.00432 -1.1554,3.31296 -1.37983,5.44524 -0.75504,7.17369 0.32852,0.90885 0.41842,1.77636 0.28687,2.7681 -0.17889,1.34847 -0.14126,1.46352 0.56664,1.73265 0.41704,0.15855 1.11185,0.75189 1.54401,1.31847 0.43217,0.56661 1.60036,1.46436 2.59597,1.99503 0.99561,0.53064 2.70726,1.65237 3.80365,2.4927 5.05432,3.87393 10.0409,6.67788 11.67977,6.56748 0.5466,-0.0368 0.99381,0.0723 0.99381,0.24249 0,0.17016 0.15601,0.30939 0.34669,0.30939 0.19067,0 0.82896,0.36786 1.41841,0.81744 1.33637,1.01931 0.99405,0.9504 7.0849,1.42652 5.9643,0.46623 8.74728,1.07388 11.63637,2.54082 2.3682,1.20246 3.56442,2.60133 4.15656,4.86072 0.76104,2.90385 -1.08177,7.15116 -3.49293,8.05062 -1.82523,0.68088 -21.79792,0.63981 -27.6,-0.0568 -9.27583,-1.1136 -22.32304,-2.22627 -28.94999,-2.46888 -4.12483,-0.15099 -12.59784,-0.98766 -14.175,-1.39971 -0.61875,-0.16164 -1.125,-0.40203 -1.125,-0.53418 0,-0.2574 -1.3284,-0.9366 -1.83183,-0.9366 -0.16697,0 -0.20635,0.16875 -0.0875,0.375 0.11885,0.20625 -0.15672,0.0375 -0.61236,-0.375 -1.1246,-1.01811 -2.476,-3.77211 -3.05463,-6.225 -0.35912,-1.52229 -0.44248,-2.99808 -0.3358,-5.94476 0.14098,-3.89418 0.46255,-5.23023 1.25884,-5.23023 0.22859,0 0.51018,-0.43875 0.62576,-0.975 0.11559,-0.53625 0.73125,-1.85604 1.36815,-2.93286 1.64248,-2.77701 5.63141,-12.19395 6.73177,-15.89214 0.89583,-3.01077 2.53192,-7.59693 2.92664,-8.20368 0.23124,-0.35547 0.5316,-1.18632 0.66745,-1.84632 0.13585,-0.66 0.26312,-1.2675 0.28283,-1.35 0.0197,-0.0825 0.25318,-0.55644 0.51883,-1.05321 0.26565,-0.49674 0.95892,-2.31924 1.54058,-4.05 0.58167,-1.73073 2.19951,-6.46638 3.59521,-10.52367 2.97903,-8.66001 3.40759,-10.30797 4.99581,-19.21035 1.75081,-9.81378 2.79313,-14.61624 3.94056,-18.15606 0.49215,-1.51824 0.69628,-1.81743 1.15771,-1.69677 0.51005,0.13338 0.5485,-0.0105 0.42943,-1.60671 -0.10593,-1.42026 -10e-4,-1.99071 0.55089,-3.00369 0.37492,-0.68775 1.24222,-2.30775 1.92735,-3.6 2.11492,-3.98904 4.95429,-8.04798 10.45771,-14.94954 1.84204,-2.31 3.87563,-4.9425 4.5191,-5.85 0.64348,-0.9075 1.28487,-1.69899 1.42533,-1.75887 0.14046,-0.0599 1.27604,-1.47738 2.52352,-3.15 2.3927,-3.20811 3.55827,-5.35542 3.84917,-7.09113 0.35916,-2.14311 1.67679,-7.7259 2.37195,-10.05 1.10034,-3.67872 1.60683,-6.29904 1.97484,-10.21689 0.55484,-5.90685 -0.0236,-10.86339 -2.53677,-21.73911 -1.24923,-5.40594 -2.2416,-9.03543 -6.02718,-22.044 -2.73189,-9.38772 -4.39424,-18.07731 -6.00163,-31.37238 -0.41044,-3.3948 -0.88021,-6.5673 -1.04395,-7.05 -0.16373,-0.4827 -0.48703,-2.44074 -0.71845,-4.35123 -0.23142,-1.91049 -0.64524,-3.90771 -0.91961,-4.43826 -0.66228,-1.28073 -2.12593,-2.13561 -3.65867,-2.13702 -1.15809,0 -1.32379,0.11148 -2.53855,1.72389 -0.71477,0.94875 -2.22191,2.8725 -3.3492,4.275 -1.12728,1.4025 -2.60061,3.23517 -3.27407,4.07262 -0.75405,0.93768 -1.9642,3.24276 -3.14998,6 -3.1818,7.39854 -8.37696,17.67648 -14.47017,28.62738 -5.76062,10.35315 -11.34962,21.14322 -13.94521,26.92248 -2.12624,4.73424 -3.5955,9.30972 -5.11607,15.93216 -1.63195,7.10751 -2.58045,10.48488 -3.66198,13.03935 -1.27486,3.0111 -2.47557,6.71358 -3.41965,10.54476 -1.00667,4.08519 -2.38616,13.35204 -2.38616,16.0293 0,0.9861 -0.1258,2.12376 -0.27954,2.52813 -0.15374,0.40437 -0.69552,2.77617 -1.20395,5.27067 -0.50842,2.49447 -1.11032,5.10864 -1.33755,5.80929 -0.22723,0.70062 -0.50468,1.67163 -0.61656,2.15781 -0.38569,1.67598 -2.28924,6.3252 -3.99855,9.76605 -1.92623,3.87753 -3.78258,6.04197 -6.25753,7.29612 -1.90774,0.96672 -4.64685,3.89736 -7.28313,7.79232 -1.13969,1.68387 -2.89999,4.20906 -3.91178,5.61156 -1.01178,1.4025 -2.63751,3.765 -3.61274,5.25 -0.97523,1.485 -2.04559,3.05487 -2.37857,3.48858 -0.92214,1.20114 -8.16724,12.16416 -9.41777,14.25066 -0.60628,1.0116 -1.10233,2.17926 -1.10233,2.59485 0,0.41559 -0.4725,1.45776 -1.05,2.31591 -0.5775,0.85815 -1.05,1.72911 -1.05,1.93545 0,0.20637 -0.3219,0.98058 -0.71533,1.72053 -0.89917,1.6911 -1.18695,2.91609 -1.22022,5.19402 -0.0338,2.31666 0.4025,2.99373 2.33446,3.62238 0.85309,0.27759 1.76422,0.68985 2.02471,0.91617 0.26049,0.22629 0.59799,0.41388 0.75,0.41685 0.31568,0.006 2.22638,2.83062 2.22638,3.29112 0,0.16692 0.11333,0.30348 0.25184,0.30348 0.20969,0 0.98444,1.28583 1.08455,1.8 0.0161,0.0825 0.26867,0.50781 0.56135,0.94515 0.479,0.71574 0.50256,1.13586 0.2359,4.2063 -0.16294,1.87614 -0.42639,3.75342 -0.58544,4.17177 -0.36658,0.9642 -1.79141,2.67099 -2.24987,2.69511 -0.19158,0.0102 -0.75333,0.57252 -1.24833,1.24986 -2.12986,2.91438 -7.39579,5.05968 -14.9677,6.09777 -1.96223,0.26901 -4.25723,0.66927 -5.1,0.88947 -2.40401,0.62811 -6.54622,2.50149 -7.49208,3.38838 -1.4618,1.37067 -4.29487,5.33759 -6.78903,9.50618 -2.58216,4.31565 -6.58089,10.67847 -7.67545,12.21327 -0.55433,0.7773 -1.19752,1.86711 -1.42928,2.42181 -0.23178,0.5547 -0.81405,1.47123 -1.29396,2.03673 -0.4799,0.5655 -1.21977,1.56819 -1.64414,2.22819 -0.92539,1.43919 -3.55741,4.04961 -4.08336,4.04985 -0.20625,9e-5 -0.375,0.13515 -0.375,0.30015 0,0.33546 -0.60414,0.33354 -2.96506,-0.01 z"
       id="path3424"
       inkscape:connector-curvature="0" />
    <path
       style="fill:#861297"
       d="m 120,733.45735 c -16.7773,-13.51151 6.36258,-38.34626 4.90612,-55.54014 17.67607,-22.12117 29.85047,-48.78828 39.62124,-75.41739 7.93132,-21.05374 16.83867,-41.63657 19.81654,-64.14983 8.52381,-21.04489 2.41088,-43.36577 8.27142,-64.8 3.73721,-19.40215 13.15859,-37.22649 18.81546,-55.81586 7.73885,-28.27585 6.54396,-57.66218 4.73928,-86.68414 1.73303,-26.81625 8.14851,-55.20125 25.64094,-76.35 4.79913,-24.73625 -12.49101,-44.87041 -18.69414,-67.64999 -8.95663,-23.44253 -16.3205,-46.72145 -2.17946,-70.04161 11.58927,-17.227764 13.95953,-49.374252 -3.82859,-47.102902 7.62136,-15.310829 35.84183,-9.605286 32.33474,8.548314 -9.31482,23.226688 -8.0201,48.854468 -14.17274,72.911498 3.09595,24.34357 16.48042,44.75808 31.21929,63.63485 -3.66306,29.28874 37.28338,24.45437 38.60757,-0.98154 2.64569,-16.247 15.63469,-19.91316 26.01259,-30.32819 12.27543,-9.02357 31.06149,-10.26216 39.22182,4.52828 14.0579,13.05889 4.38359,35.33752 -6.75561,47.18944 -10.50161,14.52875 -53.82455,15.24559 -26.72263,35.29715 19.43009,3.92376 39.51268,11.81684 58.54984,18.83911 20.53642,3.60925 49.14881,12.62296 49.40187,-19.04244 8.24515,-23.02502 14.0799,-49.01101 -5.33477,-66.07195 -2.19345,-6.02116 -1.11473,-39.6457 4.80789,-26.19596 -8.5453,19.30708 25.9943,-2.92621 24.16518,21.89764 10.32719,23.80987 -1.96782,50.74405 -1.30421,76.08392 -2.5503,23.54939 -5.6912,55.7773 -38.11743,43.99477 -25.59501,2.09718 -49.92624,-6.41928 -74.64206,-10.52714 -22.6034,5.98647 -40.58102,25.8874 -51.07463,46.15759 -2.04125,16.32088 22.47185,35.02834 22.37782,55.77858 3.97388,29.01052 5.20715,58.48084 6.33026,87.73058 -2.37354,26.46001 -3.81777,54.41538 -12.41562,79.2538 -9.61973,34.58806 -36.62111,60.20941 -49.56873,93.31445 -15.20057,16.7501 8.60112,26.83296 21.56733,32.16237 17.80741,-6.01337 29.14602,20.61007 5.54947,16.2162 -20.43733,-3.51269 -48.75222,1.70437 -64.9615,-8.61556 -4.1632,-21.79517 14.63621,-41.46248 18.32325,-63.13789 6.62004,-21.48082 6.60415,-44.7836 23.57119,-61.48047 21.54983,-20.88651 17.45544,-53.47158 8.08316,-79.16287 -8.89535,-12.70414 -0.23741,-49.77819 -15.89218,-49.125 -14.82189,21.16916 -24.64633,45.7455 -37.31313,68.38446 -10.07538,24.72982 -13.42176,51.20544 -20.17743,76.78527 -11.64215,18.76628 -29.42735,34.65255 -38.37923,55.89073 -4.82024,11.12925 19.91982,25.43168 -1.78507,34.10481 C 139.22439,691.7256 139.33064,723.99293 120,733.45735 Z"
       id="path3422"
       inkscape:connector-curvature="0" />
    <path
       style="fill:#7b1787"
       d="m 290.99999,720.00376 c 0.2483,-0.15837 2.48784,-0.25716 4.99629,-0.22041 2.50045,0.0367 4.39044,0.16581 4.2,0.28704 -0.19047,0.12123 -2.43879,0.22041 -4.99629,0.22041 -3.07351,0 -4.49743,-0.0973 -4.2,-0.28704 z M 202.2,614.8867 c 0,-0.0623 0.23625,-0.29853 0.525,-0.525 0.47581,-0.37314 0.48643,-0.36255 0.11326,0.11328 -0.39191,0.49971 -0.63826,0.65865 -0.63826,0.41172 z M 333.59999,319.68671 c 0,-0.0623 0.23625,-0.29853 0.525,-0.525 0.47583,-0.37314 0.48642,-0.36255 0.11328,0.11328 -0.39192,0.49971 -0.63828,0.65865 -0.63828,0.41172 z"
       id="path3420"
       inkscape:connector-curvature="0" />
    <path
       style="fill:#6e1577"
       d="m 292.02514,720.07498 c 0.12383,-0.12375 1.95539,-0.225 4.07014,-0.225 2.11474,0 3.78296,0.10125 3.70714,0.225 -0.0758,0.12375 -1.90737,0.225 -4.07013,0.225 -2.16276,0 -3.83098,-0.10125 -3.70715,-0.225 z"
       id="path3418"
       inkscape:connector-curvature="0" />
  </g>
</svg>
