<?xml version="1.0" encoding="UTF-8" standalone="no"?>
<!-- Created with Inkscape (http://www.inkscape.org/) -->

<svg
   xmlns:dc="http://purl.org/dc/elements/1.1/"
   xmlns:cc="http://creativecommons.org/ns#"
   xmlns:rdf="http://www.w3.org/1999/02/22-rdf-syntax-ns#"
   xmlns:svg="http://www.w3.org/2000/svg"
   xmlns="http://www.w3.org/2000/svg"
   xmlns:sodipodi="http://sodipodi.sourceforge.net/DTD/sodipodi-0.dtd"
   xmlns:inkscape="http://www.inkscape.org/namespaces/inkscape"
   id="svg3406"
   version="1.1"
   inkscape:version="0.91 r13725"
   width="274.42386"
   height="659.50647"
   viewBox="0 0 274.42386 659.50646"
   sodipodi:docname="silhouette-danse-32.svg">
  <title
     id="title3340">Silhouette Danse 32</title>
  <metadata
     id="metadata3412">
    <rdf:RDF>
      <cc:Work
         rdf:about="">
        <dc:format>image/svg+xml</dc:format>
        <dc:type
           rdf:resource="http://purl.org/dc/dcmitype/StillImage" />
        <dc:title>Silhouette Danse 32</dc:title>
        <cc:license
           rdf:resource="http://creativecommons.org/publicdomain/zero/1.0/" />
        <dc:date>2017-02-21</dc:date>
        <dc:creator>
          <cc:Agent>
            <dc:title>JLouis</dc:title>
          </cc:Agent>
        </dc:creator>
        <dc:rights>
          <cc:Agent>
            <dc:title>Domaine pubic</dc:title>
          </cc:Agent>
        </dc:rights>
        <dc:publisher>
          <cc:Agent>
            <dc:title>inkscape</dc:title>
          </cc:Agent>
        </dc:publisher>
        <dc:subject>
          <rdf:Bag>
            <rdf:li>Silhouette</rdf:li>
            <rdf:li>dance</rdf:li>
            <rdf:li>dancer</rdf:li>
            <rdf:li>woman</rdf:li>
            <rdf:li>danse</rdf:li>
            <rdf:li>danseuse</rdf:li>
            <rdf:li>femme</rdf:li>
          </rdf:Bag>
        </dc:subject>
        <dc:description>Silhouette of dancer - Silhouette de danseuse.</dc:description>
      </cc:Work>
      <cc:License
         rdf:about="http://creativecommons.org/publicdomain/zero/1.0/">
        <cc:permits
           rdf:resource="http://creativecommons.org/ns#Reproduction" />
        <cc:permits
           rdf:resource="http://creativecommons.org/ns#Distribution" />
        <cc:permits
           rdf:resource="http://creativecommons.org/ns#DerivativeWorks" />
      </cc:License>
    </rdf:RDF>
  </metadata>
  <defs
     id="defs3410" />
  <sodipodi:namedview
     pagecolor="#ffffff"
     bordercolor="#666666"
     borderopacity="1"
     objecttolerance="10"
     gridtolerance="10"
     guidetolerance="10"
     inkscape:pageopacity="0"
     inkscape:pageshadow="2"
     inkscape:window-width="1238"
     inkscape:window-height="756"
     id="namedview3408"
     showgrid="false"
     fit-margin-top="0"
     fit-margin-left="0"
     fit-margin-right="0"
     fit-margin-bottom="0"
     inkscape:zoom="1"
     inkscape:cx="158.3315"
     inkscape:cy="640.51535"
     inkscape:window-x="0"
     inkscape:window-y="0"
     inkscape:window-maximized="1"
     inkscape:current-layer="svg3406" />
  <g
     id="g3416"
     transform="translate(0.00900838,1.2691563)">
    <path
       style="fill:#f1e3f1"
       d="M 0.88786974,656.7212 C -0.72834189,655.10499 -0.01747226,641.93804 1.8827009,638.29461 2.9097154,636.3254 3.75,632.81364 3.75,630.49069 3.75,626.15136 7.388301,616.25 8.9828044,616.25 c 0.49118,0 1.2763166,-3.38759 1.7447476,-7.52797 0.468431,-4.14038 1.340113,-7.82983 1.937071,-8.19877 0.596957,-0.36895 1.085377,-1.93635 1.085377,-3.48312 0,-1.54678 0.82586,-3.9042 1.835246,-5.23873 1.009385,-1.33452 1.853135,-3.69204 1.875,-5.23891 0.02186,-1.54688 0.55756,-2.8125 1.190435,-2.8125 0.632874,0 1.521318,-1.6875 1.974319,-3.75 0.453001,-2.0625 1.204132,-3.75 1.66918,-3.75 1.007306,0 3.483324,-5.4982 4.649373,-10.32431 0.458367,-1.89713 1.333582,-3.75844 1.944921,-4.13628 C 29.499814,561.41159 30,560.23629 30,559.17764 c 0,-1.05865 0.84375,-3.83795 1.875,-6.17623 1.03125,-2.33827 2.71875,-6.16455 3.75,-8.50282 1.03125,-2.33828 1.875,-4.87716 1.875,-5.64197 0,-0.7648 0.5625,-2.50791 1.25,-3.87358 0.6875,-1.36568 1.8125,-3.6004 2.5,-4.96608 0.6875,-1.36567 1.253465,-3.1938 1.257701,-4.0625 0.0043,-0.8687 0.853239,-3.20076 1.886674,-5.18235 1.033435,-1.98159 2.226862,-5.77846 2.65206,-8.4375 C 47.471631,509.67557 48.310129,507.5 48.90976,507.5 49.509393,507.5 50,506.09375 50,504.375 c 0,-1.71875 0.555852,-3.125 1.235227,-3.125 0.679377,0 1.595018,-2.25 2.034762,-5 0.439742,-2.75 1.264651,-5 1.83313,-5 0.568479,0 1.421474,-2.10938 1.895542,-4.6875 0.47407,-2.57813 1.231991,-4.96875 1.684271,-5.3125 1.346881,-1.02369 5.067068,-9.5994 5.067068,-11.68054 0,-1.06023 1.035621,-2.66272 2.30138,-3.56108 1.575264,-1.11803 2.574503,-3.98464 3.16703,-9.08558 0.476108,-4.09871 1.34035,-7.75496 1.920538,-8.125 0.580187,-0.37004 1.453967,-3.06047 1.941735,-5.97875 0.487766,-2.91827 1.400403,-5.62335 2.028082,-6.01127 C 75.736445,436.41985 76.25,434.7294 76.25,433.05123 76.25,431.37305 76.760005,430 77.383344,430 c 0.62334,0 1.533982,-5.34375 2.02365,-11.875 0.489667,-6.53125 1.385912,-11.875 1.991655,-11.875 0.605744,0 1.101351,-3.65625 1.101351,-8.125 0,-4.46875 0.489946,-8.125 1.08877,-8.125 0.598822,0 1.484801,-5.0625 1.968841,-11.25 0.484039,-6.1875 1.321648,-11.25 1.861351,-11.25 0.539704,0 1.308854,-3.17388 1.70922,-7.05306 0.400368,-3.87919 1.322813,-7.64794 2.049879,-8.375 C 91.905127,351.34487 92.5,349.2875 92.5,347.5 c 0,-1.7875 0.607816,-3.85781 1.350702,-4.6007 1.681767,-1.68176 3.218022,-39.74641 1.643318,-40.71738 -0.647576,-0.3993 -0.761725,-14.30157 -0.270944,-32.99846 0.673296,-25.65005 1.251334,-33.0813 2.804799,-36.05846 1.076197,-2.0625 1.960189,-5.54492 1.964424,-7.73873 0.0042,-2.1938 0.570201,-4.33637 1.257701,-4.76127 0.6875,-0.4249 1.25,-3.55185 1.25,-6.94878 0,-3.39692 0.50182,-6.17622 1.11516,-6.17622 0.61334,0 1.51809,-5.6295 2.01056,-12.51 0.49246,-6.88051 1.39689,-12.81995 2.00983,-13.19878 0.61295,-0.37882 1.11445,-4.31182 1.11445,-8.74 0,-4.42817 0.48549,-8.05122 1.07886,-8.05122 0.59338,0 1.38217,-3.77856 1.75288,-8.39679 0.3707,-4.61824 1.29147,-8.60261 2.04614,-8.85417 C 114.38254,147.49749 115,145.5972 115,143.5262 c 0,-6.95748 6.8466,-16.6595 12.65698,-17.93567 1.97616,-0.43404 3.59302,-1.2665 3.59302,-1.8499 0,-0.58341 3.00012,-1.43558 6.66695,-1.89372 4.98535,-0.62288 7.23653,-1.59143 8.9251,-3.83995 C 148.08402,116.35313 149.892,115 150.85978,115 c 2.41858,0 7.89022,-6.11955 7.89022,-8.82453 0,-1.21521 -2.95313,-5.21424 -6.5625,-8.886739 -6.32258,-6.433145 -8.74389,-9.540201 -10.55064,-13.538731 -0.46597,-1.03125 -1.87805,-2.616613 -3.13796,-3.523027 -1.2599,-0.906415 -2.0174,-2.090276 -1.68334,-2.630801 0.33407,-0.540525 -0.78152,-2.28759 -2.47909,-3.882364 C 132.63891,72.119031 131.25,69.506016 131.25,67.907107 131.25,66.308199 130.74029,65 130.1173,65 c -0.62299,0 -1.53832,-2.949236 -2.03409,-6.553858 -0.5444,-3.958223 -1.8285,-7.357936 -3.2423,-8.584118 -2.50682,-2.174153 -3.12487,-8.409713 -1.19599,-12.066485 2.28713,-4.335955 5.10508,-11.330744 5.10508,-12.67195 0,-0.755474 0.5625,-1.373589 1.25,-1.373589 0.6875,0 1.25,-0.618115 1.25,-1.373589 C 131.25,18.294896 138.39533,7.5 141.09695,7.5 c 0.60331,0 1.79719,-0.84375 2.65305,-1.875 0.85586,-1.03125 2.84661,-1.875 4.42389,-1.875 1.57727,0 3.10093,-0.6994931 3.38592,-1.5544292 0.3667,-1.1001176 4.16619,-1.55678806 12.99995,-1.56250001 C 174.78547,0.62645829 177.43804,1.0203913 179.23506,2.8125 180.4415,4.015625 182.4802,5 183.76551,5 c 1.28533,0 2.68459,0.5625 3.10949,1.25 0.4249,0.6875 2.42685,1.25 4.44877,1.25 C 193.3457,7.5 195,8.0625 195,8.75 c 0,0.6875 0.77699,1.25 1.72664,1.25 0.94965,0 3.31738,2.109375 5.26163,4.6875 1.94425,2.578125 4.40164,5.345281 5.46087,6.149236 1.05922,0.803954 1.97443,1.928954 2.03382,2.5 0.19455,1.871135 2.18778,6.023374 3.23218,6.733211 0.56237,0.382222 1.38665,4.179097 1.83175,8.4375 0.44508,4.258404 1.21802,7.742553 1.71762,7.742553 0.49961,0 1.23469,2.010776 1.6335,4.468392 0.84035,5.178457 3.55887,11.781608 4.85049,11.781608 0.48851,0 1.2444,2.109375 1.67973,4.6875 0.43532,2.578125 1.58581,6.46001 2.55663,8.626411 0.97083,2.166401 1.76514,4.557026 1.76514,5.3125 0,0.755474 0.5625,1.373589 1.25,1.373589 1.84557,0 1.55334,10.918582 -0.3125,11.67567 -1.01226,0.410738 -1.12231,0.997657 -0.3125,1.666666 1.37324,1.134473 3.9164,4.976974 5.23369,7.907664 0.46353,1.03125 1.8662,2.78473 3.11705,3.89662 1.25085,1.11189 2.27426,3.23892 2.27426,4.72673 0,1.48781 0.98437,3.02933 2.1875,3.42559 5.36491,1.76698 15.3125,6.99202 15.3125,8.043 0,0.63693 0.79375,1.15806 1.76389,1.15806 2.37092,0 8.23611,7.11541 8.23611,9.99174 0,1.26496 0.61602,2.50527 1.36894,2.75623 1.94532,0.64845 2.32282,158.22418 0.38207,159.48465 -0.7557,0.49082 -1.71915,5.90584 -2.14101,12.03339 -0.42186,6.12756 -1.35045,11.72444 -2.06351,12.4375 -0.71308,0.71308 -1.29649,4.27774 -1.29649,7.92149 0,3.64375 -0.5625,6.625 -1.25,6.625 -0.75944,0 -1.25,5.5324 -1.25,14.0972 0,12.55034 -0.27432,14.33208 -2.5,16.23776 -1.375,1.17731 -2.5,2.99746 -2.5,4.04476 0,3.89938 -4.96376,10.62028 -7.84366,10.62028 -4.61759,0 -15.90634,-7.60031 -15.90634,-10.70916 0,-0.83785 -0.80256,-1.83134 -1.78348,-2.20775 -1.39287,-0.53449 -1.95336,1.14722 -2.55921,7.67876 -0.42665,4.59974 -1.29191,9.30839 -1.9228,10.46367 -0.63089,1.15529 -1.52567,5.79592 -1.98841,10.3125 -0.46274,4.51659 -1.32616,8.21198 -1.91871,8.21198 -0.59257,0 -1.07739,1.6543 -1.07739,3.67623 0,2.02192 -0.48879,3.97832 -1.0862,4.34753 -0.5974,0.36923 -1.49193,5.32248 -1.98781,11.00723 -0.49589,5.68475 -1.42249,10.65784 -2.05913,11.0513 -0.63897,0.3949 -1.5191,17.63922 -1.96463,38.4929 -0.44392,20.77762 -1.27852,38.06885 -1.85468,38.42494 -0.57615,0.35607 -1.04755,3.67477 -1.04755,7.37487 0,3.7001 -0.48966,7.03009 -1.08814,7.39996 -0.59846,0.36988 -1.49311,7.99508 -1.98809,16.94489 -0.49497,8.94981 -1.41156,16.58859 -2.03686,16.97504 -0.6253,0.38646 -1.13691,2.87258 -1.13691,5.52471 0,2.65214 -0.53066,5.00956 -1.17925,5.23874 -0.64859,0.22916 -1.56764,7.46435 -2.04233,16.07817 l -0.86306,15.66153 4.85481,3.66171 c 2.67015,2.01394 5.04233,4.10688 5.27149,4.65098 0.22918,0.5441 1.21355,0.98927 2.1875,0.98927 0.97396,0 1.77084,0.5246 1.77084,1.16576 0,0.64118 1.26562,1.52965 2.8125,1.9744 5.5311,1.59025 10.87471,4.47242 12.45536,6.71798 0.88393,1.25577 3.01339,2.7063 4.73214,3.2234 4.0411,1.2158 12.5,9.32173 12.5,11.97841 0,1.12893 -1.11581,3.06238 -2.47957,4.29658 -2.17333,1.96682 -4.22475,2.16697 -16.60898,1.62046 -12.4993,-0.5516 -17.97349,-1.78903 -20.91145,-4.72699 -0.92705,-0.92705 -5.3538,-3.64465 -7.5,-4.60428 -1.03125,-0.4611 -2.23691,-1.37808 -2.67926,-2.03773 -0.44235,-0.65965 -3.67673,-1.47538 -7.1875,-1.81272 -3.51078,-0.33733 -6.38324,-1.10428 -6.38324,-1.70431 0,-0.60002 -1.29375,-1.09096 -2.875,-1.09096 -1.58125,0 -3.55,-0.675 -4.375,-1.5 -1.8651,-1.8651 -2.08934,-27.98822 -0.25,-29.125 1.62457,-1.00404 1.62457,-8.99596 0,-10 -0.6875,-0.4249 -1.25,-1.82416 -1.25,-3.10949 0,-1.28531 -0.75025,-3.08719 -1.66721,-4.00415 -1.21149,-1.21149 -1.8984,-8.32571 -2.513,-26.02679 -0.49204,-14.17105 -1.36318,-24.53385 -2.08279,-24.77623 -0.7772,-0.2618 -1.237,-13.61993 -1.237,-35.9375 0,-22.84723 -0.44599,-35.52084 -1.25,-35.52084 -0.80339,0 -1.25,-12.43055 -1.25,-34.79166 0,-19.13543 -0.34964,-35.1413 -0.77696,-35.56864 -0.42734,-0.42734 -0.67809,-6.98984 -0.55723,-14.58334 0.20457,-12.85231 0.0541,-13.80636 -2.17757,-13.80636 -3.03173,0 -8.98824,5.86271 -8.98824,8.84669 0,1.24067 -0.6115,2.6337 -1.3589,3.09561 -0.74739,0.46191 -1.10333,1.81715 -0.79096,3.01164 0.31236,1.19447 -0.46988,3.52162 -1.7383,5.17142 -1.26844,1.6498 -2.31875,3.95082 -2.33404,5.11337 -0.0153,1.16255 -0.54703,2.43462 -1.18163,2.82683 -0.63461,0.39221 -1.53137,2.43205 -1.99281,4.53298 -0.46145,2.10092 -1.62626,5.32885 -2.58847,7.17316 -0.96222,1.84431 -1.75295,4.06406 -1.75719,4.93276 -0.004,0.8687 -0.52291,2.5562 -1.15261,3.75 -2.59625,4.92198 -5.10509,11.42038 -5.10509,13.22318 0,1.05865 -0.5625,2.27246 -1.25,2.69736 -0.6875,0.4249 -1.25,2.03809 -1.25,3.58486 0,1.54678 -0.82586,3.9042 -1.83525,5.23873 -1.00938,1.33452 -1.85312,3.69203 -1.875,5.23891 C 126.26788,438.73437 125.6875,440 125,440 c -0.6875,0 -1.25,1.17884 -1.25,2.61964 0,1.4408 -0.79338,4.11267 -1.76307,5.9375 -3.15664,5.94038 -5.73693,12.40378 -5.73693,14.3705 0,1.05865 -0.51922,2.24571 -1.15383,2.63792 -0.6346,0.39221 -1.54988,2.51632 -2.03394,4.72024 -0.48407,2.20393 -1.45892,5.1506 -2.16633,6.54817 -2.76725,5.46693 -3.11839,6.60398 -3.98478,12.9034 -0.49264,3.58195 -1.40543,6.51263 -2.02842,6.51263 -0.62298,0 -1.1327,1.40625 -1.1327,3.125 0,1.71875 -0.5625,3.125 -1.25,3.125 -0.6875,0 -1.25,1.4239 -1.25,3.16422 0,1.74034 -0.84375,3.48802 -1.875,3.88374 -1.03125,0.39574 -1.899396,1.6437 -1.929215,2.77328 -0.02981,1.12956 -1.432246,4.30376 -3.116508,7.05376 -1.68426,2.75 -3.446075,5.84375 -3.915143,6.875 -0.46907,1.03125 -2.160392,3.11376 -3.758494,4.62781 -1.598101,1.51405 -2.90564,3.34218 -2.90564,4.0625 0,0.72033 -0.5625,1.30969 -1.25,1.30969 -0.6875,0 -1.25,1.09705 -1.25,2.43789 0,1.34083 -0.733474,2.88771 -1.629942,3.4375 -1.725369,1.05814 -5.870058,9.1787 -5.870058,11.50102 0,0.75548 -0.496895,1.37359 -1.104211,1.37359 -0.607315,0 -1.434735,0.98437 -1.838709,2.1875 -0.830341,2.47294 -3.507905,6.86495 -4.770475,7.82502 -0.461118,0.35064 -1.226556,2.18408 -1.700974,4.07432 -0.474419,1.89022 -1.362766,3.74591 -1.974105,4.12375 -0.61134,0.37782 -1.111526,2.34126 -1.111526,4.36318 0,2.43443 -0.633361,3.67623 -1.875,3.67623 -2.053948,0 -2.66652,5.61327 -0.74235,6.80247 0.622957,0.38502 0.855204,1.76098 0.516103,3.05771 -0.339102,1.29672 -0.005,2.73561 0.74235,3.19752 1.600114,0.98892 1.848567,6.9423 0.289722,6.9423 -0.588045,0 -1.585696,1.82812 -2.217001,4.0625 -0.865239,3.06234 -2.140728,4.35695 -5.180825,5.2585 -2.21815,0.65779 -4.032999,1.64216 -4.032999,2.1875 0,0.54532 -0.84375,0.9915 -1.875,0.9915 -1.03125,0 -1.875,0.5625 -1.875,1.25 0,0.6875 -1.627319,1.25 -3.616264,1.25 -2.061344,0 -3.925636,0.80621 -4.335769,1.875 -0.395728,1.03125 -1.646515,1.875 -2.779526,1.875 -1.403792,0 -1.863445,0.7517 -1.442934,2.35974 0.357434,1.36682 -0.614236,3.86516 -2.309257,5.9375 -1.609489,1.96777 -2.946571,4.84338 -2.971296,6.39026 C 27.520229,636.23437 26.9375,637.5 26.25,637.5 c -0.6875,0 -1.25,0.7334 -1.25,1.62979 0,0.89638 -1.939205,3.50935 -4.309344,5.80657 -2.723656,2.63988 -4.448492,5.60483 -4.6875,8.05772 -0.368059,3.7773 -0.563061,3.89072 -7.3027863,4.24796 -3.8085466,0.20187 -7.3241716,-0.0325 -7.81249996,-0.52084 z M 240,339.83084 c 0,-0.78054 1.40625,-2.72243 3.125,-4.31531 1.71875,-1.59289 3.125,-4.01482 3.125,-5.38207 0,-1.36726 0.5625,-2.83356 1.25,-3.25846 0.6875,-0.4249 1.25,-3.8331 1.25,-7.57378 0,-3.74067 -0.5625,-6.80122 -1.25,-6.80122 -0.76623,0 -1.25,-6.00695 -1.25,-15.52084 0,-8.93019 -0.51594,-15.69776 -1.21501,-15.9375 -0.70244,-0.24087 -1.57653,-12.15007 -2.07192,-28.22916 C 242.49179,237.51562 241.6323,225 241.0531,225 240.47389,225 240,217.93555 240,209.30122 c 0,-10.14753 -0.44201,-15.42558 -1.25,-14.92622 -0.6875,0.4249 -1.25,2.1456 -1.25,3.82377 0,1.67818 -0.50728,3.05123 -1.12726,3.05123 -0.62,0 -1.5191,3.37601 -1.998,7.50224 -0.4789,4.12623 -1.37788,7.81568 -1.99774,8.19877 -0.61985,0.38309 -1.127,2.35084 -1.127,4.37276 0,2.02193 -0.5625,3.67623 -1.25,3.67623 -0.75758,0 -1.25,5.41666 -1.25,13.75 0,8.33334 0.49242,13.75 1.25,13.75 0.6875,0 1.25,2.76562 1.25,6.14584 0,3.80557 0.59497,6.34414 1.5625,6.66661 1.1911,0.397 1.57946,7.85195 1.63385,31.36301 0.0513,22.1363 0.49225,31.26314 1.5625,32.33339 0.82013,0.82013 1.49115,3.9099 1.49115,6.86615 0,2.95625 0.5625,5.375 1.25,5.375 0.6875,0 1.25,-0.63862 1.25,-1.41916 z M 125,255.625 c 0,-1.71875 0.49061,-3.125 1.09024,-3.125 0.59964,0 1.45004,-2.25 1.88977,-5 0.43974,-2.75 1.34467,-5 2.01095,-5 0.66628,0 1.56435,-1.40625 1.99574,-3.125 0.43138,-1.71875 1.28584,-3.125 1.89881,-3.125 0.61297,0 1.11449,-1.35938 1.11449,-3.02084 0,-1.66145 0.61054,-3.22434 1.35676,-3.47309 0.84609,-0.28202 1.62451,-7.21595 2.06814,-18.4223 0.53118,-13.4179 0.3458,-17.74411 -0.73176,-17.07813 -0.79373,0.49055 -1.44314,2.51301 -1.44314,4.49436 0,1.98135 -0.54619,3.94002 -1.21376,4.3526 -0.66757,0.41259 -1.58547,3.55215 -2.03977,6.97682 -0.4543,3.42468 -1.28156,6.50825 -1.83837,6.85238 -0.55681,0.34412 -1.3991,4.55025 -1.87175,9.34694 -0.47266,4.7967 -1.3492,8.72126 -1.94786,8.72126 -0.59867,0 -1.08849,2.20312 -1.08849,4.89584 0,2.6927 -0.47624,5.08332 -1.05831,5.3125 -1.5182,0.59772 -2.83996,13.54166 -1.3828,13.54166 0.65511,0 1.19111,-1.40625 1.19111,-3.125 z"
       id="path3430"
       inkscape:connector-curvature="0" />
    <path
       style="fill:#e4c9e3"
       d="M 0.46225823,655.65165 C -0.7635482,652.45725 0.67853094,638.31549 2.2846749,637.78011 3.1401909,637.49494 3.75,634.73402 3.75,631.14584 3.75,627.76562 4.3125,625 5,625 c 0.6875,0 1.2534654,-0.70313 1.2577009,-1.5625 0.00424,-0.85938 0.8130691,-3.10637 1.7974078,-4.99333 0.9843389,-1.88694 2.1444433,-6.10569 2.5780093,-9.375 0.787059,-5.9348 1.095442,-6.91793 4.864432,-15.50808 1.101347,-2.51015 2.00245,-5.06989 2.00245,-5.68829 0,-1.80787 3.046591,-7.85239 3.963181,-7.86305 0.460999,-0.005 1.208818,-1.69725 1.661819,-3.75975 0.453001,-2.0625 1.269552,-3.75 1.814559,-3.75 0.545006,0 1.35071,-2.25 1.790452,-5 0.439744,-2.75 1.355385,-5 2.034762,-5 C 29.444147,562.5 30,561.09375 30,559.375 c 0,-1.71875 0.555852,-3.125 1.235227,-3.125 0.679377,0 1.595018,-2.25 2.034762,-5 0.439742,-2.75 1.240697,-5 1.779898,-5 0.539203,0 1.360503,-2.25 1.825113,-5 0.46461,-2.75 1.357802,-5 1.984873,-5 C 39.486942,536.25 40,534.84375 40,533.125 40,531.40625 40.490607,530 41.09024,530 c 0.599631,0 1.450029,-2.25 1.889771,-5 0.439744,-2.75 1.355385,-5 2.034761,-5 0.679375,0 1.235228,-1.40625 1.235228,-3.125 0,-1.71875 0.509716,-3.125 1.132702,-3.125 0.622987,0 1.51952,-2.8125 1.992298,-6.25 0.472777,-3.4375 1.362664,-6.25 1.977525,-6.25 0.614862,0 1.47772,-2.25 1.917464,-5 0.439742,-2.75 1.29014,-5 1.889771,-5 0.599633,0 1.09024,-0.84375 1.09024,-1.875 0,-1.03125 0.490607,-1.875 1.09024,-1.875 0.599631,0 1.450029,-2.25 1.889771,-5 0.439744,-2.75 1.355385,-5 2.034761,-5 0.679375,0 1.235228,-1.125 1.235228,-2.5 0,-1.375 0.5625,-2.5 1.25,-2.5 0.6875,0 1.25,-1.08483 1.25,-2.41071 0,-1.3259 0.750639,-3.16135 1.668086,-4.0788 0.917446,-0.91745 2.061915,-5.03575 2.543262,-9.15179 0.481347,-4.11604 1.418208,-7.6712 2.081913,-7.90036 0.663706,-0.22918 1.206739,-1.77605 1.206739,-3.4375 0,-1.66147 0.498631,-3.02084 1.10807,-3.02084 0.609439,0 1.485689,-2.51814 1.947223,-5.59586 0.461533,-3.07773 1.316716,-5.89102 1.900404,-6.25177 0.583691,-0.36073 1.461833,-5.99885 1.951428,-12.52912 0.489595,-6.53029 1.385781,-11.87325 1.991524,-11.87325 0.605744,0 1.101351,-3.65625 1.101351,-8.125 0,-4.46875 0.481626,-8.125 1.07028,-8.125 0.588654,0 1.456999,-4.6371 1.929655,-10.30465 0.472657,-5.66756 1.397281,-10.84256 2.05472,-11.5 C 88.212095,367.5379 88.75,364.8625 88.75,362.25 c 0,-2.6125 0.509716,-4.75 1.132702,-4.75 0.622987,0 1.534817,-2.95313 2.026288,-6.5625 0.491471,-3.60938 1.520942,-6.95911 2.287715,-7.44385 0.98876,-0.62508 1.399099,-16.07223 1.411214,-53.125 0.01427,-43.67518 0.323392,-52.90994 1.88472,-56.30615 1.027202,-2.23438 2.242332,-4.0625 2.700291,-4.0625 0.45796,0 1.23162,-4.7896 1.71925,-10.64356 0.48763,-5.85395 1.38188,-10.94965 1.98721,-11.32377 C 104.50473,207.65855 105,204.8876 105,201.875 c 0,-3.0126 0.50069,-5.7869 1.11266,-6.16511 0.61196,-0.37821 1.51786,-7.02079 2.01311,-14.76128 0.49525,-7.74049 1.32357,-14.63611 1.84072,-15.32361 0.51714,-0.6875 1.30426,-4.90625 1.74914,-9.375 0.44489,-4.46875 1.36587,-8.3125 2.04663,-8.54166 0.68076,-0.22918 1.23774,-2.33855 1.23774,-4.6875 0,-2.34897 0.50152,-4.27084 1.11449,-4.27084 0.61297,0 1.4696,-1.41486 1.90362,-3.14414 1.06076,-4.22642 4.53523,-8.10586 7.25969,-8.10586 1.22221,0 2.2222,-0.5625 2.2222,-1.25 0,-0.6875 0.84375,-1.25 1.875,-1.25 1.03125,0 1.875,-0.50972 1.875,-1.1327 0,-0.62299 2.90816,-1.53268 6.46259,-2.02154 4.16805,-0.57325 7.60305,-1.94633 9.67472,-3.86729 C 149.15399,116.34031 151.00769,115 151.50662,115 152.93134,115 160,107.73349 160,106.26891 c 0,-0.72344 -3.31479,-4.60961 -7.36619,-8.635928 -4.0514,-4.026317 -7.74556,-8.515868 -8.20924,-9.97678 C 143.9609,86.195291 143.05694,85 142.41576,85 141.7746,85 141.25,84.15625 141.25,83.125 c 0,-1.03125 -0.5246,-1.875 -1.16576,-1.875 -0.64118,0 -1.5507,-1.21282 -2.02118,-2.695156 -0.47047,-1.482337 -2.19589,-3.937464 -3.83424,-5.455839 C 132.59047,71.58063 131.25,69.1372 131.25,67.669161 131.25,66.201122 130.74029,65 130.1173,65 c -0.62299,0 -1.53832,-2.949236 -2.03409,-6.553858 -0.5444,-3.958223 -1.8285,-7.357936 -3.2423,-8.584118 C 122.31668,47.672774 121.55533,39.481383 123.75,38.125 124.4375,37.700101 125,36.260655 125,34.926229 125,33.591802 125.5625,32.5 126.25,32.5 c 0.6875,0 1.25,-0.897586 1.25,-1.994635 0,-1.927902 3.57603,-9.23102 5.14402,-10.505365 0.42297,-0.34375 1.19074,-2.03125 1.70617,-3.75 1.15873,-3.86392 5.50425,-8.75 7.78193,-8.75 0.93299,0 2.02012,-0.84375 2.41584,-1.875 0.39574,-1.03125 1.95308,-1.875 3.46078,-1.875 1.50768,0 3.40395,-0.6626909 4.21391,-1.4726462 0.80995,-0.8099556 6.14667,-1.7179701 11.85937,-2.01781021 9.80582,-0.51467424 10.60727,-0.35958832 14.33012,2.77298531 2.64493,2.225562 6.02516,3.5647027 10.26563,4.0669237 C 192.155,7.5112787 195,8.2667711 195,8.7783245 c 0,0.5115534 1.12216,1.2235485 2.49369,1.5822115 1.37153,0.358664 2.8626,1.689894 3.31348,2.95829 0.45088,1.268395 2.42247,3.82134 4.3813,5.67321 1.95884,1.85187 3.56153,4.242495 3.56153,5.3125 0,1.070005 0.55585,1.945464 1.23523,1.945464 0.67937,0 1.59502,2.25 2.03476,5 0.43973,2.75 1.29013,5 1.88977,5 0.59963,0 1.09024,2.25 1.09024,5 0,2.75 0.50971,5 1.1327,5 0.62299,0 1.51952,2.8125 1.9923,6.25 0.47278,3.4375 1.32461,6.25 1.89297,6.25 0.56837,0 1.40403,1.6875 1.85703,3.75 0.453,2.0625 1.34145,3.75 1.97433,3.75 0.63286,0 1.15067,1.96875 1.15067,4.375 0,2.40625 0.51781,4.375 1.15067,4.375 0.63288,0 1.52133,1.6875 1.97433,3.75 0.453,2.0625 1.34145,3.75 1.97433,3.75 1.77015,0 1.38771,10.931049 -0.41183,11.770834 -1.25,0.583332 -1.25,0.875 0,1.458332 0.85937,0.401043 1.5625,1.747112 1.5625,2.991265 0,1.244153 0.84375,2.585879 1.875,2.981599 1.03125,0.39573 1.875,1.51204 1.875,2.48068 0,0.96865 0.84375,2.46143 1.875,3.31729 1.03125,0.85586 1.875,2.65242 1.875,3.99234 0,3.44953 2.46026,5.48748 7.84386,6.49745 2.56088,0.48042 4.65614,1.34953 4.65614,1.93134 0,0.58182 1.40625,1.4108 3.125,1.84218 1.71875,0.43137 3.125,1.3361 3.125,2.01051 0,0.6744 0.58602,1.22618 1.30226,1.22618 1.87604,0 5.35873,3.78094 7.48406,8.125 1.00908,2.0625 2.30382,4.09309 2.87718,4.51242 0.57337,0.41934 1.13676,36.37227 1.252,79.8954 0.16505,62.34489 -0.122,79.24355 -1.353,79.65424 -1.03065,0.34384 -1.5625,3.21595 -1.5625,8.43794 0,4.35416 -0.5497,8.10416 -1.22155,8.33334 -0.67185,0.22916 -1.59859,5.33853 -2.05941,11.35416 -0.46082,6.01562 -1.31738,10.9375 -1.90345,10.9375 -0.58608,0 -1.06559,6.31021 -1.06559,14.0227 0,13.13916 -0.18408,14.18274 -2.92141,16.5625 -1.60678,1.39689 -3.28675,4.40058 -3.73327,6.67485 -0.44651,2.27427 -1.62295,4.94615 -2.6143,5.9375 C 249.93063,381.49794 245,381.88814 245,380 c 0,-0.6875 -1.125,-1.25 -2.5,-1.25 -1.375,0 -2.5,-0.5625 -2.5,-1.25 0,-0.6875 -0.71874,-1.25 -1.5972,-1.25 -1.71901,0 -5.9028,-4.33151 -5.9028,-6.11124 0,-0.59545 -0.8021,-1.74833 -1.78245,-2.56195 -1.50835,-1.25182 -1.9176,0.0701 -2.6614,8.59695 -0.48343,5.54193 -1.36882,10.07624 -1.96756,10.07624 -0.59873,0 -1.08859,1.96875 -1.08859,4.375 0,2.40625 -0.48983,4.375 -1.08849,4.375 -0.59866,0 -1.47647,3.9375 -1.95069,8.75 -0.47421,4.8125 -1.31808,8.75 -1.87528,8.75 -0.55719,0 -1.40911,5.0625 -1.89315,11.25 -0.48404,6.1875 -1.40034,11.25 -2.03623,11.25 -0.63589,0 -1.15616,5.625 -1.15616,12.5 0,6.875 -0.48663,12.5 -1.0814,12.5 -0.59476,0 -1.3467,14.73502 -1.67096,32.74449 -0.41991,23.32177 -1.00799,32.88396 -2.0436,33.22916 -0.93112,0.31038 -1.45404,3.8188 -1.45404,9.75551 0,5.09896 -0.47795,9.27084 -1.0621,9.27084 -0.58415,0 -1.43819,5.73879 -1.89785,12.75285 -0.45965,7.01406 -1.36073,13.0773 -2.00238,13.47386 -0.64165,0.39656 -1.55848,8.14345 -2.03741,17.2153 -0.8175,15.4851 -0.7256,16.54964 1.50199,17.39926 1.30501,0.49774 3.77325,2.19958 5.48497,3.78187 1.71173,1.58227 3.58003,2.87686 4.15179,2.87686 0.57176,0 1.88331,0.84375 2.91456,1.875 1.03125,1.03125 2.95982,1.875 4.28572,1.875 1.32588,0 2.41071,0.5625 2.41071,1.25 0,0.6875 0.87061,1.25 1.93469,1.25 1.06407,0 3.17345,1.32807 4.6875,2.95127 1.51405,1.6232 4.1071,3.37675 5.76235,3.89678 3.36491,1.05714 12.61546,9.71261 12.61546,11.80392 0,0.74142 -1.125,2.47303 -2.5,3.84803 -2.12963,2.12963 -4.16666,2.5 -13.75,2.5 -6.66666,0 -11.25,-0.50926 -11.25,-1.25 0,-0.6875 -1.43711,-1.25 -3.19357,-1.25 -3.51376,0 -14.30643,-4.51608 -14.30643,-5.98636 0,-1.64423 -9.89051,-5.26364 -14.38357,-5.26364 -2.40154,0 -4.36643,-0.5625 -4.36643,-1.25 0,-0.6875 -1.36835,-1.25 -3.04076,-1.25 -1.92183,0 -3.32679,-0.90117 -3.81804,-2.44898 -0.4275,-1.34693 -0.60604,-11.4242 -0.39674,-22.39393 0.36109,-18.92524 0.24679,-20.06222 -2.23544,-22.23853 -2.4264,-2.12735 -2.67646,-4.06006 -3.45051,-26.66856 -0.48587,-14.19181 -1.3513,-24.54908 -2.07151,-24.79166 -0.7772,-0.2618 -1.237,-13.61993 -1.237,-35.9375 0,-19.53647 -0.47406,-35.52084 -1.05346,-35.52084 -0.5794,0 -1.38395,-21.99205 -1.78789,-48.87123 -0.40393,-26.87916 -1.04525,-49.18205 -1.42516,-49.56195 -0.3799,-0.3799 -2.52848,-0.16625 -4.77462,0.4748 -3.31087,0.94492 -4.30304,2.045 -5.24183,5.81195 -0.63688,2.55554 -1.62125,4.64643 -2.1875,4.64643 -0.56624,0 -1.033,1.26562 -1.03724,2.8125 -0.004,1.54687 -0.84799,4.42367 -1.875,6.39289 -1.02701,1.96921 -1.8673,4.35983 -1.8673,5.3125 0,0.95266 -0.49219,1.73211 -1.09375,1.73211 -0.60156,0 -1.45853,1.82385 -1.90435,4.053 -0.97904,4.89519 -3.55804,10.947 -4.66511,10.947 -0.44162,0 -1.18252,2.53125 -1.64645,5.625 -0.46394,3.09375 -1.30895,5.625 -1.87782,5.625 -0.56886,0 -1.41662,2.038 -1.88392,4.52889 -0.46729,2.49088 -1.32635,5.44401 -1.90903,6.5625 -2.27591,4.36878 -5.01957,11.22962 -5.01957,12.55198 0,0.7648 -0.51521,2.36729 -1.14491,3.56109 C 122.47384,444.69279 120,451.13627 120,453.00141 120,454.10064 119.50781,455 118.90625,455 c -0.60156,0 -1.45852,1.82385 -1.90435,4.053 -0.97904,4.89519 -3.55804,10.947 -4.66511,10.947 -0.44161,0 -1.18252,2.53125 -1.64645,5.625 -0.46394,3.09375 -1.29321,5.625 -1.84282,5.625 -0.54961,0 -1.32731,2.76955 -1.72821,6.15456 -0.4009,3.385 -1.323,7.3225 -2.04911,8.75 -0.72611,1.42749 -1.8827,3.7128 -2.5702,5.07848 -0.6875,1.36567 -1.25,3.58772 -1.25,4.93788 0,1.35017 -0.73347,2.90468 -1.629942,3.45447 -1.674391,1.02687 -5.870058,9.15172 -5.870058,11.36729 0,0.68192 -0.84375,1.56362 -1.875,1.95936 -1.03125,0.39572 -1.875,1.48285 -1.875,2.41584 0,0.93298 -1.40625,3.01743 -3.125,4.63212 -1.71875,1.61469 -3.125,3.68149 -3.125,4.59289 0,0.91141 -0.429115,1.65711 -0.95359,1.65711 -0.954732,0 -3.212681,3.7038 -4.76273,7.8125 -0.453892,1.20312 -1.322154,2.1875 -1.929469,2.1875 C 75.496895,546.25 75,547.14759 75,548.24464 c 0,2.16917 -3.434426,8.82647 -5.9375,11.50925 -0.859375,0.92107 -1.5625,2.47825 -1.5625,3.4604 0,0.98213 -0.517806,1.78571 -1.150681,1.78571 -0.632874,0 -1.521318,1.6875 -1.974319,3.75 -0.453001,2.0625 -1.341445,3.75 -1.974319,3.75 -0.632875,0 -1.150681,1.96875 -1.150681,4.375 0,3.20935 -0.542471,4.375 -2.036039,4.375 -1.732393,0 -1.907374,0.9787 -1.173296,6.5625 0.474508,3.60937 1.390724,6.75 2.036038,6.97916 1.516848,0.53868 1.537578,6.45834 0.02261,6.45834 -0.632874,0 -1.492724,1.55731 -1.910777,3.4607 -0.510947,2.32632 -2.080003,4.03486 -4.786819,5.21236 -2.214698,0.96342 -4.36753,2.26125 -4.784073,2.88408 -0.416542,0.62284 -3.163065,1.4551 -6.103384,1.84947 -3.774907,0.50633 -5.523806,1.39686 -5.950938,3.03023 C 36.230629,618.95907 35.242877,620 34.368325,620 c -0.874554,0 -1.956405,1.95259 -2.404113,4.33907 -0.447708,2.38649 -1.823942,5.05837 -3.058298,5.9375 -1.234358,0.87914 -2.612339,3.4678 -3.062184,5.7526 -0.456146,2.3168 -2.720101,6.00147 -5.118656,8.33078 -2.859028,2.77649 -4.434734,5.57424 -4.700417,8.34582 -0.397482,4.14654 -0.438848,4.17127 -7.6022775,4.54455 -5.6473406,0.29429 -7.3661895,-0.0509 -7.96012128,-1.59867 z M 240,339.67169 c 0,-0.86808 1.40625,-2.63437 3.125,-3.92509 1.78759,-1.34243 3.125,-3.60926 3.125,-5.29669 0,-1.62245 0.5625,-2.94991 1.25,-2.94991 1.51498,0 1.69397,-14.57806 0.19042,-15.50731 -0.58277,-0.36018 -1.45888,-12.06524 -1.94692,-26.01128 -0.48804,-13.94602 -1.41747,-25.89079 -2.06543,-26.54391 C 243.03014,258.78437 242.5,250.76875 242.5,241.625 242.5,231.375 242.02067,225 241.25,225 c -0.76619,0 -1.28275,-6.41056 -1.3346,-16.5625 -0.0646,-12.65767 -0.38966,-15.82574 -1.37854,-13.4375 -0.71167,1.71875 -1.74681,4.01881 -2.30031,5.11125 -0.5535,1.09244 -1.40423,5.17056 -1.89049,9.0625 -0.48626,3.89194 -1.38181,7.07625 -1.99009,7.07625 -0.60828,0 -1.10597,1.96875 -1.10597,4.375 0,2.40625 -0.5625,4.375 -1.25,4.375 -0.75758,0 -1.25,5.41666 -1.25,13.75 0,8.33334 0.49242,13.75 1.25,13.75 0.6875,0 1.25,2.76562 1.25,6.14584 0,3.80558 0.59497,6.34414 1.5625,6.6666 1.19204,0.3973 1.58376,8.03603 1.65215,32.21739 0.0655,23.14841 0.48686,31.82901 1.5625,32.18756 0.83404,0.27801 1.47285,2.88545 1.47285,6.01177 0,3.03646 0.5625,5.52084 1.25,5.52084 0.6875,0 1.25,-0.71024 1.25,-1.57831 z M 125,255.625 c 0,-1.71875 0.49061,-3.125 1.09024,-3.125 0.59964,0 1.42845,-2.11506 1.84182,-4.70014 0.41808,-2.6145 1.87315,-5.50852 3.27913,-6.52189 1.39015,-1.00196 2.89246,-3.80877 3.33847,-6.23736 0.44603,-2.42859 1.34814,-4.76456 2.00471,-5.19106 0.65658,-0.4265 1.46153,-9.14525 1.78879,-19.375 0.42549,-13.3007 0.21754,-18.06538 -0.72994,-16.72455 -0.72872,1.03125 -1.33356,3.42187 -1.34408,5.3125 -0.01,1.89062 -0.54116,3.4375 -1.17919,3.4375 -0.63804,0 -1.5466,3.09375 -2.01904,6.875 -0.47244,3.78125 -1.35666,6.875 -1.96494,6.875 -0.60828,0 -1.10597,1.96875 -1.10597,4.375 0,2.40625 -0.50395,4.375 -1.1199,4.375 -0.61594,0 -1.51824,4.5 -2.0051,10 -0.48686,5.5 -1.38916,10 -2.0051,10 -0.61594,0 -1.1199,2.25 -1.1199,5 0,2.75 -0.5625,5 -1.25,5 -0.6875,0 -1.25,0.84375 -1.25,1.875 0,1.03125 0.84375,1.875 1.875,1.875 1.16667,0 1.875,-1.18055 1.875,-3.125 z"
       id="path3428"
       inkscape:connector-curvature="0" />
    <path
       style="fill:#cb95ca"
       d="m 1.5,656 c -1.95385856,-1.95386 -1.9825279,-14.38082 -0.034675,-15.03011 0.8225464,-0.27418 1.7109365,-3.88398 2.0252386,-8.22917 C 3.7985163,628.48332 4.5006763,625 5.0509195,625 5.6011627,625 6.421999,623.3125 6.875,621.25 7.328001,619.1875 8.2164446,617.5 8.8493191,617.5 9.4821936,617.5 10,616.12695 10,614.44877 c 0,-1.67817 0.48842,-3.35308 1.085378,-3.72203 0.596957,-0.36894 1.468639,-4.05839 1.937071,-8.19877 0.46843,-4.14038 1.336819,-7.52797 1.92975,-7.52797 0.592931,0 1.458191,-2.25 1.922801,-5 0.46461,-2.75 1.357803,-5 1.984872,-5 C 19.486942,585 20,583.875 20,582.5 c 0,-1.375 0.517806,-2.5 1.150681,-2.5 0.632874,0 1.521318,-1.6875 1.974319,-3.75 0.453001,-2.0625 1.341445,-3.75 1.974319,-3.75 0.632875,0 1.150681,-1.40625 1.150681,-3.125 0,-1.71875 0.555852,-3.125 1.235227,-3.125 0.679377,0 1.595018,-2.25 2.034762,-5 0.439742,-2.75 1.264651,-5 1.83313,-5 0.568478,0 1.421473,-2.10938 1.895542,-4.6875 0.47407,-2.57813 1.202684,-4.96875 1.619143,-5.3125 1.811357,-1.49511 3.896032,-6.52129 4.643455,-11.19541 C 39.955803,532.27456 40.810129,530 41.40976,530 42.009393,530 42.5,528.59375 42.5,526.875 c 0,-1.71875 0.555852,-3.125 1.235227,-3.125 0.679377,0 1.595018,-2.25 2.034762,-5 0.439742,-2.75 1.237356,-5 1.772474,-5 0.535118,0 1.35976,-2.8125 1.832537,-6.25 0.472777,-3.4375 1.369311,-6.25 1.992297,-6.25 0.622987,0 1.132703,-0.84375 1.132703,-1.875 0,-1.03125 0.490607,-1.875 1.09024,-1.875 0.599631,0 1.450029,-2.25 1.889771,-5 0.439744,-2.75 1.283494,-5 1.875,-5 0.591508,0 1.435258,-2.25 1.875,-5 0.439744,-2.75 1.355385,-5 2.034761,-5 0.679375,0 1.235228,-0.84375 1.235228,-1.875 0,-1.03125 0.5625,-1.875 1.25,-1.875 0.6875,0 1.25,-1.36607 1.25,-3.03571 0,-1.66965 0.84375,-3.87946 1.875,-4.91071 1.03125,-1.03125 1.875,-3.88394 1.875,-6.33929 0,-2.45536 0.509716,-4.46429 1.132703,-4.46429 0.622986,0 1.519519,-2.8125 1.992297,-6.25 0.472778,-3.4375 1.305442,-6.25 1.850368,-6.25 0.544925,0 1.370357,-2.53125 1.834293,-5.625 0.463937,-3.09375 1.371555,-5.625 2.01693,-5.625 0.645375,0 1.173409,-2.76563 1.173409,-6.14584 0,-3.3802 0.526953,-6.33332 1.171006,-6.5625 0.644054,-0.22916 1.567863,-6.74479 2.052909,-14.47916 C 82.458961,396.32812 83.338258,390 83.927909,390 84.517559,390 85,387.50195 85,384.44877 c 0,-3.05317 0.495653,-5.85756 1.10145,-6.23196 0.605797,-0.37441 1.509092,-5.04822 2.007321,-10.38627 0.498229,-5.33805 1.423694,-10.02918 2.056588,-10.42473 0.632895,-0.39556 1.495451,-3.62994 1.916792,-7.1875 C 92.503494,346.66074 93.332376,343.75 93.924114,343.75 94.515851,343.75 95,340.9375 95,337.5 c 0,-3.4375 0.5625,-6.25 1.25,-6.25 0.763889,0 1.25,-5.83334 1.25,-15 0,-9.16666 -0.486111,-15 -1.25,-15 -0.790599,0 -1.25,-8.95834 -1.25,-24.375 0,-13.40625 0.491961,-24.375 1.093248,-24.375 0.601287,0 1.346647,-4.82788 1.656356,-10.7286 0.309709,-5.90073 1.173232,-11.10567 1.918941,-11.56655 0.745705,-0.46087 1.760485,-5.47675 2.255055,-11.1464 0.49457,-5.66965 1.38908,-10.30845 1.98781,-10.30845 0.59872,0 1.08859,-2.8125 1.08859,-6.25 0,-3.4375 0.51315,-6.25 1.14033,-6.25 0.62719,0 1.54321,-6.75 2.03562,-15 0.4924,-8.25 1.3855,-15 1.98466,-15 0.59917,0 1.08939,-2.8125 1.08939,-6.25 0,-3.4375 0.52203,-6.25 1.16006,-6.25 0.63803,0 1.54659,-3.09375 2.01902,-6.875 0.47244,-3.78125 1.28635,-6.875 1.8087,-6.875 0.52235,0 1.30233,-1.76305 1.7333,-3.9179 0.81539,-4.07695 4.9337,-8.5821 7.84518,-8.5821 0.92605,0 1.68374,-0.55585 1.68374,-1.23522 0,-0.67938 2.25,-1.59502 5,-2.03477 2.75,-0.43974 5,-1.29014 5,-1.88977 0,-0.59963 1.55262,-1.09024 3.45027,-1.09024 1.94824,0 4.91743,-1.36043 6.82044,-3.125 1.8536,-1.71875 3.86425,-3.125 4.46811,-3.125 1.54447,0 7.76118,-7.17076 7.76118,-8.95224 0,-0.81064 -3.31693,-4.68946 -7.37094,-8.619585 -4.05401,-3.930129 -7.74817,-8.334249 -8.20924,-9.786932 C 143.95876,86.188559 143.11791,85 142.55127,85 c -0.56663,0 -1.3832,-1.40625 -1.81457,-3.125 -0.43139,-1.71875 -1.33611,-3.125 -2.01051,-3.125 -0.6744,0 -1.22619,-0.638622 -1.22619,-1.419161 0,-0.780539 -1.36154,-2.680998 -3.02565,-4.223242 -1.94451,-1.802107 -3.3352,-4.868266 -3.89193,-8.580837 -0.47646,-3.177219 -1.36491,-5.77676 -1.97435,-5.77676 -0.60943,0 -1.10807,-1.618625 -1.10807,-3.596944 0,-1.97832 -0.91086,-4.352892 -2.02414,-5.276829 -1.63173,-1.354218 -1.87286,-3.127198 -1.24381,-9.145607 0.42918,-4.106149 1.22872,-7.778451 1.77676,-8.160673 C 127.27492,31.686925 131.25,23.195269 131.25,21.373589 131.25,20.618115 131.75152,20 132.36449,20 c 0.61297,0 1.4796,-1.454694 1.92583,-3.232653 C 135.16341,13.288676 140.28045,7.5 142.48241,7.5 c 0.74033,0 1.6518,-0.7967634 2.02549,-1.7705854 0.38754,-1.0098987 3.32435,-2.1343533 6.83576,-2.6172974 C 154.72965,2.6464257 157.5,1.7556891 157.5,1.1327026 c 0,-1.91478764 14.33974,-1.27047154 18.55795,0.8338496 C 178.22607,3.048156 180,4.3905376 180,4.9496226 c 0,0.5590849 2.67187,1.3985444 5.9375,1.8654657 7.79787,1.1149458 12.67599,3.2855967 13.54634,6.0278227 0.38746,1.220803 2.63086,4.090515 4.98532,6.377139 2.35446,2.286624 4.28084,4.803799 4.28084,5.593724 0,0.789925 0.55585,1.436226 1.23523,1.436226 0.67937,0 1.59502,2.25 2.03476,5 0.43973,2.75 1.21001,5 1.7117,5 0.5017,0 1.27907,3.515625 1.7275,7.8125 0.44842,4.296875 1.37231,8 2.05307,8.229166 0.68075,0.229168 1.23774,1.776043 1.23774,3.4375 0,1.661459 0.51781,3.020834 1.15067,3.020834 0.63288,0 1.52133,1.6875 1.97433,3.75 0.453,2.0625 1.26829,3.75 1.81175,3.75 0.54346,0 1.2872,2.653434 1.65274,5.896519 0.36555,3.243086 1.28245,6.102461 2.03757,6.354167 0.75512,0.251706 1.37294,1.254523 1.37294,2.22848 0,0.973959 0.5625,1.770834 1.25,1.770834 0.6875,0 1.25,2.53125 1.25,5.625 0,3.09375 -0.5625,5.625 -1.25,5.625 -0.6875,0 -1.25,0.84375 -1.25,1.875 0,1.03125 0.5625,1.875 1.25,1.875 0.6875,0 1.25,0.861404 1.25,1.914231 0,1.052829 0.84375,2.238009 1.875,2.633739 1.03125,0.39572 1.875,1.72414 1.875,2.95203 0,1.22789 0.84375,2.55631 1.875,2.95203 1.03125,0.39573 1.875,1.90234 1.875,3.34802 0,3.63789 2.3755,5.66386 7.84386,6.68973 2.56088,0.48043 4.65614,1.41051 4.65614,2.06686 0,0.65635 0.84375,1.19336 1.875,1.19336 1.03125,0 1.875,0.52459 1.875,1.16577 0,0.64117 1.18513,1.54191 2.63362,2.00164 3.84125,1.21916 7.36638,4.57194 7.36638,7.00623 0,1.16491 0.68719,2.34708 1.52709,2.62706 0.96586,0.32195 1.70517,4.03543 2.01162,10.10416 0.2665,5.27733 0.98555,9.59514 1.59791,9.59514 0.61235,0 1.11338,4.21875 1.11338,9.375 0,5.41666 -0.52778,9.375 -1.25,9.375 -0.80247,0 -1.25,12.08334 -1.25,33.75 0,21.66666 0.44753,33.75 1.25,33.75 1.62102,0 1.69172,44.05422 0.0734,45.6875 -0.64717,0.65313 -1.57311,7.09375 -2.05763,14.3125 -0.48453,7.21875 -1.38198,13.45224 -1.99433,13.8522 -0.61235,0.39996 -1.45746,5.60309 -1.87802,11.5625 -0.42063,5.95941 -1.24367,10.8353 -1.82905,10.8353 -0.58539,0 -1.06434,6.05263 -1.06434,13.45028 0,12.38632 -0.23239,13.70088 -2.93778,16.61852 -1.61577,1.74254 -3.32281,5.22071 -3.79342,7.72928 -0.55948,2.98231 -1.71566,4.83397 -3.34031,5.34962 -3.04574,0.96667 -9.92849,-0.41772 -9.92849,-1.99702 0,-0.63287 -0.99999,-1.15068 -2.2222,-1.15068 -2.52598,0 -5.87291,-3.46744 -7.11039,-7.36638 -1.30625,-4.11561 -3.16741,-3.09238 -3.16741,1.74138 0,2.40625 -0.48986,4.375 -1.08859,4.375 -0.59874,0 -1.48114,4.5 -1.96091,10 -0.47977,5.5 -1.32348,10 -1.87489,10 -0.55142,0 -1.39057,3.9375 -1.86478,8.75 -0.47422,4.8125 -1.39065,8.75 -2.03652,8.75 -0.64587,0 -1.17431,2.76562 -1.17431,6.14584 0,3.3802 -0.59774,6.34507 -1.32829,6.58858 -0.79697,0.26567 -1.62247,7.05739 -2.06375,16.97918 -0.40448,9.09502 -1.13789,16.5364 -1.62976,16.5364 -0.49189,0 -1.15604,15.01531 -1.47589,33.36737 -0.41632,23.88679 -0.99648,33.50569 -2.04194,33.85417 -0.92615,0.30872 -1.46037,3.64952 -1.46037,9.13262 0,4.75521 -0.47795,8.64584 -1.0621,8.64584 -0.58415,0 -1.43881,5.74841 -1.89925,12.77425 -0.46042,7.02584 -1.38874,13.32584 -2.0629,14 -0.67416,0.67416 -1.22575,4.207 -1.22575,7.85075 0,3.64375 -0.5625,6.625 -1.25,6.625 -0.72829,0 -1.25,4.13859 -1.25,9.91576 0,9.07029 0.23079,9.98902 2.70664,10.77483 1.48865,0.47247 4.04546,2.19787 5.68181,3.83422 1.63635,1.63635 3.65806,2.97519 4.49269,2.97519 0.83462,0 2.17057,1.04574 2.96877,2.32388 0.7982,1.27812 3.21617,2.67683 5.37323,3.10825 2.15707,0.43141 4.71353,1.49505 5.68102,2.36363 4.14296,3.71942 5.56508,4.70424 6.79308,4.70424 0.71652,0 1.30276,0.5625 1.30276,1.25 0,0.6875 0.76506,1.25 1.70015,1.25 1.91177,0 10.79985,7.97521 10.79985,9.69064 0,0.60969 -1.41053,2.33496 -3.13451,3.83394 -2.69187,2.34055 -4.63359,2.72542 -13.75,2.72542 -5.83851,0 -10.61549,-0.48844 -10.61549,-1.08541 0,-0.59698 -2.37853,-1.40444 -5.28562,-1.79437 -2.90709,-0.38992 -5.48522,-1.30773 -5.72917,-2.03958 -0.24395,-0.73185 -1.46148,-1.33064 -2.70563,-1.33064 -1.24417,0 -2.58588,-0.84375 -2.98162,-1.875 -0.39572,-1.03125 -1.5809,-1.875 -2.63373,-1.875 -1.05283,0 -1.91423,-0.5625 -1.91423,-1.25 0,-0.6875 -1.125,-1.25 -2.5,-1.25 -1.375,0 -2.5,-0.48236 -2.5,-1.07192 0,-0.58957 -3.48415,-1.4361 -7.74255,-1.88119 -4.2584,-0.4451 -8.21011,-1.5096 -8.78158,-2.36558 -0.57146,-0.85597 -0.8842,-10.87641 -0.69495,-22.26764 0.30473,-18.34262 0.0939,-20.96185 -1.84342,-22.90178 -1.85759,-1.8601 -2.1875,-4.62781 -2.1875,-18.35118 0,-9.94047 -0.48113,-16.16071 -1.25,-16.16071 -0.71327,0 -1.25,-3.72541 -1.25,-8.67623 0,-4.77192 -0.49518,-8.98226 -1.10038,-9.3563 -0.60521,-0.37403 -1.51866,-32.46973 -2.02988,-71.32377 -0.51177,-38.89438 -1.42168,-70.6437 -2.02463,-70.6437 -0.60231,0 -1.09511,-6.1875 -1.09511,-13.75 0,-14.8849 -0.001,-14.8878 -7.19641,-12.95981 -2.11008,0.56544 -3.01703,1.97932 -3.59727,5.60794 C 152.52961,367.81665 151.68987,370 151.09024,370 150.49061,370 150,371.40625 150,373.125 c 0,1.71875 -0.53701,3.125 -1.19336,3.125 -0.65634,0 -1.58123,2.10938 -2.0553,4.6875 -0.47408,2.57813 -1.20269,4.96875 -1.61914,5.3125 -1.66105,1.37105 -3.7559,6.18061 -4.5608,10.47111 -0.4673,2.49089 -1.31506,4.52889 -1.88393,4.52889 -0.56886,0 -1.41387,2.53125 -1.87781,5.625 -0.46394,3.09375 -1.34215,5.625 -1.95159,5.625 -0.60943,0 -1.10807,1.125 -1.10807,2.5 0,1.375 -0.52804,2.5 -1.17341,2.5 -0.64538,0 -1.55299,2.53125 -2.01693,5.625 -0.46394,3.09375 -1.3355,5.625 -1.93682,5.625 -0.60132,0 -1.45309,2.25 -1.89283,5 -0.43973,2.75 -1.29013,5 -1.88977,5 -0.59963,0 -1.09024,1.40625 -1.09024,3.125 0,1.71875 -0.53701,3.125 -1.19336,3.125 -0.65635,0 -1.58123,2.10937 -2.0553,4.6875 -0.47407,2.57812 -1.20269,4.96875 -1.61914,5.3125 -1.66104,1.37105 -3.7559,6.18061 -4.5608,10.47111 C 113.8541,467.962 113.00634,470 112.43748,470 c -0.56886,0 -1.41388,2.53125 -1.87782,5.625 -0.46393,3.09375 -1.34215,5.625 -1.95159,5.625 -0.60944,0 -1.10807,1.96875 -1.10807,4.375 0,2.40625 -0.49863,4.375 -1.10807,4.375 -0.60944,0 -1.48765,2.53125 -1.95159,5.625 -0.46394,3.09375 -1.37156,5.625 -2.01693,5.625 -0.64538,0 -1.17341,1.33737 -1.17341,2.97195 0,1.63456 -0.84375,3.67219 -1.875,4.52805 -1.03125,0.85586 -1.875,2.33099 -1.875,3.27805 0,0.94708 -0.517806,1.72195 -1.150681,1.72195 -0.632874,0 -1.52721,1.71433 -1.987412,3.80961 -0.460202,2.09529 -1.911145,4.48059 -3.224318,5.30068 -1.313174,0.8201 -2.387589,2.40197 -2.387589,3.5153 0,1.11332 -1.387844,3.06646 -3.084097,4.34028 -1.696254,1.27384 -3.428448,3.88388 -3.849319,5.80011 C 81.395711,538.43219 80.571461,540 79.984915,540 c -0.586545,0 -1.461416,1.26562 -1.944158,2.8125 -0.482739,1.54687 -1.253078,3.09375 -1.711863,3.4375 -1.160538,0.86955 -5.078894,9.45355 -5.078894,11.12641 0,0.75548 -0.536109,1.37359 -1.191354,1.37359 -0.655244,0 -2.172811,2.10937 -3.37237,4.6875 -1.19956,2.57812 -2.674852,5.02831 -3.27843,5.44485 -0.603576,0.41654 -1.420085,3.16306 -1.814465,6.10339 -0.506321,3.7749 -1.39686,5.5238 -3.030217,5.95093 -1.576195,0.41219 -2.313164,1.75321 -2.313164,4.20912 0,1.98231 0.5625,3.60421 1.25,3.60421 0.6875,0 1.25,1.40625 1.25,3.125 0,1.71875 0.5625,3.125 1.25,3.125 0.6875,0 1.25,1.40625 1.25,3.125 0,1.71875 -0.5625,3.125 -1.25,3.125 -0.6875,0 -1.25,0.84375 -1.25,1.875 0,1.03125 -0.5625,1.875 -1.25,1.875 -0.6875,0 -1.25,0.84375 -1.25,1.875 0,1.03125 -0.84375,1.875 -1.875,1.875 -1.03125,0 -1.875,0.51781 -1.875,1.15067 0,0.63288 -1.6875,1.52133 -3.75,1.97433 C 46.6875,612.328 45,613.21645 45,613.84933 45,614.48219 43.03125,615 40.625,615 c -3.055555,0 -4.375,0.56547 -4.375,1.875 0,1.03125 -0.84375,1.875 -1.875,1.875 -1.166666,0 -1.875,1.18055 -1.875,3.125 0,1.71875 -0.5625,3.125 -1.25,3.125 -0.6875,0 -1.25,0.80358 -1.25,1.78571 0,0.98215 -0.745815,2.53153 -1.657366,3.44309 -0.911552,0.91155 -2.02853,3.51319 -2.482177,5.78141 -0.469191,2.34596 -2.718781,5.91029 -5.217633,8.26702 -2.683837,2.53118 -4.392824,5.32561 -4.392824,7.18287 0,4.35362 -2.268409,6.0399 -8.125,6.0399 -2.81875,0 -5.8,-0.675 -6.625,-1.5 z M 241.25,339.6528 c 0,-0.87846 1.125,-2.56045 2.5,-3.73776 1.375,-1.17732 2.5,-3.55233 2.5,-5.2778 0,-1.72549 0.5625,-3.13724 1.25,-3.13724 0.70512,0 1.25,-3.54166 1.25,-8.125 0,-4.46875 -0.47928,-8.125 -1.06505,-8.125 -0.58576,0 -1.46998,-11.66368 -1.96489,-25.91929 -0.49492,-14.25561 -1.35514,-26.20874 -1.9116,-26.5625 -0.55645,-0.35376 -1.42683,-15.43335 -1.93417,-33.51019 -0.66033,-23.52745 -1.32409,-32.7353 -2.33586,-32.4036 -0.77739,0.25485 -1.59142,1.96687 -1.80895,3.80448 -0.21754,1.8376 -0.92067,3.3411 -1.5625,3.3411 -0.64184,0 -1.16698,1.96875 -1.16698,4.375 0,2.40625 -0.51772,4.375 -1.15051,4.375 -0.63278,0 -1.54205,3.65625 -2.02061,8.125 -0.47857,4.46875 -1.36709,8.125 -1.9745,8.125 -0.6074,0 -1.10438,6.1875 -1.10438,13.75 0,7.5625 0.49561,13.75 1.10135,13.75 0.60575,0 1.50193,5.34296 1.99153,11.87325 0.4896,6.53027 1.40023,12.18847 2.02365,12.57376 1.55918,0.96364 1.45051,27.7095 -0.1165,28.67799 -0.6875,0.4249 -1.25,4.11435 -1.25,8.19877 0,4.11749 0.55693,7.42623 1.25,7.42623 0.6875,0 1.25,1.96875 1.25,4.375 0,2.40625 0.5625,4.375 1.25,4.375 0.6875,0 1.25,2.53125 1.25,5.625 0,4.16666 0.48611,5.625 1.875,5.625 1.03125,0 1.875,-0.71874 1.875,-1.5972 z M 125,255.625 c 0,-1.71875 0.5625,-3.125 1.25,-3.125 0.6875,0 1.25,-1.40625 1.25,-3.125 0,-1.71875 0.50152,-3.125 1.11449,-3.125 0.61297,0 1.46743,-1.40625 1.89881,-3.125 0.43139,-1.71875 1.31062,-3.125 1.95387,-3.125 0.64326,0 1.54005,-1.97496 1.99289,-4.38881 0.45284,-2.41384 1.32208,-4.69704 1.93164,-5.07377 0.60956,-0.37673 1.1083,-2.90177 1.1083,-5.6112 0,-2.70942 0.5625,-4.92622 1.25,-4.92622 0.75815,0 1.25,-5.45139 1.25,-13.85416 0,-10.52377 -0.37561,-13.73078 -1.5625,-13.34088 -0.85938,0.2823 -1.73708,2.57918 -1.95046,5.10417 -0.21338,2.52497 -0.9165,4.59087 -1.5625,4.59087 -0.64599,0 -1.17454,1.40625 -1.17454,3.125 0,1.71875 -0.51773,3.125 -1.15051,3.125 -0.63278,0 -1.54205,3.65625 -2.02062,8.125 -0.47856,4.46875 -1.30853,8.125 -1.8444,8.125 -0.53585,0 -1.37261,4.5 -1.85947,10 -0.48686,5.5 -1.38916,10 -2.0051,10 -0.61594,0 -1.1199,2.25 -1.1199,5 0,2.75 -0.5625,5 -1.25,5 -0.6875,0 -1.25,0.84375 -1.25,1.875 0,1.03125 0.84375,1.875 1.875,1.875 1.16667,0 1.875,-1.18055 1.875,-3.125 z"
       id="path3426"
       inkscape:connector-curvature="0" />
    <path
       style="fill:#b86cb6"
       d="m 1.5625,655.63021 c -1.99477584,-2.26567 -2.07256825,-14.00186 -0.097175,-14.66032 0.8225464,-0.27418 1.7109365,-3.88398 2.0252386,-8.22916 C 3.7985163,628.48332 4.5453699,625 5.1502386,625 5.7551074,625 6.25,624.15625 6.25,623.125 c 0,-1.03125 0.5558526,-1.875 1.235228,-1.875 0.6793755,0 1.5950176,-2.25 2.0347603,-5 0.4397427,-2.75 1.2100087,-5 1.7117017,-5 0.501693,0 1.276335,-3.48415 1.721426,-7.74255 0.445092,-4.2584 1.228348,-8.05527 1.74057,-8.4375 1.619717,-1.20864 3.70699,-5.63389 4.621689,-9.79848 0.485795,-2.21181 1.40107,-4.02147 2.033944,-4.02147 0.632875,0 1.150681,-1.125 1.150681,-2.5 0,-1.375 0.555852,-2.5 1.235227,-2.5 0.679377,0 1.595018,-2.25 2.034762,-5 0.439742,-2.75 1.283492,-5 1.875,-5 0.591506,0 1.435256,-2.25 1.875,-5 0.439742,-2.75 1.29014,-5 1.889771,-5 0.599632,0 1.09024,-0.84375 1.09024,-1.875 0,-1.03125 0.490608,-1.875 1.09024,-1.875 0.599631,0 1.450029,-2.25 1.889771,-5 0.439744,-2.75 1.302601,-5 1.917464,-5 0.614861,0 1.504747,-2.8125 1.977525,-6.25 0.472777,-3.4375 1.369311,-6.25 1.992297,-6.25 0.622987,0 1.132703,-1.40625 1.132703,-3.125 0,-1.71875 0.555852,-3.125 1.235227,-3.125 0.679377,0 1.595018,-2.25 2.034762,-5 0.439742,-2.75 1.29014,-5 1.889771,-5 0.599633,0 1.09024,-1.40625 1.09024,-3.125 0,-1.71875 0.490607,-3.125 1.09024,-3.125 0.599631,0 1.450029,-2.25 1.889771,-5 0.439744,-2.75 1.283494,-5 1.875,-5 0.591508,0 1.435258,-2.25 1.875,-5 0.439744,-2.75 1.355385,-5 2.034761,-5 0.679375,0 1.235228,-1.40625 1.235228,-3.125 0,-1.71875 0.517806,-3.125 1.150681,-3.125 0.632874,0 1.521318,-1.6875 1.974319,-3.75 0.453001,-2.0625 1.341445,-3.75 1.974319,-3.75 0.632875,0 1.150681,-1.16517 1.150681,-2.58929 0,-1.4241 0.84375,-3.43304 1.875,-4.46429 1.03125,-1.03125 1.875,-4.08481 1.875,-6.78571 0,-2.70089 0.498631,-4.91071 1.10807,-4.91071 0.609439,0 1.487655,-2.53125 1.951591,-5.625 0.463937,-3.09375 1.371555,-5.625 2.01693,-5.625 0.645375,0 1.173409,-1.29375 1.173409,-2.875 0,-1.58125 0.623108,-3.49811 1.384685,-4.25969 0.761576,-0.76157 1.682337,-5.09282 2.046138,-9.625 0.363798,-4.53217 1.09953,-8.24031 1.634957,-8.24031 0.535427,0 1.375311,-6.19951 1.866409,-13.77669 0.491097,-7.57717 1.382257,-14.07912 1.980357,-14.44877 C 84.510646,390.1549 85,387.3544 85,384.30123 c 0,-3.05318 0.503955,-5.55123 1.119899,-5.55123 0.615945,0 1.51824,-4.5 2.005101,-10 0.486861,-5.5 1.389156,-10 2.005101,-10 0.615944,0 1.119899,-1.29375 1.119899,-2.875 0,-1.58125 0.546644,-3.42164 1.214763,-4.08976 0.66812,-0.66813 1.594293,-5.29837 2.058163,-10.28943 0.463872,-4.99107 1.323478,-9.37137 1.910238,-9.73401 C 97.970525,330.81166 97.793065,301.25 96.25,301.25 95.459401,301.25 95,292.29166 95,276.875 95,263.38272 95.498995,252.5 96.117644,252.5 c 0.614704,0 1.326386,-4.5966 1.581516,-10.21468 0.301419,-6.63736 1.00442,-10.39485 2.007356,-10.72916 0.868994,-0.28966 1.543484,-2.6217 1.543484,-5.33656 0,-2.65213 0.51006,-5.1373 1.13348,-5.52259 0.62341,-0.38529 1.53405,-6.04349 2.02365,-12.57376 0.48959,-6.53029 1.38578,-11.87325 1.99152,-11.87325 0.60574,0 1.10135,-3.06055 1.10135,-6.80123 0,-3.74067 0.48935,-7.10367 1.08745,-7.47331 0.5981,-0.36965 1.48926,-6.8716 1.98036,-14.44877 0.4911,-7.57718 1.35521,-13.77669 1.92025,-13.77669 0.56504,0 1.42946,-2.95313 1.92093,-6.5625 0.49147,-3.60938 1.24738,-6.84375 1.6798,-7.1875 0.43241,-0.34375 1.93009,-2.875 3.32817,-5.625 1.39808,-2.75 3.7887,-5.55526 5.3125,-6.23391 1.5238,-0.67865 2.77054,-1.65638 2.77054,-2.17273 0,-0.51635 2.25,-1.2986 5,-1.73835 2.75,-0.43974 5,-1.29014 5,-1.88977 0,-0.59963 1.88996,-1.09024 4.19991,-1.09024 3.02077,0 4.85878,-0.87736 6.54669,-3.125 1.29072,-1.71875 3.03425,-3.125 3.8745,-3.125 2.23389,0 7.8789,-6.48447 7.8789,-9.05057 0,-1.21061 -3.09375,-5.2216 -6.875,-8.913317 -3.78125,-3.691712 -6.875,-7.315687 -6.875,-8.053278 0,-0.737591 -1.0443,-2.076096 -2.32068,-2.974455 -1.27637,-0.898359 -2.72052,-2.899005 -3.20923,-4.44588 -0.4887,-1.546875 -1.41315,-2.8125 -2.05433,-2.8125 -0.64116,0 -1.16576,-0.745699 -1.16576,-1.657107 0,-0.911409 -1.38325,-2.9566 -3.07389,-4.54487 -1.92301,-1.806583 -3.38015,-4.930167 -3.89192,-8.342893 -0.44993,-3.000321 -1.31668,-5.45513 -1.92612,-5.45513 -0.60943,0 -1.10807,-1.986404 -1.10807,-4.414231 0,-2.770648 -0.69814,-4.68213 -1.875,-5.133736 -2.06098,-0.790874 -2.6896,-9.801041 -0.7667,-10.989455 0.60956,-0.376731 1.4788,-2.659928 1.93164,-5.073772 C 127.24277,30.724962 128.1248,28.75 128.75,28.75 c 0.6252,0 1.50606,-1.96875 1.95747,-4.375 0.45142,-2.40625 1.32065,-4.375 1.93164,-4.375 0.61099,0 1.11089,-0.84375 1.11089,-1.875 0,-1.03125 0.50152,-1.875 1.11449,-1.875 0.61297,0 1.45802,-1.368759 1.87791,-3.041688 0.41987,-1.672928 2.02772,-3.4408914 3.573,-3.928808 1.54529,-0.4879166 3.65627,-1.8589496 4.69109,-3.0467399 1.03482,-1.1877904 4.2692,-2.563019 7.1875,-3.0560637 C 155.1123,2.6836556 157.5,1.767198 157.5,1.1401277 157.5,0.51305747 161.15625,0 165.625,0 c 4.46875,0 8.125,0.50152049 8.125,1.11449 0,0.6129695 1.40625,1.4674363 3.125,1.898815 1.71875,0.4313787 3.125,1.3361082 3.125,2.01051 0,0.6744017 1.40625,1.226185 3.125,1.226185 1.71875,0 3.125,0.4900327 3.125,1.0889616 0,0.598929 2.77935,1.4576553 6.17632,1.9082807 4.90363,0.6504891 6.3562,1.3920077 7.04924,3.5985377 0.48009,1.528571 2.73679,4.544616 5.01486,6.702322 2.27809,2.157707 4.51067,5.392082 4.96129,7.1875 0.45062,1.795419 1.32083,3.264398 1.9338,3.264398 0.61297,0 1.11449,1.40625 1.11449,3.125 0,1.71875 0.48236,3.125 1.07192,3.125 0.58957,0 1.4361,3.484149 1.88119,7.742552 0.4451,4.258404 1.28784,8.055279 1.87278,8.4375 0.58492,0.382222 1.45137,2.804323 1.92545,5.382448 0.47407,2.578125 1.39896,4.6875 2.0553,4.6875 0.65635,0 1.19336,1.125 1.19336,2.5 0,1.375 0.48844,2.5 1.08541,2.5 0.59698,0 1.39808,2.331068 1.78021,5.18015 0.38215,2.849083 1.15934,5.520958 1.72709,5.9375 C 230.57054,81.169204 232.94346,92.5 230,92.5 c -0.6875,0 -1.25,1.125 -1.25,2.5 0,1.375 0.4969,2.5 1.10421,2.5 0.60732,0 1.46507,0.984375 1.9061,2.1875 1.51684,4.13782 4.6278,9.0625 5.72487,9.0625 0.60432,0 1.27676,1.49014 1.49429,3.31142 0.21754,1.82128 1.23928,3.74322 2.27053,4.27098 4.40891,2.25631 11.10674,4.9176 12.37641,4.9176 0.75548,0 1.37359,0.52459 1.37359,1.16577 0,0.64117 1.23422,1.55749 2.74272,2.03627 3.01178,0.9559 7.15014,5.33262 7.21569,7.6313 0.0229,0.80207 0.72878,1.68738 1.56868,1.96736 0.96586,0.32195 1.70517,4.03543 2.01162,10.10416 0.2665,5.27733 0.98555,9.59514 1.59791,9.59514 1.53928,0 1.40985,17.16923 -0.13662,18.125 -1.70033,1.05085 -1.70033,67.69915 0,68.75 1.61504,0.99815 1.69125,44.00966 0.079,44.58334 -0.64405,0.22916 -1.56786,6.74478 -2.0529,14.47916 -0.48505,7.73437 -1.36435,14.0625 -1.954,14.0625 -0.58965,0 -1.07209,1.575 -1.07209,3.5 0,1.925 -0.56762,4.06763 -1.26139,4.76139 -0.69376,0.69376 -1.6237,10.22813 -2.06652,21.1875 -0.75835,18.76773 -0.97569,20.08614 -3.73863,22.67892 -1.6134,1.51405 -2.93346,3.537 -2.93346,4.49545 0,0.95845 -0.91582,3.57846 -2.03517,5.82225 -1.87083,3.75015 -2.4,4.0204 -6.55268,3.34652 -2.48462,-0.40319 -4.70942,-1.30885 -4.94399,-2.01256 -0.23458,-0.70371 -1.12533,-1.27947 -1.97945,-1.27947 -1.83966,0 -6.2929,-4.70896 -7.38822,-7.8125 -1.15261,-3.26581 -3.3505,-2.6397 -3.3505,0.95446 0,1.72808 -0.53585,4.1187 -1.19079,5.3125 -0.65494,1.1938 -1.54345,5.96741 -1.97449,10.60804 -0.43103,4.64062 -1.30143,8.4375 -1.93421,8.4375 -0.63278,0 -1.15051,2.48437 -1.15051,5.52084 0,3.03645 -0.54706,5.70832 -1.21569,5.9375 -0.66862,0.22916 -1.59747,4.63541 -2.0641,9.79166 -0.46662,5.15625 -1.36302,9.71244 -1.992,10.12487 -0.62897,0.41243 -1.47256,8.14681 -1.87464,17.1875 -0.40207,9.04069 -1.20862,16.43763 -1.79231,16.43763 -0.5837,0 -1.06126,11.7 -1.06126,26 0,14.41597 -0.51986,26.52907 -1.1668,27.1875 -0.64175,0.65313 -1.56519,8.07812 -2.05209,16.5 -0.4869,8.42187 -1.36809,15.3125 -1.95819,15.3125 -0.59011,0 -1.07292,3.54375 -1.07292,7.875 0,4.33125 -0.56051,8.43551 -1.24558,9.12058 -0.68506,0.68506 -1.61303,6.42256 -2.06217,12.75 C 202.49311,579.82301 201.64737,585 201.06282,585 200.47827,585 200,589.25893 200,594.46429 c 0,9.84542 0.92236,11.96978 5.88032,13.54338 1.45131,0.46062 2.95429,1.65983 3.33997,2.66492 0.38568,1.00507 1.53076,1.82741 2.5446,1.82741 1.01385,0 2.57837,1.03239 3.47673,2.29419 0.89835,1.2618 3.47589,2.65686 5.72784,3.10013 2.25195,0.44328 5.5119,2.22341 7.24431,3.95582 1.73243,1.73242 3.96804,3.14986 4.96804,3.14986 1,0 1.81819,0.5625 1.81819,1.25 0,0.6875 0.7334,1.25 1.62979,1.25 1.91865,0 9.62021,7.64996 9.62021,9.55575 0,0.72145 -1.05035,2.52279 -2.33413,4.00299 -2.03212,2.34306 -3.64937,2.69126 -12.5,2.69126 -5.94391,0 -10.16587,-0.51914 -10.16587,-1.25 0,-0.6875 -1.96875,-1.25 -4.375,-1.25 -2.40625,0 -4.375,-0.51781 -4.375,-1.15067 0,-0.63288 -1.71433,-1.52722 -3.80961,-1.98742 -2.09529,-0.46021 -4.48059,-1.91115 -5.30068,-3.22432 -0.8201,-1.31318 -2.0589,-2.39105 -2.7529,-2.39529 -0.694,-0.004 -2.69631,-0.75632 -4.44959,-1.67131 -1.75326,-0.91499 -6.12816,-2.01185 -9.72197,-2.43749 -9.60238,-1.13726 -10.21525,-2.19291 -10.21525,-17.59544 0,-7.41198 0.54492,-13.4773 1.25,-13.91306 1.62457,-1.00404 1.62457,-8.99596 0,-10 -0.6875,-0.4249 -1.25,-2.08541 -1.25,-3.69004 0,-1.60462 -0.84375,-3.24126 -1.875,-3.637 -1.53309,-0.5883 -1.875,-3.67095 -1.875,-16.90456 0,-11.12416 -0.45131,-16.3355 -1.44333,-16.66617 -1.03913,-0.34638 -1.61261,-12.80213 -2.04786,-44.47917 -0.3325,-24.19894 -1.08925,-43.99806 -1.68167,-43.99806 -0.59243,0 -1.07714,-16.03125 -1.07714,-35.625 0,-22.91666 -0.44591,-35.625 -1.25,-35.625 -0.76088,0 -1.25,-5.625 -1.25,-14.375 0,-15.4331 -0.19259,-15.81861 -6.43165,-12.87425 -3.49513,1.64944 -5.80676,5.91869 -6.92034,12.78086 -0.39881,2.45762 -1.07671,4.46839 -1.50642,4.46839 -0.95122,0 -3.4488,5.62099 -4.58218,10.3125 -0.45674,1.89062 -1.26006,3.4375 -1.78516,3.4375 -0.5251,0 -1.31453,2.25 -1.75426,5 -0.43974,2.75 -1.35539,5 -2.03476,5 -0.67938,0 -1.23523,1.37305 -1.23523,3.05123 0,1.67817 -0.5625,3.39887 -1.25,3.82377 -0.6875,0.4249 -1.25346,1.72372 -1.2577,2.88627 -0.004,1.16255 -0.82695,3.68437 -1.82826,5.60403 -1.00131,1.91966 -2.20399,5.57591 -2.6726,8.125 -0.46863,2.54909 -1.19279,4.91595 -1.60924,5.2597 -1.81136,1.49511 -3.89604,6.52129 -4.64346,11.19541 -0.44454,2.78003 -1.16156,5.05459 -1.59336,5.05459 -0.95446,0 -3.45078,5.61349 -4.58597,10.3125 -0.45674,1.89062 -1.26006,3.4375 -1.78516,3.4375 -0.5251,0 -1.31452,2.25 -1.75426,5 -0.43974,2.75 -1.35539,5 -2.03476,5 -0.67938,0 -1.23523,1.29375 -1.23523,2.875 0,1.58125 -0.57745,3.45245 -1.28322,4.15823 -0.70577,0.70576 -1.62787,4.19326 -2.04911,7.74999 C 107.49643,487.08995 106.66762,490 106.07589,490 105.48415,490 105,491.0918 105,492.42623 c 0,1.33442 -0.51355,2.74362 -1.14123,3.13155 -0.62768,0.38792 -1.5391,3.06022 -2.02536,5.93842 -0.48627,2.8782 -1.66022,6.00918 -2.60877,6.95774 -0.948553,0.94855 -1.72464,2.5282 -1.72464,3.51035 0,0.98213 -0.421875,1.79216 -0.9375,1.80005 -0.515625,0.008 -2.012371,2.25789 -3.326101,5 -1.313731,2.74211 -2.860606,4.98566 -3.4375,4.98566 -0.576895,0 -1.048899,0.81819 -1.048899,1.81819 0,1 -1.338831,3.15701 -2.975181,4.79336 -1.63635,1.63635 -3.404314,4.33379 -3.928809,5.99431 -0.524495,1.66053 -1.960516,3.89621 -3.19116,4.9682 -1.230642,1.07199 -2.617408,3.46262 -3.081701,5.3125 C 75.108856,548.48645 74.288439,550 73.75,550 c -0.538439,0 -1.357736,1.50909 -1.82066,3.35352 -0.462924,1.84443 -2.211404,4.98134 -3.88551,6.97091 C 66.369724,562.31399 65,565.02365 65,566.34591 c 0,1.32225 -0.5625,2.40409 -1.25,2.40409 -0.6875,0 -1.25,0.84375 -1.25,1.875 0,1.03125 -0.5625,1.875 -1.25,1.875 -0.6875,0 -1.25,1.62732 -1.25,3.61626 0,2.06135 -0.806213,3.92564 -1.875,4.33578 -2.180497,0.83672 -2.57751,7.85546 -0.48382,8.55335 2.003284,0.66776 2.160025,15.01297 0.17132,15.67936 -0.859375,0.28797 -1.5625,1.32046 -1.5625,2.29441 0,0.97396 -0.84375,1.77084 -1.875,1.77084 -1.03125,0 -1.875,0.51781 -1.875,1.15067 0,0.63288 -1.6875,1.52133 -3.75,1.97433 C 46.6875,612.328 45,613.21645 45,613.84933 45,614.48219 43.03125,615 40.625,615 c -3.055555,0 -4.375,0.56547 -4.375,1.875 0,1.03125 -0.84375,1.875 -1.875,1.875 -1.166666,0 -1.875,1.18055 -1.875,3.125 0,1.71875 -0.50152,3.125 -1.11449,3.125 -0.61297,0 -1.467436,1.40625 -1.898815,3.125 -0.431379,1.71875 -1.336109,3.125 -2.01051,3.125 -0.674401,0 -1.226185,1.40625 -1.226185,3.125 0,1.71875 -0.5625,3.125 -1.25,3.125 -0.6875,0 -1.25,0.83941 -1.25,1.86536 0,1.02594 -1.6875,3.36893 -3.75,5.20662 -2.20189,1.9619 -3.75,4.58292 -3.75,6.34893 0,1.65422 -0.803571,3.81123 -1.785714,4.79338 -2.288021,2.28802 -10.8625106,2.23213 -12.901786,-0.0841 z M 240.84995,340.3125 c 0.42432,-1.20313 2.23479,-3.50122 4.02327,-5.10689 l 3.25178,-2.91939 -0.37943,-25.20561 c -0.21611,-14.35707 -0.88862,-25.38495 -1.5625,-25.62227 C 245.53239,281.22916 245,276.02604 245,269.89584 245,263.76562 244.50652,258.75 243.90337,258.75 c -0.60313,0 -1.51064,-14.90625 -2.01669,-33.125 -0.50604,-18.21875 -1.34993,-33.125 -1.87532,-33.125 -2.10743,0 -3.88668,3.81369 -4.6037,9.86765 -0.41574,3.5103 -1.18481,6.38235 -1.70904,6.38235 -0.52423,0 -1.34498,3.37601 -1.82388,7.50224 -0.4789,4.12623 -1.37788,7.81568 -1.99774,8.19877 -1.47514,0.91169 -1.46909,27.69003 0.006,28.60198 0.62341,0.38528 1.53405,6.04348 2.02365,12.57376 0.4896,6.53029 1.38577,11.87325 1.99152,11.87325 0.60574,0 1.10135,6.1875 1.10135,13.75 0,8.33334 -0.49242,13.75 -1.25,13.75 -0.70512,0 -1.25,3.54166 -1.25,8.125 0,4.46875 0.51452,8.125 1.14335,8.125 0.62884,0 1.54108,4.35937 2.02719,9.6875 0.48612,5.32812 1.1298,10.10937 1.43043,10.625 0.96876,1.66164 2.95576,0.99913 3.74898,-1.25 z M 126.69179,253.98906 c 0.88506,-5.53489 4.22148,-12.73906 5.89976,-12.73906 0.63715,0 1.15845,-1.07813 1.15845,-2.39584 0,-1.3177 0.58956,-2.59235 1.31014,-2.83254 0.72056,-0.24018 1.64471,-3.67856 2.05365,-7.64081 0.40895,-3.96226 1.22563,-7.50206 1.81487,-7.86622 1.4161,-0.87522 1.3913,-28.01459 -0.0256,-28.01459 -2.14135,0 -3.63468,3.21096 -4.50539,9.6875 -0.48523,3.60937 -1.33674,6.5625 -1.89222,6.5625 -0.55549,0 -1.4018,3.37601 -1.8807,7.50224 -0.4789,4.12623 -1.37788,7.81568 -1.99774,8.19877 -0.61985,0.38309 -1.127,2.91334 -1.127,5.62276 0,2.70943 -0.50395,4.92623 -1.1199,4.92623 -0.61594,0 -1.51824,4.5 -2.0051,10 -0.48686,5.5 -1.38916,10 -2.0051,10 -0.61594,0 -1.1199,0.84375 -1.1199,1.875 0,1.03125 1.05311,1.875 2.34024,1.875 1.74411,0 2.53417,-1.21276 3.10155,-4.76094 z"
       id="path3424"
       inkscape:connector-curvature="0" />
    <path
       style="fill:#ac54aa"
       d="m 1.5625,655.63021 c -1.92567124,-2.18718 -2.07872959,-13.9998 -0.1895576,-14.62952 0.7551184,-0.25171 1.653986,-3.25171 1.9974837,-6.66666 C 4.0306742,627.77001 6.2332142,621.25 7.7903672,621.25 c 0.5115489,0 1.2898784,-2.25 1.7296211,-5 0.4397427,-2.75 1.2114447,-5 1.7148937,-5 0.503448,0 1.223351,-2.98414 1.599784,-6.63143 0.376433,-3.64727 1.794155,-8.60719 3.150494,-11.02204 1.356339,-2.41485 2.859237,-6.18072 3.339775,-8.36858 0.480536,-2.18788 1.258816,-3.97795 1.729509,-3.97795 1.227892,0 5.195556,-9.55236 5.195556,-12.50858 0,-1.37028 0.50152,-2.49142 1.11449,-2.49142 0.61297,0 1.488184,-1.54688 1.944922,-3.4375 1.135188,-4.69901 3.631506,-10.3125 4.585967,-10.3125 0.431805,0 1.14489,-2.25 1.584632,-5 0.439744,-2.75 1.291518,-5 1.892832,-5 0.601313,0 1.470916,-2.51814 1.932449,-5.59586 0.461534,-3.07773 1.369152,-5.92343 2.01693,-6.32378 C 41.97,530.18001 42.5,528.4794 42.5,526.80123 c 0,-1.67818 0.517806,-3.05123 1.150681,-3.05123 0.632874,0 1.548149,-1.80966 2.033944,-4.02148 0.485795,-2.21179 1.308611,-4.88367 1.82848,-5.9375 2.26113,-4.58348 3.644995,-8.43968 4.388415,-12.22852 C 52.339935,499.32812 53.216445,497.5 53.849319,497.5 54.482194,497.5 55,496.20126 55,494.61391 c 0,-1.58735 0.82586,-3.97797 1.835246,-5.3125 1.009385,-1.33452 1.853135,-3.69204 1.875,-5.23891 0.02186,-1.54688 0.55756,-2.8125 1.190435,-2.8125 0.632874,0 1.521318,-1.6875 1.974319,-3.75 0.453001,-2.0625 1.341445,-3.75 1.974319,-3.75 0.632875,0 1.150681,-1.16517 1.150681,-2.58929 0,-1.4241 0.84375,-3.43304 1.875,-4.46429 1.03125,-1.03125 1.875,-4.08481 1.875,-6.78571 0,-2.70089 0.498631,-4.91071 1.10807,-4.91071 0.609439,0 1.487655,-2.53125 1.951591,-5.625 0.463937,-3.09375 1.371555,-5.625 2.01693,-5.625 0.645375,0 1.173409,-1.29375 1.173409,-2.875 0,-1.58125 0.623108,-3.49811 1.384685,-4.25969 0.761576,-0.76157 1.682337,-5.09282 2.046138,-9.625 0.363798,-4.53217 1.09953,-8.24031 1.634957,-8.24031 0.535427,0 1.375311,-6.19951 1.866409,-13.77669 0.491097,-7.57717 1.382257,-14.07912 1.980357,-14.44877 C 84.510646,390.1549 85,387.3544 85,384.30123 c 0,-3.05318 0.503955,-5.55123 1.119899,-5.55123 0.615945,0 1.51824,-4.5 2.005101,-10 0.486861,-5.5 1.389156,-10 2.005101,-10 0.615944,0 1.119899,-1.40625 1.119899,-3.125 0,-1.71875 0.523842,-3.125 1.164095,-3.125 0.640253,0 1.556636,-4.5 2.036407,-10 0.479772,-5.5 1.362179,-10 1.960904,-10 0.598727,0 1.088594,-7.03125 1.088594,-15.625 0,-9.58334 -0.483334,-15.625 -1.25,-15.625 -1.590644,0 -1.708786,-46.51685 -0.122388,-48.1875 0.620188,-0.65313 1.339247,-5.64594 1.597908,-11.09514 0.300326,-6.32692 1.022199,-10.0916 1.997386,-10.41666 0.850914,-0.28364 1.527094,-2.64419 1.527094,-5.3311 0,-2.65213 0.50247,-5.1326 1.11661,-5.51216 0.61414,-0.37955 1.51791,-5.7604 2.00839,-11.95744 0.49048,-6.19704 1.39425,-11.57789 2.00839,-11.95744 0.61414,-0.37956 1.11661,-3.75066 1.11661,-7.49134 0,-3.74067 0.48244,-6.80122 1.07209,-6.80122 0.58965,0 1.47192,-6.31874 1.96061,-14.04164 0.48868,-7.7229 1.37586,-14.34283 1.97151,-14.71096 0.59565,-0.36814 1.47334,-3.6119 1.95043,-7.20836 C 114.93173,142.94256 115.6748,140 116.1059,140 c 0.4311,0 1.56998,-1.82813 2.53085,-4.0625 2.67419,-6.21853 10.6297,-12.1875 16.24361,-12.1875 1.4408,0 2.61964,-0.5625 2.61964,-1.25 0,-0.6875 1.75386,-1.25 3.89748,-1.25 3.72414,0 8.30704,-2.99515 15.79002,-10.31953 4.20213,-4.11306 3.50142,-6.50954 -4.0625,-13.894357 -3.78125,-3.691712 -6.875,-7.125758 -6.875,-7.631213 0,-0.789852 -1.96566,-3.479889 -7.51884,-10.289642 C 138.05402,78.2849 137.5,77.015555 137.5,76.294491 137.5,75.573428 136.11589,73.78 134.4242,72.309095 132.4376,70.58177 131.0594,67.707479 130.53227,64.192363 130.0834,61.199062 129.21751,58.75 128.60807,58.75 127.99864,58.75 127.5,56.763596 127.5,54.335769 c 0,-2.770648 -0.69814,-4.68213 -1.875,-5.133736 C 123.59995,48.424948 122.87353,38.75 124.84024,38.75 c 0.59964,0 1.45003,-2.25 1.88977,-5 0.43974,-2.75 1.35539,-5 2.03476,-5 0.67938,0 1.23523,-0.618115 1.23523,-1.373589 0,-1.67286 3.91835,-10.256862 5.0789,-11.126411 0.45877,-0.34375 1.21999,-1.861851 1.69156,-3.37356 0.47158,-1.511707 2.09428,-3.1390459 3.60598,-3.616308 1.51171,-0.477262 3.59523,-1.8395776 4.63005,-3.0273679 1.03482,-1.1877903 4.2692,-2.563019 7.1875,-3.0560637 C 155.1123,2.6836556 157.5,1.767198 157.5,1.1401277 157.5,0.51305747 161.15625,0 165.625,0 c 4.58334,0 8.125,0.5448718 8.125,1.25 0,0.6875 0.77487,1.25 1.72195,1.25 0.94706,0 2.42219,0.84375 3.27805,1.875 0.85586,1.03125 2.89349,1.875 4.52805,1.875 1.63458,0 2.97195,0.5625 2.97195,1.25 0,0.6875 1.36964,1.25 3.04362,1.25 4.56995,0 9.41572,2.185125 10.35347,4.66874 0.45816,1.213442 2.44543,3.829346 4.41617,5.813117 3.11938,3.140025 5.23998,6.980783 9.74131,17.643143 0.58049,1.375 1.42097,5.453125 1.86773,9.0625 0.44676,3.609375 1.25012,6.5625 1.78524,6.5625 0.53511,0 1.33273,2.25 1.77247,5 0.43974,2.75 1.35539,5 2.03476,5 0.67938,0 1.23523,1.125 1.23523,2.5 0,1.375 0.48844,2.5 1.08541,2.5 0.59698,0 1.39808,2.331068 1.78021,5.18015 0.38215,2.849083 1.15934,5.520958 1.72709,5.9375 C 230.57054,81.169204 232.94346,92.5 230,92.5 c -0.6875,0 -1.25,1.125 -1.25,2.5 0,1.375 0.50152,2.5 1.11449,2.5 0.61297,0 1.46743,1.40625 1.89881,3.125 0.43139,1.71875 1.33611,3.125 2.01051,3.125 0.6744,0 1.22619,0.77488 1.22619,1.72194 0,0.94707 0.80997,2.39417 1.79996,3.21578 0.98998,0.82161 1.97435,2.66116 2.1875,4.0879 0.21314,1.42673 1.23129,3.02657 2.26254,3.5552 3.49974,1.79398 10.99902,4.91918 11.80418,4.91918 0.44073,0 1.48072,0.56862 2.31108,1.2636 0.83035,0.69499 2.99643,2.37597 4.81348,3.73551 5.34406,3.9985 8.57126,11.54362 8.57126,20.03938 0,4.14101 0.55628,7.46151 1.25,7.46151 0.71429,0 1.25,3.75 1.25,8.75 0,5 -0.53571,8.75 -1.25,8.75 -0.80358,0 -1.25,12.5 -1.25,35 0,22.5 0.44642,35 1.25,35 0.78571,0 1.25,8.125 1.25,21.875 0,12.40769 -0.49539,21.875 -1.14464,21.875 -0.62956,0 -1.54645,6.19951 -2.03755,13.77669 -0.4911,7.57717 -1.38226,14.07912 -1.98036,14.44877 -0.5981,0.36964 -1.08745,2.27951 -1.08745,4.24414 0,1.96464 -0.55557,3.75956 -1.23461,3.98874 -0.69961,0.2361 -1.59504,9.3542 -2.06635,21.04166 -0.78583,19.48646 -0.99369,20.77696 -3.76539,23.37781 -1.61351,1.51405 -2.93365,3.537 -2.93365,4.49545 0,0.95845 -0.91583,3.57846 -2.03518,5.82225 -1.87082,3.75015 -2.39999,4.0204 -6.55267,3.34652 -2.48463,-0.40319 -4.70943,-1.30885 -4.94399,-2.01256 -0.23457,-0.70371 -1.12532,-1.27947 -1.97944,-1.27947 -1.83966,0 -6.2929,-4.70896 -7.38822,-7.8125 -1.23801,-3.50779 -3.3505,-2.52263 -3.3505,1.5625 0,2.0625 -0.47996,3.75 -1.06658,3.75 -0.58662,0 -1.43465,4.35937 -1.88452,9.6875 -0.44986,5.32812 -1.37615,9.875 -2.05841,10.10416 -0.68228,0.22918 -1.24049,2.5073 -1.24049,5.0625 0,2.55521 -0.54664,5.19248 -1.21476,5.8606 -0.66813,0.66813 -1.59697,5.42125 -2.0641,10.5625 -0.46714,5.14125 -1.36395,9.68518 -1.99293,10.09761 -0.62897,0.41243 -1.47256,8.14681 -1.87464,17.1875 -0.40207,9.04069 -1.20862,16.43763 -1.79231,16.43763 -0.5837,0 -1.06126,11.7 -1.06126,26 0,14.41597 -0.51986,26.52907 -1.1668,27.1875 -0.64175,0.65313 -1.56519,8.07812 -2.05209,16.5 -0.4869,8.42187 -1.36809,15.3125 -1.95819,15.3125 -0.59011,0 -1.07292,3.65625 -1.07292,8.125 0,4.46875 -0.512,8.125 -1.13779,8.125 -0.62579,0 -1.49496,4.92187 -1.9315,10.9375 -0.43655,6.01562 -1.33079,11.91424 -1.98721,13.10804 -1.92246,3.49625 -1.4825,19.59403 0.59221,21.66875 0.98215,0.98213 2.30121,1.78571 2.93127,1.78571 0.63006,0 2.16366,1.125 3.40802,2.5 1.24436,1.375 2.98714,2.5 3.87285,2.5 0.88571,0 2.34541,1.03239 3.24377,2.29419 0.89835,1.2618 3.47589,2.65686 5.72784,3.10013 2.25195,0.44328 5.5119,2.2234 7.24431,3.95582 1.73243,1.73242 3.96804,3.14986 4.96804,3.14986 1,0 1.81819,0.5625 1.81819,1.25 0,0.6875 0.71997,1.25 1.59994,1.25 1.7972,0 9.65006,7.89437 9.65006,9.70107 0,0.64152 -1.05035,2.37747 -2.33413,3.85767 -2.03212,2.34306 -3.64937,2.69126 -12.5,2.69126 -5.94391,0 -10.16587,-0.51914 -10.16587,-1.25 0,-0.6875 -1.96875,-1.25 -4.375,-1.25 -2.40625,0 -4.375,-0.50153 -4.375,-1.11449 0,-0.61297 -1.51355,-1.49436 -3.36344,-1.95866 -1.84989,-0.46429 -4.27385,-1.89387 -5.38656,-3.17685 -1.11271,-1.28298 -3.53668,-2.71256 -5.38656,-3.17685 C 196.51355,631.35885 195,630.55559 195,630.0381 c 0,-0.51749 -3.36053,-1.2456 -7.46784,-1.61804 -10.66811,-0.96735 -11.28216,-1.927 -11.28216,-17.632 0,-7.41198 0.54492,-13.4773 1.25,-13.91306 1.63016,-1.0075 1.63016,-10.625 0,-10.625 -0.6875,0 -1.25,-1.34608 -1.25,-2.99126 0,-1.6452 -0.84375,-3.31504 -1.875,-3.71078 -1.53309,-0.5883 -1.875,-3.67095 -1.875,-16.90456 0,-11.12416 -0.45131,-16.3355 -1.44333,-16.66617 -1.03913,-0.34638 -1.61261,-12.80213 -2.04786,-44.47917 -0.3325,-24.19894 -1.08925,-43.99806 -1.68167,-43.99806 -0.59243,0 -1.07714,-16.03125 -1.07714,-35.625 0,-22.91666 -0.44591,-35.625 -1.25,-35.625 -0.76088,0 -1.25,-5.625 -1.25,-14.375 l 0,-14.375 -3.125,0 c -1.71875,0 -3.125,0.5625 -3.125,1.25 0,0.6875 -0.84375,1.25 -1.875,1.25 -1.03125,0 -1.875,0.84375 -1.875,1.875 0,1.03125 -0.50971,1.875 -1.1327,1.875 -0.62299,0 -1.51952,2.8125 -1.9923,6.25 -0.47278,3.4375 -1.36931,6.25 -1.9923,6.25 -0.62299,0 -1.1327,0.84375 -1.1327,1.875 0,1.03125 -0.49061,1.875 -1.09024,1.875 -0.59964,0 -1.45004,2.25 -1.88977,5 -0.43974,2.75 -1.28349,5 -1.875,5 -0.59152,0 -1.43527,2.25 -1.875,5 -0.43974,2.75 -1.35539,5 -2.03476,5 -0.67938,0 -1.23523,1.40625 -1.23523,3.125 0,1.71875 -0.49061,3.125 -1.09024,3.125 -0.59964,0 -1.45004,2.25 -1.88977,5 -0.43974,2.75 -1.28349,5 -1.875,5 -0.59152,0 -1.43919,2.27456 -1.88373,5.05459 -0.74742,4.67412 -2.8321,9.7003 -4.64346,11.19541 -0.41645,0.34375 -1.15806,2.80362 -1.64801,5.46639 -0.83761,4.55226 -2.89593,9.37541 -4.60199,10.78361 -0.41645,0.34375 -1.14507,2.73437 -1.61914,5.3125 -0.47407,2.57812 -1.32706,4.6875 -1.89554,4.6875 -0.56848,0 -1.39339,2.25 -1.83313,5 -0.43975,2.75 -1.35539,5 -2.03476,5 -0.67938,0 -1.23523,1.40625 -1.23523,3.125 0,1.71875 -0.50972,3.125 -1.1327,3.125 -0.62299,0 -1.53578,2.93067 -2.02842,6.51263 -0.49264,3.58193 -1.38918,7.51943 -1.9923,8.75 -0.60312,1.23054 -1.6485,3.33781 -2.32308,4.68278 -0.67457,1.34497 -1.59021,4.71997 -2.03476,7.5 -0.44454,2.78003 -1.20837,5.05459 -1.6974,5.05459 -0.489025,0 -1.964008,2.24355 -3.277739,4.98566 -1.31373,2.74212 -2.749496,4.99212 -3.190591,5 -0.441095,0.007 -1.154936,1.42059 -1.586315,3.13934 -0.431379,1.71875 -1.336109,3.125 -2.01051,3.125 -0.674401,0 -1.226185,0.7457 -1.226185,1.65711 0,0.9114 -1.40625,2.9782 -3.125,4.59289 -1.71875,1.61469 -3.125,3.63832 -3.125,4.49699 0,0.85866 -1.369724,3.18902 -3.04383,5.17859 -1.674106,1.98956 -3.422586,5.12647 -3.88551,6.9709 C 75.107736,548.49091 74.272153,550 73.713809,550 c -0.558344,0 -1.3917,1.71433 -1.851902,3.80961 -0.460202,2.09529 -1.911145,4.48059 -3.224318,5.30068 C 67.324415,559.93039 66.25,561.0247 66.25,561.54211 66.25,563.45242 61.878191,572.5 60.955125,572.5 60.429806,572.5 60,574.1875 60,576.25 c 0,2.5 -0.625,3.75 -1.875,3.75 -2.23979,0 -2.684204,8.27194 -0.48382,9.00539 2.003284,0.66776 2.160025,15.01297 0.17132,15.67936 -0.859375,0.28798 -1.569894,1.17984 -1.57893,1.98191 -0.02072,1.83979 -13.406809,8.33765 -17.17107,8.33519 -1.667488,-10e-4 -2.8125,0.76149 -2.8125,1.87315 0,1.03125 -0.84375,1.875 -1.875,1.875 -1.166666,0 -1.875,1.18055 -1.875,3.125 0,1.71875 -0.5625,3.125 -1.25,3.125 -0.6875,0 -1.25,0.77487 -1.25,1.72195 0,0.94706 -0.84375,2.42219 -1.875,3.27805 -1.03125,0.85586 -1.875,2.89349 -1.875,4.52805 0,1.63457 -0.5625,2.97195 -1.25,2.97195 -0.6875,0 -1.25,0.75077 -1.25,1.66837 0,0.91762 -1.6875,3.17195 -3.75,5.00965 -2.322659,2.06949 -3.75,4.56103 -3.75,6.5459 0,1.76257 -0.803571,4.00822 -1.785714,4.99037 -2.288021,2.28802 -10.8625106,2.23213 -12.901786,-0.0841 z M 241.25,340.3523 c 0,-1.18124 1.54687,-3.47934 3.4375,-5.10689 l 3.4375,-2.95919 -0.37943,-25.20561 c -0.21611,-14.35707 -0.88862,-25.38495 -1.5625,-25.62227 C 245.53239,281.22916 245,276.05924 245,269.9696 c 0,-6.08963 -0.49589,-11.37853 -1.10196,-11.75311 -0.60608,-0.37458 -1.51622,-15.31402 -2.02254,-33.19876 -0.50631,-17.88475 -1.27606,-32.50912 -1.71054,-32.49859 -2.37684,0.0576 -3.76583,2.51855 -4.57509,8.10586 -0.49788,3.4375 -1.34257,6.8125 -1.87708,7.5 -0.53453,0.6875 -1.37305,4.49181 -1.86342,8.45402 -0.49036,3.9622 -1.38832,7.51103 -1.99546,7.88627 -1.45937,0.90193 -1.43166,27.68461 0.0296,28.5877 0.62341,0.38528 1.53405,6.04348 2.02365,12.57376 0.4896,6.53029 1.38577,11.87325 1.99152,11.87325 0.60574,0 1.10135,6.1875 1.10135,13.75 0,8.33334 -0.49242,13.75 -1.25,13.75 -1.57655,0 -1.66897,15.84351 -0.0981,16.81438 0.63356,0.39156 1.51722,4.50288 1.9637,9.13627 0.44648,4.63339 1.03547,9.12747 1.30886,9.98685 0.75012,2.35797 4.32552,1.87425 4.32552,-0.5852 z M 126.80966,253.125 c 0.46394,-3.09375 1.37155,-5.625 2.01693,-5.625 0.64537,0 1.17341,-1.09705 1.17341,-2.43789 0,-1.34083 0.70313,-2.88771 1.5625,-3.4375 2.83329,-1.8126 4.88946,-6.83131 5.59347,-13.65255 0.38159,-3.69714 1.17759,-6.72206 1.7689,-6.72206 0.59133,0 1.07513,-6.46875 1.07513,-14.375 0,-7.90625 -0.42188,-14.36639 -0.9375,-14.35586 -2.44394,0.0499 -3.74538,2.3593 -4.49691,7.97975 -0.45038,3.36813 -1.32642,6.74313 -1.94675,7.5 -0.62035,0.75686 -1.5291,4.61792 -2.01947,8.58014 -0.49036,3.9622 -1.38832,7.51102 -1.99546,7.88626 -0.60715,0.37524 -1.10391,2.58461 -1.10391,4.90971 0,2.3251 -0.49565,4.53379 -1.10145,4.90819 -0.6058,0.37441 -1.49719,4.90385 -1.98087,10.06543 -0.48368,5.16158 -1.39427,9.70289 -2.02355,10.0918 -2.05663,1.27108 -1.20073,4.30958 1.21394,4.30958 1.83646,0 2.54467,-1.24429 3.20159,-5.625 z"
       id="path3422"
       inkscape:connector-curvature="0" />
    <path
       style="fill:#a03b9e"
       d="M 1.5625,655.63021 C -0.28987111,653.52627 -0.55665001,641.25 1.25,641.25 c 0.6875,0 1.25,-0.84375 1.25,-1.875 0,-1.03125 0.4948926,-1.875 1.0997614,-1.875 0.6048687,0 1.3517223,-3.48332 1.6596748,-7.74073 0.3147769,-4.35175 1.2023214,-7.95486 2.0272298,-8.22982 0.8070239,-0.26901 1.8195623,-2.69194 2.2500854,-5.38428 0.430523,-2.69234 1.2733766,-4.89517 1.8730086,-4.89517 0.599632,0 1.09024,-2.25 1.09024,-5 0,-2.75 0.490607,-5 1.09024,-5 0.599631,0 1.450029,-2.25 1.889771,-5 0.439744,-2.75 1.283494,-5 1.875,-5 0.591508,0 1.435258,-2.25 1.875,-5 0.439744,-2.75 1.222691,-5 1.739887,-5 0.997478,0 5.280102,-9.14544 5.280102,-11.27554 0,-1.35907 2.646571,-6.45456 3.882196,-7.47446 0.416459,-0.34375 1.145073,-2.73438 1.619143,-5.3125 0.474069,-2.57813 1.327064,-4.6875 1.895542,-4.6875 0.568479,0 1.393388,-2.25 1.83313,-5 0.439744,-2.75 1.355385,-5 2.034761,-5 0.679375,0 1.235228,-1.40625 1.235228,-3.125 0,-1.71875 0.490608,-3.125 1.09024,-3.125 0.599631,0 1.453957,-2.27456 1.898501,-5.05459 0.753933,-4.71483 2.85358,-9.7476 4.670675,-11.19541 0.43143,-0.34375 1.183499,-3.01268 1.671266,-5.93095 0.487767,-2.91827 1.400404,-5.62335 2.028083,-6.01127 0.62768,-0.38793 1.141235,-1.57149 1.141235,-2.63014 0,-1.05865 0.84375,-3.83795 1.875,-6.17623 1.03125,-2.33827 2.71875,-6.16455 3.75,-8.50282 1.03125,-2.33828 1.875,-4.75739 1.875,-5.37579 0,-1.8939 3.067456,-7.85269 4.047727,-7.86305 0.507502,-0.005 1.276965,-2.22503 1.709922,-4.93259 0.432956,-2.70756 1.564604,-5.22115 2.514772,-5.58576 1.020544,-0.39163 1.727579,-2.47646 1.727579,-5.09413 0,-2.43716 0.5625,-5.54856 1.25,-6.91423 0.6875,-1.36568 1.77402,-3.53879 2.41449,-4.82915 0.640469,-1.29037 1.565355,-4.52474 2.055302,-7.1875 0.489948,-2.66277 1.383992,-5.16314 1.986766,-5.55639 0.602772,-0.39325 1.448418,-4.48949 1.879212,-9.10276 0.430794,-4.61328 1.26273,-8.6841 1.848746,-9.04628 C 80.770533,418.89879 81.25,416.1376 81.25,413.125 c 0,-3.0126 0.489354,-5.7799 1.087454,-6.14954 0.5981,-0.36965 1.48926,-6.8716 1.980357,-14.44877 0.491098,-7.57718 1.407993,-13.77669 2.037547,-13.77669 0.629553,0 1.144642,-2.2168 1.144642,-4.92623 0,-2.70942 0.48842,-5.22808 1.085377,-5.59703 0.596958,-0.36894 1.468641,-4.05839 1.937072,-8.19877 0.46843,-4.14038 1.347603,-7.52797 1.953717,-7.52797 0.606114,0 1.494565,-4.5 1.974336,-10 0.479772,-5.5 1.362179,-10 1.960904,-10 1.538649,0 1.382071,-30.92108 -0.161406,-31.875 C 95.489784,300.15516 95,290.82035 95,276.80122 95,262.26707 95.461856,253.75 96.25,253.75 c 0.720974,0 1.25,-3.92361 1.25,-9.27084 0,-5.7651 0.532634,-9.44837 1.408541,-9.74034 0.774698,-0.25823 1.690019,-3.39886 2.034039,-6.97917 0.34402,-3.5803 1.11643,-6.50965 1.71646,-6.50965 0.60003,0 1.09096,-2.8125 1.09096,-6.25 0,-3.4375 0.50837,-6.25 1.12971,-6.25 0.62134,0 1.53228,-5.90625 2.02432,-13.125 0.49203,-7.21875 1.30706,-13.125 1.81118,-13.125 0.50412,0 1.30744,-6.0455 1.78514,-13.43445 0.47771,-7.38896 1.40431,-13.97021 2.05911,-14.625 0.6548,-0.6548 1.19054,-2.4843 1.19054,-4.06555 0,-1.58125 0.48844,-2.875 1.08541,-2.875 0.59698,0 1.40445,-2.37853 1.79437,-5.28562 0.38992,-2.90709 1.30773,-5.48522 2.03958,-5.72917 0.73185,-0.24395 1.33064,-1.15435 1.33064,-2.02311 0,-1.76799 4.16502,-6.9621 5.58271,-6.9621 0.96397,0 8.53194,-3.16349 12.21283,-5.10508 1.1938,-0.62971 3.49723,-1.14492 5.11876,-1.14492 1.62152,0 3.96634,-1.125 5.2107,-2.5 1.24436,-1.375 2.74291,-2.5 3.33011,-2.5 2.29713,0 8.54489,-7.30057 8.54489,-9.98478 0,-1.79443 -2.52975,-5.30898 -6.875,-9.551333 -3.78125,-3.691712 -6.875,-7.556332 -6.875,-8.588046 0,-1.031712 -0.58015,-1.875841 -1.28923,-1.875841 -0.70908,0 -1.64856,-0.984375 -2.08775,-2.1875 -0.43917,-1.203125 -1.9684,-3.683879 -3.39826,-5.512786 C 133.36755,70.738134 132.5,69.407733 132.5,67.8538 c 0,-0.900748 -0.5625,-2.75509 -1.25,-4.120761 -0.6875,-1.365672 -1.8125,-3.600407 -2.5,-4.966078 -0.6875,-1.365671 -1.25,-3.914575 -1.25,-5.664231 0,-1.749655 -0.84375,-3.504969 -1.875,-3.900698 C 123.59995,48.424948 122.87353,38.75 124.84024,38.75 c 0.59964,0 1.45003,-2.25 1.88977,-5 0.43974,-2.75 1.22269,-5 1.73989,-5 0.99304,0 5.2801,-9.141156 5.2801,-11.258575 0,-0.682784 0.42911,-1.241425 0.95359,-1.241425 0.52447,0 1.50885,-1.219615 2.1875,-2.710256 0.67865,-1.49064 2.33516,-3.318765 3.68112,-4.0624996 C 141.91818,8.73351 143.78647,7.421875 144.724,6.5625 145.66151,5.703125 147.4802,5 148.76551,5 c 1.28533,0 2.68459,-0.5625 3.10949,-1.25 0.4249,-0.6875 2.1456,-1.25 3.82377,-1.25 1.67818,0 3.05123,-0.5625 3.05123,-1.25 0,-0.69444445 3.33334,-1.25 7.5,-1.25 4.125,0 7.5,0.49689486 7.5,1.1042108 0,0.6073159 0.98437,1.4347352 2.1875,1.8387095 1.20312,0.4039742 3.03125,1.2481412 4.0625,1.8759267 3.28632,2.0005914 8.00091,3.70726 12.26005,4.4381123 C 196.33825,9.9567653 200,12.520896 200,14.67685 c 0,0.607982 1.6875,2.72215 3.75,4.69815 2.0625,1.976 3.75,4.331239 3.75,5.233864 0,0.902625 0.42187,1.645525 0.9375,1.650888 1.58804,0.01653 4.12764,6.57465 4.83676,12.490248 0.63325,5.28255 1.76724,8.925988 4.37158,14.045539 0.60728,1.193796 1.12325,2.881296 1.14657,3.75 0.0233,0.868703 1.12924,3.829461 2.45759,6.579461 1.32835,2.75 2.43426,6.546875 2.45759,8.4375 0.0234,1.890625 0.47221,3.4375 0.99753,3.4375 2.31424,0 5.22234,10.176902 4.95181,17.328853 -0.24105,6.372319 0.12585,7.807107 2.53057,9.896127 1.54688,1.34379 2.8125,3.01153 2.8125,3.70608 0,0.69456 0.81036,1.93537 1.8008,2.75736 0.99044,0.82199 1.97481,3.00024 2.1875,4.84056 0.30078,2.60252 1.15053,3.43391 3.8242,3.74155 1.89063,0.21754 3.4375,0.92066 3.4375,1.5625 0,0.64183 1.08184,1.16697 2.40409,1.16697 1.32226,0 4.07533,1.40625 6.11795,3.125 2.04262,1.71875 4.21076,3.125 4.81811,3.125 1.7461,0 5.27686,4.65989 6.14174,8.10586 0.43402,1.72928 1.29065,3.14414 1.90362,3.14414 0.61296,0 1.11449,3.65625 1.11449,8.125 0,4.58334 0.54487,8.125 1.25,8.125 0.71429,0 1.25,3.75 1.25,8.75 0,5 -0.53571,8.75 -1.25,8.75 -0.80358,0 -1.25,12.5 -1.25,35 0,22.5 0.44642,35 1.25,35 0.78571,0 1.25,8.125 1.25,21.875 0,13.75 -0.46429,21.875 -1.25,21.875 -0.6875,0 -1.25,2.8125 -1.25,6.25 0,3.4375 -0.47924,6.25 -1.06498,6.25 -0.58573,0 -1.39868,5.15089 -1.80655,11.44642 -0.40787,6.29554 -1.34597,11.81997 -2.08467,12.27652 -0.8135,0.50276 -1.65731,8.92762 -2.13998,21.36606 -0.75625,19.48914 -0.94616,20.66547 -3.72535,23.0758 -1.61066,1.39689 -2.92847,3.78751 -2.92847,5.3125 0,1.52499 -0.50153,2.7727 -1.11449,2.7727 -0.61297,0 -1.46744,1.40625 -1.89881,3.125 -0.57296,2.28284 -1.62008,3.125 -3.88551,3.125 C 246.39554,380 245,379.49847 245,378.88551 c 0,-0.61297 -1.4742,-1.48449 -3.276,-1.93671 -3.62465,-0.90974 -5.07578,-2.17445 -8.33153,-7.2613 -2.86903,-4.48265 -4.64247,-4.36327 -4.64247,0.3125 0,2.0625 -0.5625,3.75 -1.25,3.75 -0.6875,0 -1.25,2.8125 -1.25,6.25 0,3.4375 -0.51772,6.25 -1.15051,6.25 -0.63278,0 -1.54484,3.79687 -2.02682,8.4375 -0.48197,4.64062 -1.35738,9.04184 -1.94536,9.78048 -0.58797,0.73863 -1.44584,5.39701 -1.90635,10.35193 -0.46051,4.95493 -1.31736,9.30565 -1.90412,9.66829 -0.58677,0.36264 -1.06684,2.82927 -1.06684,5.4814 0,2.65214 -0.58078,5.01566 -1.29061,5.25227 -0.82605,0.27535 -1.573,14.03594 -2.07514,38.22917 -0.4315,20.78942 -1.25698,37.79896 -1.83439,37.79896 -0.57742,0 -1.04986,3.06055 -1.04986,6.80123 0,3.74067 -0.48966,7.10386 -1.08814,7.47373 -0.59846,0.36988 -1.49989,8.13745 -2.00315,17.26128 -0.50325,9.12381 -1.39014,16.88485 -1.97085,17.24674 -0.58071,0.36188 -1.4475,5.84626 -1.9262,12.1875 -0.4787,6.34123 -1.37405,11.52952 -1.98967,11.52952 -0.61563,0 -0.9568,4.90691 -0.75815,10.90426 0.31507,9.51269 0.68594,11.06803 2.90608,12.1875 1.39971,0.70578 3.88949,2.54243 5.53285,4.08144 1.64337,1.53901 4.01378,3.1238 5.26759,3.52174 1.2538,0.39794 2.27964,1.24812 2.27964,1.8893 0,0.64116 1.40625,1.16576 3.125,1.16576 1.71875,0 3.125,0.5625 3.125,1.25 0,0.6875 0.77487,1.25 1.72195,1.25 0.94706,0 2.4308,0.85412 3.2972,1.89806 0.86639,1.04394 3.60039,2.85906 6.07554,4.0336 4.38653,2.08155 12.65531,9.58364 12.65531,11.48191 0,0.52193 -1.11831,1.96102 -2.48513,3.19797 -2.16908,1.963 -4.11646,2.16223 -15.3125,1.56671 -8.14538,-0.43326 -14.19612,-1.40875 -16.57737,-2.67258 -2.0625,-1.09465 -4.32895,-1.99373 -5.03655,-1.99797 -0.7076,-0.004 -2.08249,-1.112 -3.0553,-2.46171 -0.97281,-1.3497 -3.34699,-2.80065 -5.27595,-3.22432 -1.92896,-0.42367 -3.5072,-1.28812 -3.5072,-1.921 0,-0.63286 -2.2168,-1.15067 -4.92623,-1.15067 -2.70942,0 -5.22897,-0.48985 -5.59898,-1.08855 -0.37003,-0.5987 -2.37198,-1.42839 -4.44878,-1.84375 l -3.77601,-0.7552 0,-13.78125 c 0,-8.35416 0.49225,-13.78125 1.25,-13.78125 0.6875,0 1.25,-2.53125 1.25,-5.625 0,-3.09375 -0.5625,-5.625 -1.25,-5.625 -0.6875,0 -1.25,-1.4239 -1.25,-3.16423 0,-1.74033 -0.84375,-3.48801 -1.875,-3.88373 -1.5304,-0.58728 -1.875,-3.63554 -1.875,-16.58578 0,-10.4381 -0.49981,-16.36607 -1.46094,-17.3272 -1.03535,-1.03535 -1.62122,-13.94416 -2.01112,-44.3125 -0.3026,-23.56836 -1.05143,-43.38594 -1.66407,-44.03906 -0.61262,-0.65313 -1.11387,-16.7918 -1.11387,-35.86373 0,-21.76912 -0.46528,-34.96378 -1.25,-35.44877 -0.7101,-0.43886 -1.25,-6.67965 -1.25,-14.44877 l 0,-13.67623 -3.125,0 c -1.71875,0 -3.125,0.5625 -3.125,1.25 0,0.6875 -0.84375,1.25 -1.875,1.25 -1.03125,0 -1.875,0.84375 -1.875,1.875 0,1.03125 -0.49061,1.875 -1.09024,1.875 -0.59964,0 -1.45396,2.27456 -1.8985,5.05459 -0.74742,4.67412 -2.8321,9.7003 -4.64346,11.19541 -0.41645,0.34375 -1.14506,2.73437 -1.61914,5.3125 -0.47407,2.57812 -1.39896,4.6875 -2.0553,4.6875 -0.65635,0 -1.19336,1.40625 -1.19336,3.125 0,1.71875 -0.55585,3.125 -1.23523,3.125 -0.67937,0 -1.59502,2.25 -2.03476,5 -0.43974,2.75 -1.21825,5 -1.73001,5 -0.51176,0 -1.29028,2.25 -1.73001,5 -0.43974,2.75 -1.35539,5 -2.03476,5 -0.67938,0 -1.23523,1.40625 -1.23523,3.125 0,1.71875 -0.49061,3.125 -1.09024,3.125 -0.59964,0 -1.45004,2.25 -1.88977,5 -0.43974,2.75 -1.35539,5 -2.03476,5 -0.67938,0 -1.23523,1.40625 -1.23523,3.125 0,1.71875 -0.49061,3.125 -1.09024,3.125 -0.59963,0 -1.45003,2.25 -1.88977,5 -0.43974,2.75 -1.28349,5 -1.875,5 -0.59151,0 -1.43526,2.25 -1.875,5 -0.43974,2.75 -1.35539,5 -2.03476,5 -0.67938,0 -1.23523,1.40625 -1.23523,3.125 0,1.71875 -0.55585,3.125 -1.23523,3.125 -0.67937,0 -1.59501,2.25 -2.03476,5 -0.43974,2.75 -1.24966,5 -1.79982,5 -0.55017,0 -1.38684,3.09375 -1.85927,6.875 -0.47244,3.78125 -1.35666,6.875 -1.96495,6.875 -0.60828,0 -1.10597,1.40625 -1.10597,3.125 0,1.71875 -0.49863,3.125 -1.10807,3.125 -0.60944,0 -1.50567,2.65141 -1.99164,5.89204 -0.48596,3.24062 -1.87561,6.75625 -3.088117,7.8125 -1.212505,1.05625 -2.642084,3.32671 -3.17684,5.04546 -0.534758,1.71875 -1.318347,3.40625 -1.741309,3.75 -1.1089,0.90122 -3.70577,5.17657 -5.101155,8.39827 -0.66064,1.52531 -2.346796,3.48873 -3.747016,4.36318 -1.400219,0.87446 -2.545853,2.57961 -2.545853,3.78924 0,1.20962 -0.5625,2.19931 -1.25,2.19931 -0.6875,0 -1.25,0.77487 -1.25,1.72195 0,0.94706 -0.807594,2.39218 -1.794651,3.21136 -0.987059,0.81919 -2.156753,3.13806 -2.599319,5.15307 -0.442568,2.01498 -1.18185,3.67007 -1.642849,3.67796 -0.461,0.008 -1.913052,2.25789 -3.226782,5 C 69.422668,557.75645 67.920486,560 67.398217,560 c -0.522268,0 -1.320216,1.6875 -1.773217,3.75 -0.453001,2.0625 -1.341445,3.75 -1.974319,3.75 -0.632875,0 -1.150681,1.125 -1.150681,2.5 0,1.375 -0.5625,2.5 -1.25,2.5 -0.6875,0 -1.25,1.6875 -1.25,3.75 0,2.5 -0.625,3.75 -1.875,3.75 -2.07711,0 -2.742984,8.06601 -0.766704,9.28742 0.609563,0.37673 1.470594,2.61618 1.913403,4.97655 1.17117,6.24288 -2.515173,14.17614 -7.05003,15.17217 -1.909418,0.41937 -3.471669,1.28031 -3.471669,1.91319 0,0.63286 -1.125,1.15067 -2.5,1.15067 -1.375,0 -2.5,0.5625 -2.5,1.25 0,0.6875 -1.6875,1.25 -3.75,1.25 -2.5,0 -3.75,0.625 -3.75,1.875 0,1.03125 -0.84375,1.875 -1.875,1.875 -1.03125,0 -1.875,0.85139 -1.875,1.89196 0,2.07733 -2.24466,6.42849 -4.6875,9.08649 -0.859375,0.93506 -1.5625,2.4394 -1.5625,3.34295 0,2.59084 -2.819559,7.3618 -6.563018,11.10525 -1.935101,1.9351 -3.436982,4.81673 -3.436982,6.59445 0,1.73661 -0.803571,3.96104 -1.785714,4.94319 -2.288021,2.28802 -10.8625106,2.23213 -12.901786,-0.0841 z M 241.25,341.0059 c 0,-0.82176 1.54687,-3.11164 3.4375,-5.08863 l 3.4375,-3.59451 -0.38526,-25.18347 c -0.2119,-13.85092 -0.89458,-25.79715 -1.51705,-26.5472 -0.62249,-0.75005 -1.52215,-13.5867 -1.99924,-28.52589 -0.47709,-14.93919 -1.3413,-27.45501 -1.92045,-27.81295 -0.57915,-0.35794 -1.053,-7.9301 -1.053,-16.82703 0,-8.89692 -0.32142,-16.17622 -0.71429,-16.17622 -2.12574,0 -4.25838,4.19311 -5.00846,9.84742 -0.46713,3.52142 -1.33936,6.40258 -1.93829,6.40258 -0.59892,0 -1.08896,1.92187 -1.08896,4.27084 0,2.34895 -0.70313,4.50581 -1.5625,4.793 -2.24608,0.75061 -2.23769,47.37776 0.009,48.12655 0.95755,0.31917 1.55385,2.87647 1.55385,6.66377 0,3.38021 0.5625,6.14584 1.25,6.14584 0.75757,0 1.25,5.41666 1.25,13.75 0,8.33334 -0.49243,13.75 -1.25,13.75 -1.63621,0 -1.64544,17.15885 -0.01,17.70834 0.68226,0.22916 1.60855,4.77603 2.05841,10.10416 0.70115,8.30426 1.14871,9.6875 3.13453,9.6875 1.2745,0 2.31696,-0.67235 2.31696,-1.4941 z M 126.94034,253.125 c 0.46393,-3.09375 1.27655,-5.625 1.8058,-5.625 0.52926,0 1.30126,-0.98438 1.71556,-2.1875 0.4143,-1.20313 1.93859,-4.12995 3.38732,-6.50406 1.44873,-2.3741 2.94156,-7.29598 3.31739,-10.9375 0.37584,-3.64151 1.16715,-6.62094 1.75846,-6.62094 0.59133,0 1.07513,-6.75 1.07513,-15 0,-8.25 -0.32143,-15 -0.71429,-15 -2.03499,0 -3.95562,3.82235 -4.71681,9.38714 -0.46928,3.43082 -1.40801,6.42536 -2.08608,6.65452 -0.67805,0.22918 -1.23282,2.33855 -1.23282,4.6875 0,2.34896 -0.52844,4.27084 -1.17431,4.27084 -0.64586,0 -1.56353,3.94999 -2.03925,8.77774 -0.47571,4.82776 -1.35353,9.0797 -1.95069,9.44877 -0.59716,0.36907 -1.08575,2.84097 -1.08575,5.49309 0,2.65214 -0.47624,5.00956 -1.05831,5.23874 -0.58208,0.22916 -1.39932,3.36979 -1.81611,6.97916 -0.67793,5.8709 -0.5086,6.5625 1.60672,6.5625 1.84409,0 2.55018,-1.23805 3.20804,-5.625 z"
       id="path3420"
       inkscape:connector-curvature="0" />
    <path
       style="fill:#932091"
       d="m 1.5625,655.63021 c -3.2657045,-18.572 2.6033984,-34.31971 10.487932,-54.73376 1.65724,-15.53615 11.990521,-27.04437 17.431801,-40.74859 4.651715,-13.9874 9.83668,-26.49352 14.679728,-40.14786 5.720182,-15.51876 9.999564,-31.56332 17.692444,-46.32608 6.98686,-17.46048 13.569893,-35.79416 17.036244,-54.31789 4.109378,-26.44214 5.958686,-53.07083 12.914869,-78.73665 -1.105184,-35.09245 -6.253465,-71.17936 4.681351,-105.53171 4.288671,-22.31623 7.256621,-44.05568 12.059451,-66.45095 0.45387,-15.86011 1.0041,-38.87637 17.80186,-44.77879 18.54024,-4.64606 43.98662,-17.96456 20.15358,-32.136907 -10.6325,-15.332326 -26.78346,-35.769261 -23.44738,-53.683728 3.49883,-16.401267 15.15665,-35.1816234 33.36344,-37.31869606 14.15972,-6.54284134 29.98625,4.75001926 43.28561,9.63049206 18.85632,15.486194 14.03926,31.778237 24.75405,52.27654 9.06754,12.613532 3.147,34.398288 14.58994,46.655679 18.60413,13.02595 36.1407,22.40097 33.25621,46.64823 -0.18921,21.06645 0.48172,43.37146 -0.97132,65.2814 3.75278,24.12438 4.85662,47.15463 -1.16809,69.69383 -3.95084,24.43546 -7.30688,47.97732 -9.57531,73.09072 -0.63711,20.21651 -20.33143,28.04846 -30.60951,1.62544 -3.09581,19.05987 -4.18618,36.25256 -9.43428,53.44987 -7.33567,38.8619 -2.44961,78.75771 -10.73346,117.42055 0.25567,23.5761 -9.91887,46.24375 -4.30391,69.69768 14.2676,11.31377 35.48662,15.66752 44.21981,31.16827 -14.59926,19.50073 -42.92353,3.73252 -61.24714,-6.58958 -31.08474,1.86905 -4.16035,-37.3604 -15.67472,-51.85301 -3.13228,-23.7453 -7.22605,-47.38324 -5.73974,-71.71825 1.09456,-33.83702 -3.66846,-67.53855 -2.77731,-101.36365 -0.17276,-16.11926 -0.4776,-30.45847 -1.09635,-46.56504 -10.28762,0.90065 -6.45409,4.69505 -16.76878,24.42302 -4.9953,16.22827 -11.13795,29.68637 -16.53075,45.57698 -5.44452,14.0683 -10.78656,28.24528 -16.04144,42.5 -6.25137,14.96963 -9.37729,31.32923 -17.437116,45.52213 -9.065418,14.13956 -19.503127,27.60286 -26.227033,42.74397 -15.906405,14.84487 1.099018,33.36214 -14.044414,48.9712 C 40.812241,616.59803 37.353623,618.45623 25,636.25 20.503664,647.4899 17.245141,664.85744 1.5625,655.63021 Z M 240.18934,338.94796 c 14.07074,-17.29463 6.2047,-23.61237 3.07683,-55.05127 -10.15663,-24.46295 -4.45675,-50.66866 -3.07683,-76.47047 -1.54411,-16.85763 1.40423,-16.15342 -4.91407,-2.10246 -2.72907,20.55451 0.45837,40.94528 -0.85511,63.40197 7.06779,24.03908 2.18452,50.07682 3.04805,73.5731 1.35799,0.46787 2.46405,-1.57729 2.72113,-3.35087 z M 125.04837,254.98407 c 6.51147,-16.87048 12.27365,-27.7411 13.39972,-47.0291 0.35698,-15.10507 1.93448,-19.49331 -4.0948,-0.99454 -0.56425,18.65174 -11.04413,35.98768 -11.279,53.03957 l 1.61432,-0.64258 z"
       id="path3418"
       inkscape:connector-curvature="0"
       sodipodi:nodetypes="ccccccccccccccccccccccccccccccccccccccccccccccccccc" />
  </g>
</svg>
