<?xml version="1.0" encoding="UTF-8" standalone="no"?>
<svg
   xmlns:dc="http://purl.org/dc/elements/1.1/"
   xmlns:cc="http://creativecommons.org/ns#"
   xmlns:rdf="http://www.w3.org/1999/02/22-rdf-syntax-ns#"
   xmlns:svg="http://www.w3.org/2000/svg"
   xmlns="http://www.w3.org/2000/svg"
   version="1.1"
   id="svg16535"
   viewBox="0 0 1844.1393 1355.8741"
   height="382.65781mm"
   width="520.45709mm">
  <defs
     id="defs16537" />
  <metadata
     id="metadata16540">
    <rdf:RDF>
      <cc:Work
         rdf:about="">
        <dc:format>image/svg+xml</dc:format>
        <dc:type
           rdf:resource="http://purl.org/dc/dcmitype/StillImage" />
        <dc:title></dc:title>
      </cc:Work>
    </rdf:RDF>
  </metadata>
  <g
     transform="translate(612.57127,-310.80822)"
     id="layer1">
    <g
       transform="matrix(1.8903238,0,0,1.9976597,3337.6656,2269.7541)"
       id="g17094">
      <g
         id="g17100">
        <path
           style="fill:#9c301d"
           d="m -2065.2144,-302.47845 c -6.325,-0.43022 -14.425,-1.58666 -18,-2.56987 l -6.5,-1.78766 0.102,-10.77435 c 0.1177,-12.42678 0.7677,-13.77816 5.662,-11.77139 9.5092,3.89902 13.1846,4.40407 32.236,4.42965 19.9154,0.0267 23.4513,-0.4801 44.5,-6.3786 10.5684,-2.96158 25.7569,-3.02842 36.5,-0.16064 4.4,1.17454 13.4562,2.62065 20.1248,3.21357 11.4187,1.01526 13.0203,0.91929 27.5,-1.64776 12.915,-2.28964 18.3354,-2.73506 33.8752,-2.78366 16.3825,-0.0512 19.3562,0.1989 25.9799,2.18533 9.3636,2.80811 11.0481,2.79624 25.6395,-0.18069 26.7455,-5.45663 35.1626,-5.70777 50.8806,-1.51809 11.3782,3.03291 29.5949,3.68538 39.5,1.4148 10.3419,-2.3707 20.425,-2.89541 28.5992,-1.48826 19.5183,3.36 24.6969,3.97399 33.6851,3.99383 5.3813,0.0119 15.9563,-0.93066 23.5,-2.09453 17.3164,-2.67167 32.7794,-2.2968 41.3467,1.00237 15.8578,6.10663 28.7351,6.53255 49.369,1.63289 18.5497,-4.40476 24.915,-5.64308 33.5,-6.51719 19.1815,-1.95304 27.291,-1.34598 58.5,4.37915 10.6843,1.95997 22.0259,3.01482 24.0527,2.23706 1.3738,-0.52716 1.1135,-1.12758 -1.5794,-3.64308 -2.9447,-2.75082 -3.1846,-3.42459 -2.7667,-7.7732 0.3283,-3.41742 2.0591,-7.55011 6.1319,-14.64178 3.121,-5.43425 5.427,-10.12795 5.1245,-10.43044 -0.4896,-0.48958 -31.6817,1.69729 -57.463,4.0287 -34.3798,3.10898 -106.8212,1.21121 -137,-3.58904 -26.6219,-4.23449 -32.0933,-5.47806 -54,-12.2736 -31.0481,-9.63121 -64.579,-23.53764 -76.9432,-31.91094 -4.0117,-2.71686 -4.4636,-2.58503 -3.1333,0.91396 0.7956,2.09254 0.4286,3.67841 -1.955,8.44834 -3.6349,7.27404 -5.529,9.0669 -17.6211,16.67871 l -9.6494,6.07422 -3.1414,9.11283 c -3.687,10.69536 -7.5269,16.98829 -13.0581,21.3999 -5.4796,4.37048 -12.8532,7.98727 -16.2838,7.98727 -4.3756,0 -12.6523,-2.74933 -17.1588,-5.69976 l -4.0559,-2.6555 0,-7.42124 c 0,-9.234 1.2335,-11.92614 9.3894,-20.49339 3.4941,-3.67034 9.6699,-11.97361 13.7241,-18.45172 5.4816,-8.75923 10.2459,-14.72619 18.5865,-23.27839 16.1969,-16.60784 15.6021,-13.93239 5.3269,-23.95924 -4.8138,-4.69742 -13.3001,-14.16576 -18.8586,-21.04076 -5.5584,-6.875 -13.2831,-16.325 -17.166,-21 -8.8533,-10.65947 -29.0023,-40.26893 -29.0023,-42.6197 0,-0.25371 -0.8326,-1.68056 -1.8502,-3.17079 -21.5152,-31.50716 -37.8941,-72.36024 -41.9244,-104.57002 -1.8965,-15.15732 -0.9652,-29.87561 3.2045,-50.63949 4.1904,-20.86752 9.8922,-33.72937 21.24,-47.91239 6.7121,-8.38911 18.8255,-20.08761 20.7999,-20.08761 0.6494,0 3.798,-2.0324 6.9969,-4.51645 3.199,-2.48405 8.7901,-5.96079 12.4248,-7.72608 5.9561,-2.89278 7.4476,-3.19771 15.1085,-3.08894 7.5135,0.10668 10.9952,0.90269 30,6.85889 11.825,3.70601 28.25,8.43785 36.5,10.51521 61.2521,15.42334 73.1713,17.84116 105.4289,21.3863 l 13.4288,1.47585 6.5867,-6.21353 c 10.6067,-10.00581 20.2913,-17.05114 33.0556,-24.04715 10.5528,-5.78389 16.0531,-9.37194 20.084,-13.10152 4.1485,-3.83833 13.2872,-15.65079 16.2795,-21.04258 3.0384,-5.47467 13.8979,-19.98558 17.5867,-23.5 11.4979,-10.95445 16.7242,-14.42511 27.1972,-18.06125 2.9599,-1.02762 4.2383,-1.02161 6.7817,0.0319 5.0806,2.10444 9.964,6.5322 15.7373,14.26876 10.655,14.27842 27.6363,32.01122 36.4314,38.04366 3.0335,2.08067 8.19,4.87005 11.4588,6.19861 3.2689,1.32855 5.9434,2.9815 5.9434,3.67321 0,1.76627 -10.3959,9.9538 -20.6822,16.2887 -10.8877,6.70535 -22.0583,10.53877 -31.1056,10.6745 -7.4982,0.11248 -8.95,1.02481 -5.3668,3.37262 3.9371,2.57966 8.8484,3.61273 13.9686,2.93821 5.6678,-0.74666 5.387,-1.9764 -0.3566,-1.5617 -6.2788,0.45334 -4.6098,-1.4797 3.2926,-3.81368 3.9875,-1.17771 9.8672,-3.24654 13.0659,-4.5974 3.1988,-1.35087 6.0113,-2.45612 6.25,-2.45612 2.8325,0 -9.2733,13.79085 -18.5659,21.15013 -2.475,1.96007 -7.875,5.48259 -12,7.82783 -4.125,2.34523 -8.9225,5.766 -10.6611,7.60169 -1.7386,1.8357 -4.4387,3.60805 -6,3.93855 -4.47,0.94619 -5.697,1.92495 -6.5526,5.22685 -0.4691,1.81013 -2.9488,5.01389 -6.0135,7.7693 -4.4771,4.0253 -4.9939,4.8515 -3.6515,5.83731 0.8601,0.63159 2.0769,2.72334 2.7041,4.64834 1.5522,4.76428 9.0348,49.45238 9.7683,58.33917 0.3983,4.82636 1.5161,9.11686 3.4288,13.16083 1.5607,3.3 3.0839,6.79771 3.3849,7.77268 0.7557,2.44804 3.462,3.28644 5.1523,1.59615 1.2379,-1.23781 3.663,-13.5639 2.9255,-14.86883 -0.1555,-0.275 -1.2705,-5.2001 -2.4779,-10.94467 -1.9359,-9.21053 -2.0179,-10.56936 -0.6934,-11.5 0.8261,-0.58043 6.92,-4.79911 13.5419,-9.37484 12.4081,-8.57396 25.4399,-21.55283 35.3512,-35.20766 7.31,-10.07102 7.2157,-6.27946 -0.1312,5.27523 -2.1864,3.43857 -3.6604,6.5607 -3.2755,6.93807 0.3848,0.37737 4.3379,2.21684 8.7845,4.08771 4.4467,1.87087 11.5429,5.72461 15.7693,8.56387 4.2265,2.83926 7.9393,5.16229 8.2507,5.16229 0.8124,0 23.8708,15.54464 30.3952,20.49063 3.025,2.29318 10.4824,7.59934 16.5721,11.79147 6.0896,4.19212 14.4146,10.6326 18.5,14.31216 4.0853,3.67957 11.7029,10.11363 16.9279,14.29793 5.225,4.1843 10.0059,8.05781 10.6242,8.60781 16.6864,14.84306 39.5744,32.65064 57.6484,44.85213 8.675,5.85633 15.9557,10.64787 16.1793,10.64787 0.2237,0 3.026,1.73961 6.2274,3.8658 7.8763,5.23103 23.6765,12.99968 35.8207,17.61241 5.5,2.08906 10.45,4.13638 11,4.5496 1.3434,1.00927 18.6353,6.42057 25.5,7.97989 22.1087,5.02206 33.809,11.71516 38.1394,21.81751 2.2829,5.32571 2.3421,9.18892 0.2491,16.24329 -4.0719,13.72379 -11.1342,22.20541 -27.7322,33.30557 -23.3278,15.60077 -43.3461,21.5914 -122.1563,36.55611 -38.9559,7.39706 -52.4868,9.33201 -77.5,11.08271 -8.525,0.59667 -16.5125,1.29644 -17.75,1.55504 -3.1904,0.6667 -2.7879,2.91647 1,5.58844 1.7875,1.2609 6.7377,5.29509 11.0004,8.96487 l 7.7505,6.67231 8.7495,1.22788 c 9.4302,1.3234 15.0873,3.62656 18.4736,7.52116 1.1752,1.35158 2.843,2.50227 3.7063,2.55709 0.8634,0.0548 0.4447,0.41884 -0.9303,0.80892 -1.375,0.39008 -3.8409,0.44114 -5.4797,0.11347 -2.3041,-0.46068 -2.9844,-1.13965 -3,-2.99434 -0.017,-1.99835 -1.0154,-2.78475 -5.984,-4.71314 -7.6604,-2.97309 -10.9124,-3.07503 -10.0363,-0.31461 1.2346,3.88982 -2.5267,2.07251 -9.8311,-4.75 -13.3775,-12.49502 -17.0707,-15.37819 -19.0393,-14.86339 -1.6802,0.43938 -1.8251,-3.3e-4 -1.4131,-4.28776 0.2525,-2.62753 1.5302,-7.43718 2.8394,-10.68809 3.1393,-7.79553 19.8332,-41.37439 26.5961,-53.49693 2.9414,-5.27239 5.348,-9.88489 5.348,-10.25 0,-1.20028 -1.7761,-0.70289 -8.342,2.33617 -3.5648,1.65 -6.6898,3 -6.9443,3 -0.2546,0 -7.925,3.57703 -17.0455,7.94895 l -16.5827,7.94896 -1.4193,5.30104 c -0.7807,2.91558 -2.1794,8.90105 -3.1083,13.30105 -1.8774,8.8932 -7.4293,25.58004 -10.8132,32.5 -1.2103,2.475 -4.1229,7.34094 -6.4726,10.81321 -2.3496,3.47226 -4.2721,6.50102 -4.2721,6.73058 0,0.22956 -1.4817,2.78861 -3.2926,5.68679 -4.5442,7.27244 -5.7074,10.25373 -5.7074,14.62791 0,7.88154 4.3974,9.46358 24.5,8.81417 12.4345,-0.4017 23.2964,-2.72362 24.7997,-5.30138 1.2424,-2.13039 9.6377,-1.67044 18.9928,1.04054 4.5774,1.3265 11.1754,2.97307 14.6622,3.65905 5.6476,1.11109 6.4714,1.06687 7.5478,-0.40516 0.9543,-1.30512 2.7705,-1.62268 8.6421,-1.51108 8.1105,0.15416 10.9593,-0.85735 13.5499,-4.81105 1.6083,-2.45464 1.5986,-2.65611 -0.1912,-3.96481 -1.7472,-1.27757 -1.6513,-1.37877 1.3056,-1.37877 3.8556,0 3.9297,0.63249 0.6417,5.47769 -1.4022,2.06624 -2.2791,4.02712 -1.9487,4.35751 0.3304,0.3304 4.6265,0.50824 9.547,0.39521 7.7333,-0.17765 10.9593,-0.87529 23.7933,-5.14541 31.2903,-10.41086 38.6116,-10.5084 79.6578,-1.06129 l 18,4.14284 8.3513,-1.61702 c 4.5932,-0.88936 12.1988,-2.73196 16.9013,-4.09468 4.7024,-1.36271 12.6443,-2.97918 17.6486,-3.59216 8.1288,-0.99569 10.3248,-0.87961 20.5988,1.08885 13.8276,2.6493 27.2867,6.4486 31.4527,8.87859 l 3.0473,1.77751 0.2839,11.32168 0.284,11.32169 -2.284,-0.66229 c -1.2561,-0.36426 -5.2089,-1.38454 -8.7839,-2.2673 -3.575,-0.88276 -10.325,-2.71301 -15,-4.06722 -16.8485,-4.88051 -35.6205,-4.18045 -59,2.20027 -14.9312,4.07502 -18.4022,3.99596 -42.5,-0.96794 -26.1302,-5.38257 -31.8504,-5.61868 -45.5,-1.87805 -5.225,1.43189 -12.65,3.44998 -16.5,4.48465 -3.85,1.03468 -13.975,2.60291 -22.5,3.48497 -16.4988,1.70708 -27.5293,1.40971 -40.8873,-1.10227 -4.187,-0.78737 -12.3377,-2.33413 -18.1127,-3.43725 -13.3091,-2.54225 -18.5495,-2.52298 -28.5,0.10483 -4.4,1.16198 -11.15,2.94738 -15,3.96755 -11.0847,2.93721 -28.8765,2.54812 -53.6305,-1.17286 -11.2032,-1.68404 -24.8695,-3.31432 -30.3695,-3.62283 -12.3793,-0.6944 -29.0508,1.5465 -42.7247,5.74285 -10.1602,3.11802 -28.1941,5.95239 -37.7117,5.9271 -3.06,-0.008 -8.4886,-0.71893 -12.0636,-1.57956 -18.6296,-4.48479 -33.5972,-5.34236 -50.5,-2.89339 -14.4918,2.09964 -24.8176,1.82575 -42.4168,-1.1251 -17.2079,-2.88524 -30.5794,-2.85748 -46.5832,0.0967 -10.1245,1.86893 -26.1162,1.8705 -39,0.004 -14.8353,-2.1494 -34.246,-1.9158 -43.5,0.52352 -14.8569,3.91624 -32.9386,3.58163 -49.5,-0.916 -6.7676,-1.83791 -22.2186,-1.40271 -33.0963,0.9322 -5.447,1.16923 -14.6287,2.3705 -20.4037,2.6695 -11.9124,0.61676 -32.1268,-0.97399 -40.677,-3.20104 -9.653,-2.51428 -22.4246,-1.91733 -41.7747,1.95256 -19.0861,3.81698 -32.835,4.69445 -52.5483,3.35358 z m 233,-40.11931 c 0.825,-0.62599 4.333,-3.84822 7.7956,-7.16052 6.0684,-5.80509 7.6591,-8.38878 13.2507,-21.52236 2.8376,-6.66478 6.3269,-11.66667 8.1388,-11.66667 2.938,0 15.9035,-9.75159 18.8202,-14.15499 3.8195,-5.76642 4.2364,-12.17834 0.7918,-12.17834 -2.0287,0 -1.921,-0.29674 1.361,-3.75 1.9602,-2.0625 5.5391,-7.51751 7.953,-12.12225 2.9727,-5.67064 6.1252,-9.96105 9.7698,-13.29593 7.5285,-6.88895 23.1474,-18.32069 33.9269,-24.83182 5.0081,-3.025 9.125,-6.01928 9.1489,-6.65396 0.024,-0.63468 -1.7642,-4.9209 -3.9734,-9.52494 -2.2091,-4.60403 -5.9638,-13.51131 -8.3438,-19.79396 -2.3799,-6.28265 -4.7934,-11.57844 -5.3634,-11.76843 -0.5699,-0.18998 -2.4517,2.16262 -4.1817,5.228 -1.73,3.06538 -7.2965,11.00159 -12.3699,17.63601 -10.0613,13.15679 -10.8137,14.20777 -21.7479,30.37728 -10.7986,15.96909 -22.218,29.41433 -36.1868,42.60671 -11.0115,10.3995 -12.8991,12.70179 -18.1477,22.13552 -4.7598,8.55503 -7.6186,12.25923 -15.25,19.75947 -6.6893,6.57434 -9.3921,9.92213 -9.3921,11.63353 0,2.09658 0.3505,2.32825 2.75,1.81742 l 2.75,-0.58546 -2.75,2.35397 c -4.1756,3.57428 -3.5608,6.463 0.6911,3.24704 2.5266,-1.91098 4.1545,-1.89075 2.5589,0.0318 -1.0572,1.27382 -0.8118,1.50209 1.6276,1.51387 2.7471,0.0133 2.687,0.10879 -1.3776,2.18968 -5.4806,2.80584 -5.7612,5.16322 -0.5,4.2018 2.0625,-0.3769 4.7918,-1.07229 6.0651,-1.54531 3.5258,-1.30979 4.9142,-0.96985 2.7438,0.67176 -1.0676,0.80751 -2.9536,1.4682 -4.191,1.4682 -2.2116,0 -4.0738,1.62739 -3.0424,2.65879 0.2891,0.28915 2.2467,1.15414 4.3501,1.92221 4.0264,1.47023 9.7531,1.05291 12.3244,-0.89812 z m 275,-59.2511 c 10.903,-1.35922 27.9523,-5.17053 30.4498,-6.80691 1.6204,-1.06175 2.5502,-2.59265 2.5502,-4.19895 0,-1.97488 0.8205,-2.87216 3.75,-4.1011 3.1982,-1.34163 5.0853,-1.40983 12.8238,-0.46344 13.5819,1.66099 31.4605,2.51053 36.6035,1.73928 2.504,-0.37549 5.4009,-1.37041 6.4377,-2.21094 1.7162,-1.39139 1.1483,-1.48022 -6.3425,-0.99201 -12.0552,0.78569 -39.9692,-1.03654 -53.8748,-3.51696 -13.3021,-2.37277 -19.7647,-2.06109 -19.2055,0.92626 0.243,1.29826 2.0063,1.90753 7.5624,2.61313 7.7878,0.98902 9.1272,2.00763 4.0937,3.11317 -1.7334,0.38072 -6.3459,2.18644 -10.25,4.01272 -6.4158,3.00121 -19.0266,6.1678 -31.8945,8.00875 -5.5572,0.79504 -5.3911,1.53299 0.5648,2.5094 4.2811,0.70185 6.7892,0.60705 16.7314,-0.6324 z m -18.0782,-22.36229 c 1.5695,-0.99334 -0.4655,-1.63989 -14.4218,-4.58211 -22.9422,-4.83661 -34.7474,-11.48134 -52.0398,-29.29153 -3.5531,-3.65948 -6.4602,-6.08268 -6.4602,-5.38489 0,1.87785 3.615,8.62464 5.4269,10.12838 0.8652,0.71805 1.5731,1.93701 1.5731,2.70878 0,4.33763 -14.7486,-8.57298 -23.1612,-20.27484 -8.8563,-12.31906 -14.1626,-28.27653 -15.4289,-46.39913 -0.8058,-11.53216 0.7244,-18.59499 6.7108,-30.97415 3.5798,-7.40246 5.5349,-9.88807 15.1419,-19.25 6.0672,-5.9125 10.6277,-10.73548 10.1344,-10.71774 -1.4883,0.0535 -11.2726,7.45973 -16.6765,12.62323 -7.4946,7.16112 -16.5594,18.94608 -19.4434,25.27801 -3.0577,6.71317 -5.1942,17.40335 -5.1098,25.5665 l 0.062,6 1.2855,-8 c 0.707,-4.4 1.6026,-8.78492 1.9901,-9.74426 1.1072,-2.74042 2.4952,-1.01009 2.4952,3.11058 0,2.06156 0.9157,11.1475 2.0349,20.19099 2.1979,17.75952 3.362,21.26099 9.6903,29.14609 2.0761,2.58686 5.2246,6.66434 6.9965,9.06105 5.0167,6.78547 16.6277,18.17246 23.5209,23.06726 12.3023,8.7356 29.6077,14.43627 54.7574,18.03791 4.9488,0.7087 9.5266,0.58291 10.9218,-0.30013 z m 78.6007,-5.48412 c 4.4124,-0.77655 11.6123,-2.52812 16,-3.89239 4.3876,-1.36426 11.7697,-3.50762 16.4045,-4.76301 9.8028,-2.65517 13.3019,-4.23495 25.6897,-11.59829 8.7612,-5.20769 14.2966,-9.7517 13.2068,-10.84148 -0.2847,-0.28472 -4.2866,1.9905 -8.893,5.05606 -11.4387,7.61233 -20.8324,11.89412 -34.8821,15.89979 -16.8057,4.79139 -26.8247,6.67501 -39.4276,7.41256 -6.9446,0.4064 -11.1013,1.06858 -11.3457,1.80741 -0.8386,2.53472 11.3336,3.01608 23.2474,0.91935 z m 54.4005,-7.13479 c 10.6338,-5.50226 16.828,-9.91166 31.538,-22.45058 15.2387,-12.98963 28.693,-17.94118 57.039,-20.99191 19.4345,-2.09162 32.8954,-5.29164 40.1546,-9.54581 4.5326,-2.6563 4.9695,-2.71649 15.007,-2.06756 12.4839,0.80711 13.58,-0.47765 4.2229,-4.9499 -6.3975,-3.05775 -9.8845,-6.43363 -9.8845,-9.56956 0,-1.6015 1.1958,-1.23344 8.75,2.69312 6.5722,3.41613 10.9634,4.92635 17.6429,6.06774 7.3606,1.25779 9.0379,1.29082 9.7347,0.19175 1.7396,-2.74402 0.8842,-3.57709 -8.4144,-8.19493 -16.623,-8.25524 -78.9627,-48.31073 -102.2132,-65.67569 -13.1575,-9.82689 -20.9444,-16.96104 -30.9412,-28.34755 -7.6938,-8.76329 -11.6589,-18.19371 -8.4768,-20.1604 1.5515,-0.95885 11.1971,5.89826 19.7646,14.0507 7.4458,7.08509 10.3445,8.46193 10.9706,5.21091 0.4991,-2.59184 -10.9747,-13.3912 -19.3482,-18.21091 -7.646,-4.40098 -16.7518,-11.05705 -25.969,-18.98264 -10.3201,-8.87397 -11.3075,-8.2998 -3.4211,1.98952 2.7934,3.64453 5.7672,8.28393 6.6086,10.30977 4.1589,10.01391 10.1593,20.59365 16.5515,29.18335 3.8884,5.225 7.5646,9.95 8.1694,10.5 0.6048,0.55 3.1168,3.43961 5.5822,6.42136 4.2457,5.1349 23.1623,22.05862 38.0917,34.07864 3.7571,3.025 12.8525,8.56514 20.2118,12.31143 16.3196,8.30747 22.9816,13.75488 24.5787,20.09766 2.547,10.11498 0.3774,15.68677 -8.1645,20.96783 -3.5088,2.1693 -5.9368,2.92128 -9.2696,2.87089 -8.2536,-0.12477 -12.2092,-5.43059 -7.3363,-9.84046 6.4659,-5.85153 6.2821,-14.36937 -0.4506,-20.88422 -6.23,-6.02838 -29.9134,-25.24331 -47.9448,-38.89879 -4.2672,-3.23161 -12.7756,-11.21911 -18.9075,-17.75 -6.1319,-6.53089 -11.5203,-11.87434 -11.9742,-11.87434 -1.5468,0 -0.8289,2.09049 2.5062,7.29804 7.0788,11.05319 23.0928,27.79635 40.1685,41.99751 13.311,11.07017 19.6823,17.56537 22.0372,22.46552 1.8649,3.88076 1.3512,5.13141 -1.8562,4.51829 -1.9048,-0.36414 -2.6201,0.1595 -3.6655,2.68325 -1.6355,3.94838 -6.4423,7.77263 -21.2813,16.93123 -11.5867,7.15135 -18.1926,11.98111 -17.43,12.74372 0.8508,0.85072 8.6859,-3.2033 19.8036,-10.24668 6.434,-4.07613 13.5711,-8.07195 15.8603,-8.87961 2.2891,-0.80765 5.3702,-2.41897 6.847,-3.58071 1.4767,-1.16173 4.1314,-2.71671 5.8993,-3.4555 4.6138,-1.92804 5.1642,-5.30005 1.8018,-11.03757 -1.4809,-2.52698 -2.4184,-4.86861 -2.0834,-5.20363 0.335,-0.33502 2.6247,1.369 5.0882,3.78672 3.5432,3.47738 4.479,5.09735 4.479,7.75337 0,4.84027 -1.2778,6.72786 -11.098,16.39343 -9.0799,8.93694 -11.4599,10.4251 -14.9177,9.32765 l -2.0156,-0.63975 2.0156,-2.5625 c 1.1087,-1.40937 2.0157,-3.19264 2.0157,-3.96282 0,-1.78296 -3.0512,-0.29493 -7.7331,3.77132 -4.4435,3.8592 -18.315,12.79076 -26.7669,17.2347 -3.85,2.02429 -11.275,7.4126 -16.5,11.97403 -12.6272,11.02359 -19.6941,15.68599 -32.1304,21.19831 -12.5429,5.55958 -13.6874,6.49168 -7.9706,6.49168 3.2605,0 6.8899,-1.34058 15.024,-5.54942 z m -224.3021,-8.11985 c -13.2736,-13.1878 -24.5756,-32.48689 -29.2213,-49.89759 -2.2848,-8.5627 -2.5768,-11.24383 -2.1165,-19.43314 0.5745,-10.22258 1.9566,-15.28212 7.3757,-27 5.6569,-12.23206 12.0106,-20.73856 25.8062,-34.54992 10.2572,-10.26889 14.5268,-13.81212 20.035,-16.62656 9.23,-4.71608 17.9381,-7.60728 27.2931,-9.06167 5.7977,-0.90135 7.0448,-1.35336 5.1731,-1.87507 -10.6779,-2.97633 -35.1424,2.81532 -51.9461,12.29756 -6.0076,3.39004 -15.5078,10.17775 -16.5064,11.79348 -1.1563,1.87102 -2.5137,1.05508 -2.5137,-1.51106 0,-5.00239 10.2825,-22.02288 19.4709,-32.22973 4.4106,-4.89951 15.3673,-15.11341 32.1036,-29.92712 9.6979,-8.58387 39.8926,-30.9965 45.7971,-33.99382 5.5625,-2.82374 7.4059,-2.11659 5.4831,2.1034 -1.5029,3.29854 0.149,4.85333 4.137,3.89374 3.8176,-0.91861 17.4431,-7.92731 18.9566,-9.7509 2.5533,-3.07659 0.2884,-2.59752 -6.6605,1.40884 -12.6503,7.29341 -15.0281,4.39997 -5.1992,-6.32655 6.5402,-7.1375 6.8751,-8.34322 1.0553,-3.79998 -3.535,2.75959 -7.9194,5.27498 -24.6439,14.13849 -4.4,2.33187 -11.825,6.50111 -16.5,9.26499 -8.0649,4.76802 -11.2789,6.78843 -29,18.23029 -19.9336,12.87039 -44.7586,34.72297 -55.6897,49.02159 -3.6788,4.8122 -11.4008,19.99742 -14.3021,28.12519 -8.2081,22.99381 -9.23,53.64242 -2.3299,69.87481 9.7708,22.98557 15.9871,32.7688 29.9105,47.07279 5.755,5.91232 18.9845,16.32293 20.8312,16.39253 0.506,0.0191 -2.5536,-3.41649 -6.7991,-7.63459 z m 92.2958,-7.72891 c -0.2292,-0.219 -5.3667,-1.85581 -11.4167,-3.63735 -19.0927,-5.62223 -36.7402,-15.9436 -49.4026,-28.89367 -10.6865,-10.92931 -15.4301,-19.00576 -18.249,-31.0708 -0.9427,-4.03454 -1.3858,-4.84597 -1.6631,-3.04536 -0.749,4.86312 5.271,22.90063 9.9594,29.84117 10.6522,15.76922 21.658,24.07899 41.8553,31.60235 8.0086,2.98315 30.9046,7.10336 28.9167,5.20366 z m 122.0833,-18.08075 c 16.6625,-6.64099 19.2436,-8.93395 8.8316,-7.84568 -7.4433,0.77798 -7.4835,1.09666 1.4207,-11.25707 8.4262,-11.6906 11.3939,-17.43333 8.9977,-17.41148 -0.4125,0.004 -4.0384,4.9028 -8.0575,10.88676 -4.0311,6.00182 -10.5966,14.06919 -14.6434,17.99316 l -7.3359,7.11324 -5.8566,0.0136 c -3.2211,0.008 -6.8691,0.285 -8.1066,0.61664 -2.6221,0.7027 -3.1008,2.38775 -0.5,1.76022 0.9625,-0.23223 3.1,0.023 4.75,0.56718 4.5303,1.49413 13.2329,0.45974 20.5,-2.43662 z m -205.3805,-8.93102 c -0.5247,-5.12123 -0.3411,-6.72559 0.9133,-7.97996 1.4267,-1.42668 1.2694,-2.48476 -1.7231,-11.59005 -1.8111,-5.51102 -3.6067,-10.02004 -3.9901,-10.02004 -0.6216,0 -1.2536,3.38063 -2.0562,11 -0.1449,1.375 -0.7134,2.3692 -1.2634,2.20934 -4.267,-1.24028 -5.3312,-23.87574 -1.7158,-36.49784 5.128,-17.90327 10.9669,-26.65375 24.5618,-36.80967 12.9427,-9.66876 18.8074,-12.33442 27.154,-12.34238 8.0043,-0.008 11.3265,1.39587 18.1144,7.65273 2.7495,2.53441 4.3856,3.48574 4.3856,2.55004 0,-2.74273 -3.7026,-6.24465 -10.8599,-10.27131 -3.9016,-2.195 -7.1042,-4.34789 -7.1169,-4.78419 -0.013,-0.43631 1.4393,-0.66131 3.2268,-0.5 1.7875,0.1613 3.3891,-0.15672 3.559,-0.70672 0.4313,-1.39573 -3.2955,-2.28313 -10.0804,-2.40032 -5.0777,-0.0877 -5.8956,0.17285 -6.8045,2.1676 -0.5707,1.25258 -3.9301,3.7693 -7.5063,5.62347 -13.9997,7.25851 -33.948,24.99832 -39.2082,34.8673 -3.4761,6.52185 -7.2096,20.87314 -7.2096,27.71309 0,5.02561 5.1202,25.7514 7.9321,32.10834 2.4321,5.49813 8.2729,14.42052 9.44,14.42052 0.5131,0 0.6201,-2.77225 0.2474,-6.40995 z m 114.6304,2.51582 c 8.4686,-2.08195 15.4501,-4.68613 25,-9.32527 12.5089,-6.07656 13.8441,-7.01968 23.8682,-16.85862 10.9532,-10.75101 12.9915,-13.88002 10.7786,-16.54639 -2.0718,-2.49639 -7.0927,-0.9275 -24.7292,7.72715 -9.0049,4.41892 -17.3003,7.87623 -18.4898,7.706 -4.4573,-0.63792 -2.8708,-3.65197 7.6396,-14.51339 18.791,-19.41848 23.8185,-26.20784 31.515,-42.55932 8.8599,-18.82296 12.203,-35.76339 12.1101,-61.36437 -0.063,-17.23372 -0.7604,-23.47767 -2.696,-24.12286 -0.9385,-0.31284 -1.2484,2.01365 -1.2546,9.41787 -0.026,31.55188 -8.4652,60.82764 -23.6798,82.14902 -9.7306,13.63625 -35.2438,37.95779 -47.1161,44.91539 -7.9359,4.65076 -20.728,8.32408 -31.2123,8.96282 -10.8231,0.65936 -14.316,-0.35381 -13.7943,-4.00121 0.2593,-1.81259 1.2208,-2.30027 5.8107,-2.9472 3.025,-0.42637 9.67,-2.15813 14.7667,-3.84837 9.7704,-3.24022 8.601,-2.44215 35.6161,-24.30704 4.6957,-3.80046 8.2954,-7.30177 7.9994,-7.78069 -0.296,-0.47892 -2.1424,-0.56979 -4.1033,-0.20194 -3.5283,0.66192 -3.5575,0.63904 -2.8372,-2.21932 1.2125,-4.81124 2.235,-16.46989 1.4851,-16.93337 -0.3865,-0.23889 -1.0019,1.69857 -1.3675,4.30545 -1.4873,10.60549 -5.4167,18.97999 -10.9466,23.32981 -2.0079,1.57941 -3.0545,1.86822 -3.858,1.06469 -0.8035,-0.80354 0.1653,-4.21985 3.5713,-12.59381 2.5707,-6.32013 4.6543,-12.06935 4.6303,-12.77603 -0.059,-1.73045 -9.6489,17.31348 -12.194,24.21513 -2.3045,6.24905 -3.5977,8.21975 -4.8756,7.42997 -1.6301,-1.00744 -0.9144,-5.48378 2.5495,-15.94511 3.9349,-11.88429 4.512,-13.08968 9.2194,-19.25671 2.326,-3.04712 3.1216,-4.85096 2.4402,-5.53235 -1.4891,-1.48915 -3.4643,0.51896 -8.5739,8.71702 -5.3526,8.58782 -6.7021,12.24068 -10.6504,28.82797 -3.5568,14.94297 -4.0817,15.56799 -15.291,18.20773 -9.7845,2.30421 -24.2553,1.74165 -33.7016,-1.31018 -3.6732,-1.18669 -10.5743,-4.77246 -15.5,-8.05365 -4.8834,-3.25301 -9.0368,-5.7574 -9.2299,-5.56531 -0.193,0.19209 0.8778,1.96029 2.3797,3.92932 3.4257,4.49138 16.1897,13.10804 21.7643,14.69263 5.1673,1.46878 6.5876,2.5835 4.3742,3.43288 -4.3676,1.67599 -0.5892,4.26927 12.4222,8.52607 9.7657,3.19491 10.2484,3.8357 2.9106,3.86373 -16.0792,0.0614 -37.6758,-10.35828 -47.8146,-23.06908 -4.2768,-5.36173 -4.7127,-5.65984 -4.9985,-3.41859 -0.7042,5.52164 8.2897,17.90004 18.6071,25.60922 11.8728,8.87143 34.1537,18.51212 46.706,20.20918 1.65,0.22308 8.85,0.47178 16,0.55267 11.2677,0.12748 14.5657,-0.23783 24.7499,-2.74154 z m 124.4955,-14.64007 c 1.2047,-0.84381 4.3035,-4.28047 6.8864,-7.63702 3.7131,-4.82548 5.9698,-6.68214 10.7821,-8.87065 9.6426,-4.38525 12.911,-9.0162 12.782,-18.11088 -0.08,-5.63233 -1.4135,-9.84725 -3.1159,-9.84725 -0.4672,0 -1.1479,2.38788 -1.5125,5.30641 -0.8124,6.50203 -4.5642,14.85928 -8.1717,18.20255 -2.6991,2.5015 -7.3958,3.41094 -7.3958,1.4321 0,-0.58241 1.4007,-5.19491 3.1126,-10.25 4.0708,-12.02045 4.3197,-19.46263 0.8592,-25.67994 -1.3742,-2.46889 -3.2307,-4.62989 -4.1256,-4.80222 -1.3459,-0.2592 -1.1985,0.51648 0.8531,4.48888 2.2044,4.2683 2.4192,5.64906 1.932,12.41892 -0.7749,10.76722 -5.6552,23.11687 -14.6113,36.97368 -2.1903,3.38882 -3.7393,6.55481 -3.4422,7.03555 0.806,1.30416 2.7105,1.06088 5.1676,-0.66013 z m -236.6516,-37.77202 c -0.7917,-0.79171 -1.0938,-0.53223 -1.0938,0.93955 0,2.64375 1.3985,4.04704 1.8438,1.85016 0.1891,-0.93276 -0.1484,-2.18813 -0.75,-2.78971 z m 79.6503,-3.94378 c 1.2946,-1.63634 5.8161,-15.54918 7.6567,-23.56004 1.2603,-5.48503 1.2618,-6.3822 0.012,-6.86188 -1.865,-0.71568 -4.0626,1.14255 -4.6742,3.95246 -0.2657,1.2207 -1.8905,6.99465 -3.6107,12.83099 -1.7202,5.83634 -3.1277,11.57384 -3.1277,12.75 0,2.34581 2.1815,2.86349 3.7441,0.88847 z m 10.2559,-49.33333 c 0,-3.13272 -2.3485,-2.78984 -2.8196,0.41166 -0.2122,1.44221 0.2077,2.17167 1.25,2.17167 1.0211,0 1.5696,-0.90283 1.5696,-2.58333 z m 17.0136,-39.66667 c 0.01,-1.2375 0.2938,-3.375 0.6361,-4.75 1.0205,-4.09916 -1.3223,-1.02412 -2.4762,3.25 -0.8226,3.04749 -0.7464,3.75 0.4071,3.75 0.8013,0 1.4253,-0.97987 1.433,-2.25 z m 12.706,-2.75592 c -1.4221,-1.11866 -2.7283,-3.00222 -2.9027,-4.18568 -0.54,-3.66622 -2.4148,-3.05984 -4.1431,1.34004 -1.6889,4.29956 -1.3404,6.79413 0.4918,3.5202 0.9001,-1.60845 1.2041,-1.64765 2.675,-0.34491 1.6044,1.42108 5.2385,2.62375 6.0621,2.00621 0.2214,-0.16606 -0.7609,-1.2172 -2.1831,-2.33586 z m -171.7196,-19.76043 c 2.475,-1.39137 10.0534,-8.08814 16.8409,-14.88171 11.8805,-11.89109 15.4989,-14.72394 13.1133,-10.26629 -0.6139,1.1471 -0.8888,2.31308 -0.6108,2.59105 0.5443,0.54431 24.4067,-16.741 49.3761,-35.76674 8.4378,-6.42933 23.2805,-21.15525 23.2805,-23.09739 0,-2.24189 -3.174,0.051 -12.3717,8.93743 -5.5504,5.3625 -10.3249,9.99832 -10.6099,10.30182 -4.1055,4.37053 -26.398,20.39326 -35.2684,25.34912 -6.6327,3.70568 -9.2804,3.6987 -4.1215,-0.0109 7.6208,-5.47977 14.3504,-11.0531 14.8605,-12.30729 1.013,-2.4901 -1.049,-3.29402 -4.6074,-1.79633 -1.8599,0.78279 -8.0153,4.43583 -13.6787,8.11785 -5.6634,3.68203 -11.0634,6.96695 -12,7.29983 -1.6093,0.57197 -9.0734,6.18473 -12.0915,9.09243 -0.7638,0.73581 -4.8831,3.36826 -9.1541,5.84988 -4.8229,2.8023 -7.9973,5.3346 -8.3774,6.6828 -0.5577,1.97869 -0.7024,2.01763 -1.6347,0.44015 -0.5626,-0.95183 -3.1429,-2.94207 -5.734,-4.42274 -2.5912,-1.48068 -7.8971,-5.7366 -11.7909,-9.4576 -7.6092,-7.27144 -8.0864,-7.47588 -19.4203,-8.31901 -4.125,-0.30686 -9.1875,-0.84453 -11.25,-1.19482 -4.7455,-0.80598 -4.9789,0.89883 -0.5,3.65173 3.5992,2.2122 8.6311,3.75862 16.042,4.93013 5.7875,0.91488 10.3228,4.84181 11.31,9.79292 0.8849,4.43785 -0.504,4.16587 -6.6639,-1.30498 -5.5553,-4.9339 -8.2692,-5.37069 -8.7334,-1.40559 -0.4937,4.21732 4.4151,9.39317 12.7953,13.49132 4.125,2.01726 8.9641,4.77218 10.7535,6.12205 4.2916,3.23741 10.141,5.28359 13.2465,4.63375 1.375,-0.28773 4.525,-1.66153 7,-3.0529 z m -47.5812,-24.2524 c 1.5342,-1.53429 -0.9281,-3.3264 -3.5956,-2.61687 -3.5611,0.9472 -5.1584,2.28426 -4.33,3.62456 0.8272,1.33847 6.2716,0.64624 7.9256,-1.00769 z m 73.0812,-15.43129 c 7.023,-5.23958 24.089,-22.83052 33.0337,-34.04996 6.5884,-8.26377 15.7584,-16.59564 23.2932,-21.16399 6.3027,-3.82137 17.6592,-11.27894 22.1768,-14.56301 1.3066,-0.94985 2.0832,-2.01947 1.7257,-2.37693 -1.1051,-1.10515 -26.8349,13.46824 -34.2294,19.38758 -14.5053,11.61166 -57.5,55.47948 -57.5,58.66771 0,1.53555 4.9065,-0.98233 11.5,-5.9014 z m 134.4637,-17.00616 c 0.6646,-0.8009 0.8917,-1.96881 0.5044,-2.59535 -0.3872,-0.62653 -0.1288,-2.21383 0.5741,-3.52733 0.9042,-1.68947 0.9875,-3.03959 0.2846,-4.61469 -0.9245,-2.07189 -0.9935,-2.01231 -0.9935,0.85789 0,1.69641 -0.9185,4.94093 -2.0412,7.21004 -1.4269,2.88404 -1.6644,4.12564 -0.7891,4.12564 0.6887,0 1.7959,-0.65529 2.4607,-1.4562 z m 6.3639,-5.7938 c 2.4748,-5.93837 2.7979,-13.15632 1.0939,-24.44175 -1.9546,-12.94523 -1.3622,-28.25285 1.6179,-41.80825 1.0882,-4.95 2.5035,-11.7 3.145,-15 0.6415,-3.3 1.3432,-6.21828 1.5594,-6.48506 0.2161,-0.26678 1.2949,0.63322 2.3972,2 l 2.0042,2.48506 -0.6516,-4 c -0.8227,-5.05011 -4.052,-12.5 -5.4183,-12.5 -1.7178,0 -2.3852,4.80612 -1.7352,12.49564 0.5911,6.99223 0.4966,7.42972 -2.4979,11.56343 -5.7822,7.9822 -22.2618,23.42067 -36.7852,34.46136 -13.3379,10.13942 -27.9114,23.53288 -30.1889,27.74441 -0.6737,1.24593 -0.5741,1.89176 0.3388,2.19652 1.3093,0.43708 24.7931,3.89354 34.6657,5.10226 5.8257,0.71326 7.0834,-0.0586 7.1121,-4.3646 0.016,-2.40312 6.0514,-8.73153 9.3387,-9.79212 1.1302,-0.36462 2.3538,0.11155 3.2182,1.2524 1.2533,1.654 1.398,1.66918 1.4266,0.14972 0.048,-2.56162 1.8543,-3.15531 4.4417,-1.46 2.0442,1.33937 2.4079,2.61993 3.0402,10.70206 0.4833,6.17801 0.3636,9.53523 -0.366,10.26478 -1.3524,1.35249 -1.4008,2.68414 -0.098,2.68414 0.5427,0 1.5961,-1.4625 2.3411,-3.25 z m 52.6638,-45.10363 c 3.5737,-1.7078 13.3428,-7.83923 20.4609,-12.842 2.1766,-1.52977 -0.317,-1.64931 -4.999,-0.23964 -2.7243,0.82026 -8.8155,1.76579 -13.5359,2.10119 -7.9856,0.56738 -8.7262,0.45568 -10.6467,-1.60574 -1.1719,-1.25789 -2.9915,-5.96406 -4.2096,-10.88786 -2.1463,-8.67536 -6.6493,-19.17232 -8.2246,-19.17232 -1.1772,0 -1.0713,0.67814 1.2501,8 1.1334,3.575 2.7516,9.875 3.5958,14 0.8443,4.125 1.7732,8.56251 2.0642,9.86113 0.4712,2.10285 0.2678,2.28089 -1.8588,1.62761 -3.4575,-1.06212 -4.9977,-2.54075 -6.7591,-6.48874 -1.5433,-3.45928 -1.5655,-3.46921 -1.9016,-0.85305 -0.5129,3.99263 2.2732,9.71258 5.2896,10.85941 3.4288,1.30361 13.9793,1.26128 18.7929,-0.0754 6.7233,-1.86698 6.324,-0.39668 -1.0882,4.00681 -3.9718,2.35959 -7.2214,4.4942 -7.2214,4.74358 0,0.69758 4.0208,-0.65961 8.9914,-3.03498 z m -56.1681,-62.36827 c 0.1815,-0.71722 -0.5489,-1.2781 -1.6642,-1.2781 -1.2911,0 -4.2935,2.891 -8.5678,8.25 -3.6192,4.5375 -6.5827,8.64721 -6.5858,9.13268 -0.01,1.21344 16.4152,-14.51281 16.8178,-16.10458 z m 20.1198,-2.2218 c 1.1439,-0.72374 1.2121,-1.42017 0.3289,-3.3586 -1.2601,-2.76574 -6.5261,-4.24006 -11.3558,-3.17929 -4.0954,0.8995 -3.6289,2.68568 1.3338,5.10662 4.8125,2.34768 7.5953,2.75858 9.6931,1.43127 z m 1.1724,171.15946 c -2.2676,-4.23703 -7.0939,-29.2185 -7.108,-36.79145 -0.01,-5.39177 1.7736,-6.94794 15.9925,-13.95398 20.8102,-10.25373 37.2818,-22.96347 45.474,-35.08855 2.1857,-3.23498 6.8426,-9.48178 10.3487,-13.88178 3.5062,-4.4 8.5335,-12.275 11.1719,-17.5 3.4247,-6.78228 5.8996,-10.33186 8.6512,-12.40784 7.7898,-5.87711 15.2306,-17.67383 23.7112,-37.59216 2.4588,-5.775 5.2136,-13.37799 6.1219,-16.89553 1.7328,-6.71117 7.0621,-20.24479 11.1967,-28.43361 1.3411,-2.65603 2.2822,-5.29745 2.0914,-5.86981 -1.0811,-3.24331 -11.2211,16.88968 -15.1246,30.02991 -2.2098,7.43889 -9.3831,25.02527 -13.4277,32.91985 -10.4075,20.31454 -20.1008,27.08993 -34.8649,24.36955 -14.6609,-2.70137 -28.1126,-12.95092 -44.124,-33.62036 -9.7826,-12.62851 -16.8432,-19.754 -22.3657,-22.57138 -2.8315,-1.44451 -3.8601,-2.59741 -3.8601,-4.3265 0,-1.29648 -0.675,-2.91743 -1.5,-3.60212 -2.3521,-1.95203 -1.9665,-10.53615 0.6375,-14.19313 1.7613,-2.47351 2.6345,-2.90246 4.9612,-2.43712 1.5531,0.31061 3.0596,0.18321 3.3477,-0.2831 0.997,-1.61309 5.4292,-1.85313 6.0153,-0.32578 0.4424,1.15266 0.8675,1.21082 1.9973,0.27319 0.9725,-0.80714 3.2255,-0.9675 6.9881,-0.4974 3.5243,0.44032 5.5529,0.32545 5.5529,-0.31445 0,-1.38413 -2.499,-2.22221 -6.6263,-2.22221 -6.755,0 -16.3843,-3.0865 -18.1802,-5.82737 -4.6739,-7.13335 1.1157,-27.7785 8.2954,-29.58049 3.2399,-0.81315 3.2561,-3.50606 0.051,-8.36358 -7.0605,-10.69903 -9.5317,-32.9588 -4.6881,-42.22856 3.2728,-6.26338 9.1335,-13.21981 10.648,-12.63866 0.8065,0.30948 1.4561,-0.69931 1.7949,-2.78712 1.0152,-6.25548 10.7898,-14.48926 20.0813,-16.91559 10.6523,-2.78172 19.9255,0.20041 29.7299,9.56078 8.6397,8.24842 13.3852,15.35349 19.9033,29.79982 3.3172,7.35212 6.7844,14.19965 7.7048,15.21674 3.3559,3.70818 16.7217,10.92155 26.1956,14.13749 5.3413,1.81313 12.1467,4.60834 15.1231,6.21157 9.7325,5.24249 13.5855,15.41497 5.8388,15.41497 -0.531,0 -2.9173,-1.9125 -5.3029,-4.25 -4.0878,-4.00535 -17.5915,-11.83162 -20.3181,-11.77565 -1.5807,0.0324 -1.6027,1.27298 -0.05,2.82565 0.9333,0.93333 0.5167,1.2 -1.875,1.2 -2.644,0 -3.1626,0.43801 -3.7,3.125 -0.9292,4.64591 -0.8411,4.875 1.875,4.875 1.8333,0 2.5,-0.53333 2.5,-2 0,-1.33333 0.6667,-2 2,-2 1.3333,0 2,-0.66667 2,-2 0,-4.83234 8.5744,-0.31148 13.6057,7.17362 3.3332,4.95881 4.6974,10.5895 3.8702,15.97408 -0.3752,2.44269 0.136,1.73169 1.884,-2.62035 1.3194,-3.28496 3.2388,-6.43496 4.2652,-7 1.0265,-0.56504 3.0353,-1.79532 4.464,-2.73394 1.9663,-1.29177 2.8789,-1.42546 3.7543,-0.55 1.8768,1.87677 1.3548,3.91081 -2.6319,10.25659 -5.667,9.02038 -11.4069,20.4138 -10.9599,21.75486 0.344,1.03181 4.4953,-6.02105 10.8232,-18.38816 1.9451,-3.80136 7.2394,-8.87141 9.2519,-8.86011 1.9346,0.0109 5.9578,3.18135 11.1006,8.74777 10.4382,11.29794 37.9998,29.52986 64.5727,42.71464 9.7694,4.84735 20.0023,14.57199 19.9951,19.00211 -0.01,3.77676 -4.7032,13.00457 -14.3794,28.24945 -9.2646,14.59634 -12.4995,18.9646 -20.1752,27.24366 -5.4358,5.86302 -13.8252,15.67283 -24.737,28.92502 -3.8932,4.72822 -8.8237,11.91075 -12.4324,18.11076 -12.6082,21.66197 -13.9394,30.38598 -6.1414,40.25 l 2.9646,3.75 -2.3601,0 c -3.3976,0 -7.1727,-4.55207 -9.7681,-11.77861 l -2.2549,-6.27862 -7.6056,0.71463 c -4.1831,0.39305 -13.6806,0.74343 -21.1056,0.77862 -11.9517,0.0566 -13.9588,-0.1813 -17.5,-2.07466 -4.6612,-2.49215 -22.4575,-7.27514 -30.6986,-8.25064 -3.1342,-0.371 -5.9857,-0.96173 -6.3367,-1.31273 -0.351,-0.351 0.6383,-1.45382 2.1985,-2.45071 1.5603,-0.99688 3.4032,-2.57696 4.0954,-3.51128 1.5538,-2.09703 10.1872,-5.40541 16.6252,-6.37084 4.7623,-0.71415 4.8017,-0.75093 4.4087,-4.11705 -0.2788,-2.38824 0.1449,-3.88645 1.4274,-5.04707 1.6955,-1.53445 2.071,-1.53275 5.3359,0.0242 1.9316,0.92113 4.7796,1.67478 6.3289,1.67478 1.5493,0 4.1215,0.41456 5.7161,0.92125 1.5946,0.50668 8.486,1.14269 15.3144,1.41335 l 12.4152,0.4921 4.7979,-4.66335 c 6.9301,-6.73577 24.1288,-35.76192 31.2042,-52.66335 4.8938,-11.69001 14.4515,-27.12073 21.3691,-34.5 1.8046,-1.925 3.285,-4.02467 3.2897,-4.66593 0,-0.64127 -5.5038,-3.2667 -12.2413,-5.83429 -17.8588,-6.8058 -21.5364,-8.33727 -28.75,-11.97229 -8.914,-4.49191 -25.4151,-13.99591 -31.668,-18.23957 -2.9134,-1.97723 -5.6826,-3.18929 -6.3476,-2.77828 -2.9644,1.83209 -8.2243,16.54863 -13.9358,38.99036 -6.9875,27.45501 -8.9574,33.63685 -13.3788,41.98439 -3.9705,7.49599 -13.3976,17.1436 -20.911,21.39991 -3.1576,1.7888 -6.4034,4.19795 -7.2129,5.35367 -0.8095,1.15573 -3.3429,7.76248 -5.6298,14.68167 -7.1361,21.59085 -12.8648,31.68619 -21.6667,38.18156 -1.7879,1.31934 -9.0114,8.0238 -16.0522,14.8988 -14.134,13.80096 -30.0042,28 -31.2956,28 -0.4572,0 -1.2609,-0.80291 -1.7861,-1.78424 z m 144.2297,-42.16656 c 11.7624,-1.05071 12.9247,-1.86449 17.6555,-12.36135 1.7817,-3.95332 4.5393,-10.00974 6.128,-13.45872 1.5887,-3.44899 3.8552,-9.07399 5.0368,-12.5 5.2518,-15.2283 21.2187,-44.80167 32.2481,-59.72913 3.0479,-4.125 6.7891,-9.19432 8.314,-11.26515 2.5386,-3.44768 3.0886,-3.72071 6.5224,-3.23818 5.3281,0.74873 4.9724,-1.81384 -0.4784,-3.44697 l -4.2285,-1.26687 -4.2837,4.85859 c -6.1942,7.02537 -13.3697,18.84369 -21.2719,35.03551 -3.8054,7.79731 -8.4401,16.57231 -10.2993,19.5 -1.8593,2.92769 -5.2999,8.92226 -7.6458,13.32127 -5.1509,9.65899 -13.2064,20.01811 -17.154,22.0595 -3.0482,1.57632 -3.6324,3.29829 -1.7556,5.17508 0.623,0.62303 0.8159,1.95053 0.4287,2.95 -0.6319,1.63116 -0.9112,1.53407 -2.7274,-0.94827 -3.0935,-4.2279 -5.4266,-5.0187 -17.3341,-5.87537 -11.8591,-0.85319 -21.9462,-2.22354 -24.75,-3.36233 -2.5404,-1.03183 -2.2543,1.81336 0.5,4.97187 1.4401,1.6515 4.5685,3.22815 8.6915,4.38034 5.9785,1.67071 9.3285,4.15098 5.6066,4.15098 -0.8901,0 -2.7319,0.72955 -4.0928,1.62121 -2.2838,1.49643 -3.2625,1.4923 -12.7148,-0.0536 -12.4411,-2.03472 -25.2405,-1.81546 -25.2405,0.43239 0,1.17596 1.9442,1.63491 9,2.1245 10.4583,0.72569 22.4954,3.33161 27.5,5.95349 3.984,2.08716 10.9696,2.34468 26.3452,0.97121 z m -38.3452,-15.12633 c 0,-1.28591 -6.5962,-2.22121 -10.5,-1.48885 -5.1398,0.96423 -4.2763,2.21477 2.25,3.25872 5.4835,0.87713 8.25,0.28363 8.25,-1.76987 z m -15.0872,-61.56914 c 0.5637,-2.04149 3.2709,-5.56615 7.003,-9.11753 3.3463,-3.18421 6.0842,-6.63027 6.0842,-7.6579 0,-1.42871 -1.2492,-0.68702 -5.308,3.15168 -2.9194,2.76105 -6.8569,5.80856 -8.75,6.77223 -1.8931,0.96368 -3.6117,1.90207 -3.819,2.08533 -0.6686,0.59086 -1.9577,8.87083 -1.4972,9.61609 1.0375,1.67858 5.4173,-1.70014 6.287,-4.8499 z m -26.9128,-37.11622 c 0,-0.41937 -2.84,-1.57584 -6.3112,-2.56993 -11.2256,-3.21487 -19.1147,-12.02433 -20.3868,-22.76518 -0.539,-4.55146 -2.302,-8.01337 -2.302,-4.52043 0,2.13563 -2.0608,3.13134 -3.0965,1.49615 -2.1441,-3.38521 -0.7016,4.58671 1.6806,9.28791 5.605,11.06079 17.1552,19.83397 26.1122,19.83397 2.367,0 4.3037,-0.34312 4.3037,-0.76249 z m 173,-1.8363 c 0,-0.87933 -1.4309,-2.93544 -3.1797,-4.56911 l -3.1798,-2.97033 2.9298,-2.39492 c 1.6113,-1.31721 3.2672,-2.41111 3.6797,-2.43089 2.1418,-0.1027 0.1481,-1.91453 -4.7501,-4.31684 -3.0251,-1.48364 -9.1358,-4.95238 -13.5792,-7.70832 -4.4435,-2.75594 -8.2316,-5.0108 -8.4181,-5.0108 -0.3328,0 -22.1504,-13.66989 -30.0026,-18.79827 -5.6163,-3.6681 -17.0918,-12.71815 -22.9149,-18.07174 l -4.9149,-4.51858 -3.8324,4.44429 c -2.1078,2.44437 -3.8336,4.7818 -3.8351,5.1943 -10e-4,0.4125 2.2652,0.75 5.0371,0.75 5.9994,0 10.3342,2.02063 21.4602,10.0036 9.6463,6.92127 23.2454,15.86252 26,17.09469 1.1,0.49205 5.15,2.93023 9,5.41818 3.85,2.48795 10.6508,6.30664 15.113,8.48598 4.4621,2.17934 8.617,4.56976 9.233,5.31204 1.8571,2.23757 -0.8808,4.74904 -5.8811,5.39476 -4.2786,0.55253 -9.9649,3.53972 -9.9649,5.23492 0,0.44438 1.9678,0.10037 4.3728,-0.76449 3.6578,-1.31532 5.0443,-1.37129 8.4788,-0.34228 2.2583,0.6766 4.903,2.32583 5.8772,3.66497 2.0593,2.83079 3.2712,3.1638 3.2712,0.89884 z m -137.6291,-10.65121 c 2.6321,-4.55627 10.9296,-27.78284 10.1895,-28.52291 -0.2447,-0.24469 -1.8802,1.88781 -3.6345,4.73889 -1.7543,2.85108 -4.1873,5.5631 -5.4067,6.02672 -1.8225,0.69291 -2.3279,1.881 -2.8398,6.67512 -0.3425,3.2077 -0.9216,7.96968 -1.287,10.58218 -0.3653,2.6125 -0.397,4.75 -0.071,4.75 0.3266,0 1.6986,-1.9125 3.049,-4.25 z m 142.6291,-0.25 c 0,-1.4812 -0.5729,-2.5 -1.4059,-2.5 -1.141,0 -1.1881,0.46958 -0.25,2.4922 1.4469,3.11952 1.6559,3.1205 1.6559,0.008 z m -168.7234,-3.88053 c 6.6567,-6.16924 10.3656,-18.09832 12.2765,-39.48577 2.2856,-25.58039 0.5028,-39.77198 -7.3448,-58.46885 -3.3812,-8.05578 -4.1658,-9.13169 -8.8947,-12.19689 -5.4476,-3.53106 -7.1237,-5.70741 -8.8321,-11.46796 -1.0298,-3.47249 -1.0876,-3.50236 -7.3539,-3.80016 -8.543,-0.406 -17.0768,3.52212 -24.7694,11.40135 -4.1447,4.24535 -5.796,5.36099 -6.6584,4.4986 -0.6307,-0.63074 -2.3999,-5.97372 -3.9315,-11.87329 -1.5316,-5.89958 -2.5569,-8.7015 -2.2785,-6.2265 0.2784,2.475 1.2809,7.58382 2.2277,11.35294 1.674,6.66397 1.6682,6.89183 -0.2076,8.26348 -2.3827,1.74227 -3.9134,1.31716 -4.3184,-1.19929 -0.6905,-4.28979 -1.155,-4.89132 -2.5831,-3.34467 -0.725,0.78515 -2.0686,3.37449 -2.9858,5.7541 -1.585,4.11219 -1.5618,4.92974 0.4691,16.5 1.3347,7.60382 2.9981,13.67494 4.4311,16.17344 3.4866,6.07878 25.951,26.40305 33.4353,30.25 8.9423,4.59642 14.9413,4.55061 19.6419,-0.15 1.87,-1.87 3.4,-2.95054 3.4,-2.40121 0,1.94365 -6.1896,6.74615 -9.4935,7.36596 -3.962,0.74329 -9.0662,-0.23018 -12.2932,-2.34455 -3.9959,-2.61821 -4.7298,-0.51712 -4.571,13.08663 0.1649,14.13001 2.4129,21.92194 7.9175,27.44317 3.1454,3.15486 3.4877,3.25 11.6942,3.25 7.5184,0 8.7382,-0.26344 11.0226,-2.38053 z m -25.1031,-50.91041 c -1.3892,-1.67391 -0.5622,-2.70906 2.1644,-2.70906 1.1026,0 2.8182,-0.73625 3.8125,-1.63612 1.6779,-1.51843 1.8568,-1.50865 2.4879,0.13592 0.374,0.97463 0.2255,2.49838 -0.33,3.38612 -1.3077,2.08983 -6.6361,2.62899 -8.1348,0.82314 z m -2.217,-6.62778 c 1.1726,-2.19104 5.9921,-3.54976 9.0964,-2.56449 1.1538,0.3662 1.8764,0.88723 1.6058,1.15785 -0.2706,0.27061 -0.642,0.43048 -0.8254,0.35526 -0.1833,-0.0752 -2.0063,0.56228 -4.0512,1.41667 -5.2494,2.19333 -7.1318,2.0753 -5.8256,-0.36529 z m 27.1664,-3.58128 c -0.022,-1.1 0.8232,-3.575 1.8771,-5.5 2.4809,-4.53154 2.5249,-1.72001 0.055,3.5 -1.2651,2.67338 -1.9058,3.33669 -1.9319,2 z m -54.8003,-16.1678 c -2.7761,-0.57664 -4.7082,-2.88484 -3.9873,-4.76348 0.3074,-0.80122 2.3431,-1.99129 4.5237,-2.64462 3.509,-1.05131 4.4921,-0.93254 8.5529,1.03323 4.1833,2.02512 5.7595,4.23011 3.8381,5.36932 -1.2744,0.75559 -10.628,1.48316 -12.9274,1.00555 z m 4.6774,-3.27318 c 0,-0.51754 -0.45,-1.2191 -1,-1.55902 -0.55,-0.33992 -1,0.0835 -1,0.94098 0,0.85746 0.45,1.55902 1,1.55902 0.55,0 1,-0.42344 1,-0.94098 z m 26.3025,-8.71305 c -0.3491,-0.90972 0,-3.49029 0.7814,-5.7346 2.468,-7.11179 14.1656,-11.72597 12.4557,-4.91323 -0.8103,3.22859 -5.049,8.4312 -8.6939,10.67087 -3.3097,2.03376 -3.7548,2.0315 -4.5432,-0.023 z m 8.6975,-7.34597 c 0,-2.27384 -2.5079,-2.72482 -3.3241,-0.59777 -0.6276,1.63544 0.1099,2.59777 1.9908,2.59777 0.7333,0 1.3333,-0.9 1.3333,-2 z m 3,-4 c 0,-0.55 -0.45,-1 -1,-1 -0.55,0 -1,0.45 -1,1 0,0.55 0.45,1 1,1 0.55,0 1,-0.45 1,-1 z m -42.5,10.56018 c 3.5471,-1.73805 6.1436,-1.94584 7,-0.56018 0.3668,0.59344 -0.7957,1 -2.8592,1 -1.9125,0 -4.3015,0.23179 -5.309,0.51508 -1.0075,0.2833 -0.4818,-0.14641 1.1682,-0.9549 z m 30.7948,-10.60663 c 0.8907,-1.35944 3.0554,-3.31991 4.8103,-4.35659 4.1564,-2.45519 2.9746,-0.62019 -2.2813,3.54263 -3.6571,2.89641 -3.9567,2.99284 -2.529,0.81396 z m -33.7528,85.29645 c 1.3153,-6.23476 3.411,-9.18277 8.6725,-12.19955 2.907,-1.6668 5.7355,-3.20378 6.2855,-3.4155 0.6667,-0.25663 0.6667,-0.73324 0,-1.42981 -1.5304,-1.5991 -24.5,10.00943 -24.5,12.38201 0,1.20392 6.8157,7.3144 8.231,7.37932 0.402,0.0184 0.992,-1.20397 1.311,-2.71647 z m 102.4124,-31.91913 c 2.8033,-3.56378 2.1199,-4.89942 -2.3034,-4.50214 -2.4235,0.21765 -4.7966,-0.37365 -7.0236,-1.75 -3.9997,-2.47195 -4.7577,-2.58192 -3.989,-0.57873 0.3166,0.825 1.2399,1.5 2.0519,1.5 2.8573,0 0.6169,2.50383 -2.5173,2.81336 -1.7452,0.17235 -3.173,0.71901 -3.173,1.21481 0,1.70572 4.2283,3.16013 8.1108,2.78988 2.139,-0.204 3.8892,-0.0215 3.8892,0.40552 0,1.74519 2.9919,0.60222 4.9544,-1.8927 z m -93.0329,-6.08087 c -2.9775,-4.98113 -3.9215,-5.98556 -3.9215,-4.17251 0,2.21615 4.1395,7.82905 5.8316,7.9072 0.1823,0.008 -0.6772,-1.67219 -1.9101,-3.73469 z m -10.4843,-6.76701 c 0.8129,-4.33323 -0.1408,-6.27056 -1.9016,-3.86261 -1.1954,1.63486 -1.3371,1.61897 -2.3442,-0.26271 -0.818,-1.52853 -1.9148,-1.9364 -4.6316,-1.72243 -2.2572,0.17776 -3.5714,-0.16162 -3.5916,-0.92745 -0.017,-0.66428 -0.6925,-0.33428 -1.5,0.73334 -0.8075,1.06762 -1.4327,3.09262 -1.3892,4.5 0.043,1.40738 0.2886,2.04825 0.5449,1.42415 0.3475,-0.8463 1.088,-0.8463 2.9132,0 1.346,0.6241 2.4508,1.46097 2.4551,1.85972 0,0.39875 1.3032,0.46592 2.8865,0.14926 1.6369,-0.32739 3.1722,-0.10091 3.559,0.525 1.2452,2.01475 2.3326,1.13883 2.9995,-2.41627 z m 84.0285,-7.61517 c -1.6975,-6.551 -3.3088,-10.35801 -4.0643,-9.60253 -0.739,0.73901 2.571,14.9965 3.8352,16.5198 1.9125,2.3044 1.9925,-0.11212 0.2291,-6.91727 z m -88.2815,-52.21193 c 1.291,-2.41234 0.1265,-8.65589 -1.6145,-8.65589 -1.4124,0 -4.5697,4.162 -4.5697,6.02383 0,0.60181 0.5185,0.77373 1.1523,0.38205 0.84,-0.51916 0.9639,0.4659 0.4572,3.63469 l -0.6951,4.34686 2.1354,-1.93253 c 1.1745,-1.06288 2.585,-2.77244 3.1344,-3.79901 z m 22.1336,-8.08474 c 1.7514,-1.33587 5.4339,-3.4326 8.1833,-4.6594 3.7599,-1.6777 4.5032,-2.32949 2.9989,-2.6297 -4.7197,-0.94193 -4.9147,-1.35161 -1.6025,-3.36589 2.2943,-1.39529 3.0966,-2.4892 2.66,-3.62705 -0.8497,-2.21417 1.12,-3.25552 6.1925,-3.2738 2.3375,-0.008 4.25,-0.47645 4.25,-1.04006 0,-4.95285 -28.4168,-2.96391 -31.6163,2.21288 -1.116,1.80576 0.3891,1.88788 3.9016,0.21286 3.3778,-1.61076 6.7147,-1.41884 6.7147,0.3862 0,0.46748 -1.4625,1.57077 -3.25,2.45176 l -3.25,1.60181 2.9608,-0.17038 c 3.6289,-0.20882 4.8225,2.78754 1.5271,3.83348 -2.0058,0.63661 -2.0253,0.74829 -0.3447,1.97722 1.4893,1.08899 1.5678,1.55977 0.4788,2.87198 -0.7165,0.86322 -2.162,1.84224 -3.2123,2.1756 -2.0001,0.63481 -2.6889,3.47134 -0.843,3.47134 0.5867,0 2.4997,-1.09298 4.2511,-2.42885 z"
           id="path17098" />
        <path
           style="fill:#11155f"
           d="m -1852.7144,-343.28064 c -0.3399,-0.55 -0.1415,-1 0.441,-1 0.5824,0 1.059,0.45 1.059,1 0,0.55 -0.1984,1 -0.441,1 -0.2425,0 -0.7191,-0.45 -1.059,-1 z m 24.5,-0.93863 c 0,-1.08151 3.4644,-4.06137 4.7217,-4.06137 0.5854,0 1.3413,-0.72169 1.6797,-1.60375 0.3385,-0.88207 1.2307,-1.36765 1.9827,-1.07908 0.752,0.28857 1.3107,-0.002 1.2416,-0.64625 -0.164,-1.52785 5.572,-12.67092 6.5225,-12.67092 1.3609,0 -2.3315,9.015 -4.2399,10.3517 -1.0426,0.73023 -1.5953,1.628 -1.2282,1.99505 0.8344,0.83439 -6.3752,7.34025 -8.852,7.98795 -1.0054,0.26293 -1.8281,0.13993 -1.8281,-0.27333 z m 285.8438,-14.55088 c -0.2009,-0.20097 -11.8355,-0.48598 -25.8546,-0.63336 -64.2874,-0.67585 -93.3915,-5.04074 -142.4892,-21.36979 -27.5542,-9.16405 -48.4728,-18.35285 -60.7668,-26.69266 -3.1717,-2.15159 -6.1669,-3.66465 -6.6561,-3.36235 -0.5103,0.3154 -0.4519,1.97488 0.1371,3.89398 1.155,3.76329 -0.3157,7.79365 -4.7997,13.15369 l -2.5098,3 1.2431,-3 c 0.6837,-1.65 1.6935,-3.60254 2.244,-4.33898 0.5504,-0.73643 1.1187,-4.44182 1.2629,-8.23419 0.1841,-4.84512 0.8332,-7.71755 2.183,-9.66102 1.0565,-1.5212 3.5418,-5.69081 5.5229,-9.26581 3.4775,-6.27545 10.4679,-15 12.0184,-15 0.415,0 2.412,-1.59217 4.4378,-3.53816 4.0452,-3.88593 26.2197,-18.938 32.8754,-22.31587 2.3056,-1.17018 4.8851,-1.86167 5.7321,-1.53664 0.847,0.32502 3.8752,4.70839 6.7292,9.74081 6.1192,10.78956 8.5482,14.09173 19.9744,27.15503 6.2342,7.1274 10.2707,10.87583 19.3721,17.98963 6.8384,5.34498 28.5675,19.5052 29.931,19.5052 0.249,0 4.1914,1.73027 8.7608,3.84505 11.6984,5.41404 12.512,5.72073 24.01,9.05028 11.0641,3.20392 14.9102,3.784 32.9834,4.97471 15.8432,1.0438 33.0411,-0.19017 46.3148,-3.32315 12.7976,-3.02061 36.5674,-10.30822 37.95,-11.63516 0.5225,-0.50145 1.6475,-0.91529 2.5,-0.91964 3.5043,-0.0179 30.8295,-13.70743 48.8878,-24.49209 8.3713,-4.99949 15.3235,-8.51832 16.0017,-8.09918 0.8662,0.53531 -2.4224,17.32481 -5.189,26.49202 -5.2571,17.41937 -14.9232,35.17319 -18.1631,33.36007 -1.5462,-0.86532 -9.7589,-0.41355 -48.4874,2.66718 -27.7876,2.21042 -45.5398,3.20672 -46.1562,2.5904 z m -268.8438,-8.78481 c 0,-1.4342 0.4653,-2.89524 1.0341,-3.24674 0.6544,-0.40443 0.8541,0.35331 0.544,2.06368 -0.6685,3.68623 -1.5781,4.36816 -1.5781,1.18306 z m 2,-5.47553 c 0,-0.47734 0.6526,-1.7414 1.4503,-2.80902 1.3991,-1.87274 1.4301,-1.86131 0.8793,0.32445 -0.5689,2.25724 -2.3296,4.13508 -2.3296,2.48457 z m 404,-4.2152 c 0,-1.31217 2.848,-9.73987 4.7428,-14.03495 2.1893,-4.96247 13.8862,-28.36007 17.7472,-35.5 1.7845,-3.3 5.1777,-9.6 7.5404,-14 7.0348,-13.10051 7.839,-13.86553 18.7668,-17.853 17.1993,-6.27588 37.5897,-12.19529 56.2028,-16.31584 7.5681,-1.67542 30.9017,-5.3502 36,-5.66959 1.925,-0.1206 3.95,-0.49369 4.5,-0.8291 0.55,-0.33541 3.5358,-0.90081 6.6351,-1.25644 3.0992,-0.35563 6.4742,-0.79869 7.5,-0.98459 13.9933,-2.53612 55.0421,-3.29584 65.3649,-1.20976 17.8838,3.61404 25.4716,11.31932 23.5785,23.94342 -1.0351,6.90237 -7.0334,18.33973 -12.3455,23.53974 -4.8105,4.70904 -17.6126,14.13516 -19.1976,14.13516 -0.4778,0 -1.0187,0.38507 -1.2021,0.85571 -0.7385,1.89586 -16.044,9.16648 -27.3333,12.98423 -14.6011,4.93772 -42.8961,12.00463 -62.5,15.6099 -7.975,1.46665 -21.025,3.95569 -29,5.53122 -7.975,1.57552 -16.525,3.15644 -19,3.51315 -2.475,0.35672 -9.0467,1.49935 -14.6038,2.53917 -8.9575,1.67611 -52.3502,5.96662 -60.3442,5.96662 -1.6786,0 -3.052,-0.43427 -3.052,-0.96505 z m -401,-2.03495 c 0,-0.55 0.7016,-1 1.559,-1 0.8575,0 1.2809,0.45 0.941,1 -0.3399,0.55 -1.0415,1 -1.559,1 -0.5176,0 -0.941,-0.45 -0.941,-1 z m 9.0216,-4.82029 c 0.8369,-0.37384 3.6494,-2.16383 6.25,-3.97775 2.6006,-1.81392 4.7284,-3.01105 4.7284,-2.66029 0,0.96952 -4.3465,4.38726 -5.6276,4.42506 -0.6201,0.0183 -1.6877,0.70827 -2.3724,1.53327 -0.6847,0.825 -1.9773,1.46837 -2.8724,1.42971 -1.4046,-0.0607 -1.4191,-0.1634 -0.106,-0.75 z m -5.3968,-45.64448 c 0.3193,-0.83202 -1.5508,-2.896 -4.8009,-5.29866 -5.8335,-4.31246 -11.9654,-10.98116 -25.504,-27.73657 -8.9824,-11.11662 -11.3293,-13.95618 -16.8847,-20.42906 -6.3875,-7.44238 -24.8933,-34.86052 -27.7208,-41.07094 -0.3755,-0.825 -3.8922,-6.675 -7.8146,-13 -8.8674,-14.2986 -18.6923,-33.80998 -22.6596,-45 -14.6215,-41.24011 -16.9081,-63.10804 -10.2464,-97.99095 3.6807,-19.27313 9.1932,-32.72643 18.8522,-46.00905 6.1629,-8.47482 21.3435,-24 23.4673,-24 0.7695,0 3.5032,-1.60662 6.0749,-3.57027 2.5717,-1.96365 7.1822,-4.88865 10.2454,-6.5 6.9079,-3.63376 15.8017,-3.96568 25.5535,-0.95366 21.3132,6.58298 33.3428,25.89765 54.4156,87.36937 5.963,17.39485 12.3973,43.83279 12.3973,50.93952 0,1.35894 0.6802,4.09871 1.5115,6.08839 1.5464,3.70091 1.9333,5.01188 7.8596,26.62665 1.885,6.875 5.9977,21.725 9.1393,33 3.1416,11.275 5.9366,21.4 6.2112,22.5 0.2746,1.1 1.3496,4.8599 2.3888,8.35534 2.0435,6.873 2.4494,12.68067 0.9509,13.60677 -0.5163,0.31909 -2.3561,3.0576 -4.0886,6.08559 -1.7324,3.02799 -7.9829,11.90598 -13.89,19.72887 -5.9071,7.82288 -14.2763,19.39843 -18.5982,25.72343 -8.3063,12.15606 -11.9525,16.97414 -19.8092,26.17579 -4.7642,5.5798 -8.1114,8.12417 -7.0505,5.35944 z m 236.7788,-161.9258 c -0.748,-1.94928 2.4711,-25.88414 3.6383,-27.0513 0.5269,-0.52697 0.9581,-2.67598 0.9581,-4.77558 0,-2.09959 0.8952,-7.97209 1.9894,-13.05 1.0942,-5.0779 2.645,-12.83255 3.4462,-17.23255 0.8013,-4.4 2.6061,-12.94179 4.0106,-18.98176 3.3597,-14.44727 3.3195,-16.07093 -0.4462,-18.01824 -1.65,-0.85325 -2.9857,-2.3273 -2.9682,-3.27568 0.043,-2.34478 2.3547,-5.22432 4.1936,-5.22432 0.8277,0 2.6491,-0.9 4.0475,-2 1.3984,-1.1 2.9513,-2 3.451,-2 1.0929,0 6.9023,-11.94562 6.4782,-13.32109 -0.1638,-0.53146 0.019,-2.36413 0.406,-4.0726 l 0.7038,-3.10631 0.8468,3 c 0.4657,1.65 0.5847,4.2375 0.2646,5.75 -0.3202,1.5125 -0.1489,2.75 0.3806,2.75 1.7037,0 1.927,3.42662 0.5346,8.2022 -1.2486,4.28207 -4.2324,7.9986 -9.8385,12.25448 -1.9944,1.51407 -1.9941,1.52324 0.1173,3.28082 1.1645,0.96937 2.6121,3.81508 3.2169,6.32378 1.9106,7.92582 9.1462,52.67359 9.1588,56.64221 0.01,2.15979 -0.052,2.16971 -2.9777,0.5 -1.6416,-0.93692 -3.4182,-2.94099 -3.948,-4.45349 -1.3594,-3.88101 -2.708,-3.42895 -5.0397,1.68936 -2.6685,5.85778 -4.0276,6.57305 -4.0276,2.11966 0,-4.67504 -1.0489,-4.46023 -3.5,0.71678 -2.6122,5.5172 -2.5272,6.28558 0.6545,5.91515 4.3956,-0.51176 4.1406,1.47283 -0.6293,4.89832 -4.9734,3.57162 -7.9852,8.8886 -9.0128,15.91073 -0.3622,2.475 -0.8809,5.2875 -1.1528,6.25 -0.588,2.08157 -4.1948,2.34315 -4.956,0.35943 z m -151.7271,-46.01019 c -0.324,-0.84435 -0.1899,-1.78194 0.2981,-2.08353 1.3075,-0.80811 2.4162,1.49346 1.2711,2.63864 -0.6402,0.64011 -1.1845,0.44756 -1.5692,-0.55511 z m 4.3235,-2.59924 c 0.825,-0.53316 2.4,-0.96937 3.5,-0.96937 1.6561,0 1.7421,0.16666 0.5,0.96937 -0.825,0.53316 -2.4,0.96937 -3.5,0.96937 -1.6561,0 -1.7421,-0.16666 -0.5,-0.96937 z m 8.2464,-3.39625 c 1.6789,-1.86036 5.7536,-3.04387 5.7536,-1.67114 0,0.58707 -1.035,1.06739 -2.3,1.06739 -1.265,0 -2.8416,0.44839 -3.5036,0.99643 -0.7646,0.63304 -0.7464,0.48984 0.05,-0.39268 z m 197.2386,-3.57954 c 0.3317,-0.53668 3.1689,-2.67418 6.305,-4.75 6.5354,-4.32599 14.1651,-11.88859 24.9939,-24.77421 4.1599,-4.95 7.9867,-9.45 8.504,-10 1.2181,-1.29503 -2.0862,5.24602 -4.2939,8.5 -0.9329,1.375 -3.3949,5.06121 -5.4711,8.19158 -5.6656,8.54228 -14.9111,17.47079 -21.5738,20.83411 -5.8775,2.96695 -9.6068,3.84751 -8.4641,1.99852 z m -191.485,-0.71879 c 0,-0.38203 1.3624,-2.06953 3.0276,-3.75 1.6652,-1.68048 5.7735,-5.83116 9.1297,-9.22373 4.6634,-4.71413 6.3894,-5.89984 7.3211,-5.02953 1.2763,1.19227 0.882,4.69784 -0.5284,4.69784 -0.4492,0 -3.0313,2.1375 -5.738,4.75 -7.629,7.36343 -13.212,10.97868 -13.212,8.55542 z m -60.75,-13.59745 c -2.9222,-1.31641 -2.8462,-2.47919 0.2542,-3.89185 3.0895,-1.40765 3.6321,-0.93859 2.7127,2.34493 -0.6233,2.22639 -1.0105,2.42825 -2.9669,1.54692 z m 19.4786,-2.83995 c -0.9507,-0.53207 -1.7286,-1.62004 -1.7286,-2.41771 0,-0.79767 -0.6269,-1.45031 -1.393,-1.45031 -1.5651,0 -2.9391,-2.67671 -1.751,-3.41103 0.7852,-0.48524 4.6105,2.58437 6.9439,5.572 1.5705,2.01095 0.3174,3.04379 -2.0713,1.70705 z m -14.7286,-1.34385 c 0,-0.26171 0.9479,-1.94921 2.1064,-3.75 1.1585,-1.80079 1.7825,-2.37417 1.3865,-1.27417 -0.3959,1.1 -0.9462,2.7875 -1.223,3.75 -0.4398,1.52968 -2.2699,2.55696 -2.2699,1.27417 z m 50.7226,-2.13495 c -1.5121,-1.51204 -0.6207,-2.96144 1.9523,-3.17438 1.4712,-0.12176 3.6087,-1.00419 4.75,-1.96096 1.5036,-1.26045 1.4084,-0.98521 -0.3455,0.99933 -1.3314,1.5064 -2.6368,2.52267 -2.9011,2.25839 -0.2643,-0.26428 -0.9874,0.21264 -1.6069,1.05983 -0.6194,0.84719 -1.4514,1.21519 -1.8488,0.81779 z m 342.9866,-15.45767 c -0.9368,-2.16235 -2.1546,-3.93155 -2.7062,-3.93155 -0.5517,0 -1.003,-0.9 -1.003,-2 0,-1.1 0.45,-2 1,-2 0.55,0 1,-0.8449 1,-1.87756 0,-1.03265 0.7614,-2.49515 1.692,-3.25 1.3024,-1.05651 1.5101,-1.07019 0.902,-0.0594 -0.4672,0.77658 -0.1374,2.03406 0.8073,3.07789 1.6005,1.76855 2.1407,12.65612 0.6729,13.56325 -0.3639,0.22492 -1.4282,-1.36025 -2.365,-3.5226 z m -8.8967,-3.61466 c 0.7219,-0.28887 1.5844,-0.25335 1.9167,0.0789 0.3323,0.33229 -0.2584,0.56864 -1.3125,0.52522 -1.165,-0.048 -1.4019,-0.28494 -0.6042,-0.60416 z m -41.2092,-12.04698 c -0.231,-0.23099 -1.2114,-0.53612 -2.1785,-0.67807 -1.7726,-0.26016 -2.8738,-3.19631 -1.514,-4.03669 0.4029,-0.24904 1.9847,0.19679 3.515,0.99072 1.5303,0.79393 3.1192,1.23532 3.531,0.98086 0.4117,-0.25447 1.6024,0.18361 2.6459,0.9735 1.0435,0.78989 1.4473,1.49511 0.8973,1.56716 -3.642,0.47709 -6.5372,0.56211 -6.8967,0.20252 z m -145.6033,-3.07074 c -4.2821,-2.07886 -6.9963,-7.14662 -6.9984,-13.06682 -10e-4,-3.7412 0.5552,-4.92448 3.8807,-8.25 4.1519,-4.1518 7.4635,-4.97187 8.6109,-2.13235 0.6283,1.55487 0.8039,1.49912 1.5747,-0.5 0.9481,-2.45868 3.3436,-2.97685 4.6231,-1 0.4449,0.6875 1.3141,4.85 1.9315,9.25 0.9962,7.0993 0.9262,8.32219 -0.6219,10.86167 -0.9899,1.62376 -2.0233,2.41067 -2.3889,1.8191 -0.3544,-0.57342 -0.187,-1.32523 0.372,-1.67069 1.5088,-0.9325 1.1718,-5.72115 -0.5638,-8.01008 -1.4168,-1.86854 -1.4783,-1.73708 -0.9355,2 0.4479,3.08393 0.058,4.89826 -1.7018,7.92226 -2.7605,4.74344 -3.3204,4.94321 -7.7826,2.77691 z m 174.8125,-8.88228 c 0.7219,-0.28887 1.5844,-0.25335 1.9167,0.0789 0.3323,0.33229 -0.2584,0.56864 -1.3125,0.52522 -1.165,-0.048 -1.4019,-0.28494 -0.6042,-0.60416 z m -154.8125,-14.31689 c 0,-0.55 0.4766,-1 1.059,-1 0.5825,0 0.7809,0.45 0.441,1 -0.3399,0.55 -0.8165,1 -1.059,1 -0.2426,0 -0.441,-0.45 -0.441,-1 z m -1,-3.44098 c 0,-0.79254 0.45,-1.7191 1,-2.05902 0.55,-0.33992 1,0.30852 1,1.44098 0,1.13246 -0.45,2.05902 -1,2.05902 -0.55,0 -1,-0.64844 -1,-1.44098 z m 0.035,-5.49328 c -1.3028,-2.43426 -1.3374,-5.06574 -0.067,-5.06574 0.5328,0 0.7231,0.63984 0.423,1.42186 -0.3001,0.78202 -0.045,2.35702 0.5666,3.5 0.6117,1.14298 0.8872,2.07814 0.6122,2.07814 -0.275,0 -0.9659,-0.87042 -1.5352,-1.93426 z m -1.504,-13.35887 c -0.428,-0.98622 -0.4977,-2.07372 -0.1547,-2.41666 1.0155,-1.0155 1.8341,0.41094 1.3667,2.38152 -0.4144,1.74695 -0.4683,1.74851 -1.212,0.0351 z m 85.3973,-29.0774 c -0.2357,-0.21679 -2.6065,-0.65308 -5.2684,-0.96951 -5.0959,-0.60574 -14.7637,-5.39319 -22.8702,-11.32513 -4.7592,-3.48252 -15.0018,-14.47758 -20.3406,-21.83483 -8.2206,-11.32856 -14.3343,-17.74592 -20.6611,-21.68754 -2.0415,-1.27185 -3.9232,-2.83156 -4.1816,-3.46601 -0.7724,-1.89652 0.5246,-5.34645 2.01,-5.34645 0.7609,0 1.3834,-0.45 1.3834,-1 0,-1.31632 -1.3267,-1.2733 -2.6871,0.0871 -0.7829,0.78285 -1.2752,0.78285 -1.759,0 -1.3177,-2.13209 0.6104,-3.18488 4.7848,-2.61261 3.7166,0.50951 5.4437,-0.10645 16.1613,-5.76385 6.8344,-3.60763 12,-6.95341 12,-7.7725 0,-0.79099 0.9,-1.68535 2,-1.98747 3.032,-0.83274 2.5339,-4.83109 -1.218,-9.7773 -5.612,-7.39823 -3.8659,-8.2631 2.8704,-1.42176 3.3838,3.4366 6.4649,6.24836 6.847,6.24836 0.382,0 1.6222,0.80455 2.756,1.7879 1.6135,1.39933 1.8374,2.18839 1.0302,3.63071 -1.8642,3.33121 -0.348,24.24353 2.2535,31.08139 3.9764,10.45146 7.1169,13.23103 15.4609,13.68399 8.3132,0.45128 10.9996,-0.13403 14.2529,-3.10549 4.1701,-3.80879 11.2471,-18.75898 11.2471,-23.75961 0,-1.36995 0.4378,-2.1663 1,-1.81886 0.55,0.33992 1,0.14148 1,-0.44098 0,-0.58246 -0.45,-1.05902 -1,-1.05902 -1.2785,0 -1.3134,-4.68829 -0.041,-5.47486 0.5276,-0.32609 1.8307,-0.0487 2.8957,0.61638 2.4991,1.56075 9.7068,-0.95927 9.5275,-3.33108 -0.1856,-2.45444 3.6219,-0.92909 4.6894,1.87865 1.0241,2.69366 1.6312,2.49594 6.7214,-2.18909 9.0329,-8.31384 11.2067,-10.74665 11.2067,-12.54211 0,-1.07684 0.4359,-1.95789 0.9686,-1.95789 0.5328,0 0.7967,-0.5625 0.5866,-1.25 -0.2102,-0.6875 -0.6385,-2.73104 -0.9519,-4.54119 -0.5665,-3.27254 -0.5486,-3.28954 3.1635,-3 3.4138,0.26628 3.7603,0.0559 4.0496,-2.45881 0.3263,-2.83532 2.1836,-3.91077 2.1836,-1.26435 0,1.95376 -2.3183,10.87314 -2.9928,11.51435 -3.4705,3.29936 -11.8192,21.99515 -16.5225,37 -2.5628,8.17585 -11.4217,28.69723 -15.1685,35.13708 -5.3864,9.25807 -10.8276,15.45332 -15.4897,17.63611 -4.26,1.99458 -11.0602,3.62704 -11.898,2.85628 z m -4.9285,-25.49951 c 0,-0.47852 -2.1375,-1.44345 -4.75,-2.14429 -11.5827,-3.10721 -19.9442,-11.77167 -21.7444,-22.53218 -1.1154,-6.66706 -1.4463,-7.22804 -3.0105,-5.10335 -0.7491,1.01757 -1.8451,1.55155 -2.4356,1.18662 -2.1954,-1.35683 -2.1914,2.60634 0.01,7.91275 2.646,6.38409 12.7431,17.09704 18.6374,19.77427 3.9421,1.79052 13.2951,2.42802 13.2951,0.90618 z m 35.7699,-12.87996 c 2.588,-4.88111 10.2301,-26.24835 10.2301,-28.603 0,-1.70893 -2.0638,0.69957 -4.6133,5.38381 -1.4875,2.73305 -3.083,5.02544 -3.5456,5.09419 -0.4626,0.0687 -1.2536,0.18125 -1.7578,0.25 -1.733,0.23632 -2.0367,1.26992 -3.558,12.10708 -1.7997,12.82048 -1.7245,11.51792 -0.6646,11.51792 0.4733,0 2.2325,-2.5875 3.9092,-5.75 z m -84.2279,-19 c 1.4093,-6.67999 3.3098,-9.14638 9.4277,-12.23468 3.3166,-1.67426 6.0303,-3.71263 6.0303,-4.52972 0,-2.2039 -1.3534,-1.88438 -10.8526,2.5622 -9.9786,4.67093 -15.1308,7.94937 -15.1406,9.63411 0,0.65004 1.4557,2.20879 3.2432,3.46387 1.7875,1.25509 3.4,2.63573 3.5833,3.0681 0.7793,1.83771 3.1743,0.56947 3.7087,-1.96388 z m 197.0942,23.24426 c -0.3154,-0.82184 -0.1641,-1.49426 0.3362,-1.49426 1.3555,0 2.1973,1.7771 1.1487,2.42516 -0.5013,0.30984 -1.1696,-0.10906 -1.4849,-0.9309 z m -6.0231,-3.67724 c 0.2888,-0.4673 0.944,-0.59075 1.456,-0.27431 1.3084,0.80862 1.1611,1.12396 -0.5251,1.12396 -0.8008,0 -1.2197,-0.38234 -0.9309,-0.84965 z m -8.6321,-3.33991 c -1.0568,-1.27335 -0.9949,-1.41968 0.3776,-0.89301 0.9028,0.34643 1.6414,1.03173 1.6414,1.52289 0,1.28596 -0.5789,1.10536 -2.019,-0.62988 z m -59.1086,-29.14083 c -1.2444,-1.5086 -1.1626,-1.55194 0.8776,-0.46482 2.327,1.23991 2.8999,2.12854 1.3724,2.12854 -0.4826,0 -1.4951,-0.74867 -2.25,-1.66372 z m -146.7868,-2.33628 c -0.03,-0.825 0.3812,-2.175 0.9144,-3 1.1813,-1.82797 1.1813,-0.24909 0,2.5 -0.5667,1.31874 -0.8781,1.48906 -0.9144,0.5 z m 136.9144,0.10699 c 0,-0.49116 0.7118,-1.16616 1.5818,-1.5 2.4469,-0.93895 2.6891,-0.73505 1.0611,0.89301 -1.7001,1.70004 -2.6429,1.91658 -2.6429,0.60699 z m -42.6642,-7.67421 c -0.3307,-0.86197 -0.092,-2.07697 0.5314,-2.7 0.8437,-0.84371 1.1328,-0.44377 1.1328,1.56722 0,3.0087 -0.7487,3.51836 -1.6642,1.13278 z m -73.3358,-6.54248 c -2.475,-0.47265 -5.741,-1.00486 -7.2578,-1.18268 -3.7096,-0.4349 -5.7643,-2.4579 -3.7567,-3.69867 0.9456,-0.58438 2.0113,-0.45913 2.9917,0.35157 0.8375,0.69263 2.6478,1.16929 4.0228,1.05924 1.375,-0.11006 3.0428,0.23922 3.7062,0.77616 0.6634,0.53694 1.6353,0.71106 2.1597,0.38693 1.3337,-0.82423 3.8733,0.29506 4.5254,1.99447 0.5976,1.55739 0.2214,1.57581 -6.3913,0.31298 z m -15.3333,-5.55697 c -0.3667,-0.36666 -0.653,-1.37916 -0.6363,-2.25 0.025,-1.3003 0.2201,-1.2571 1.0917,0.24167 1.0768,1.85169 0.7646,3.22835 -0.4554,2.00833 z m 90.4123,-4.91666 c 0.048,-1.16495 0.2849,-1.4019 0.6041,-0.60417 0.2889,0.72187 0.2534,1.58437 -0.079,1.91667 -0.3323,0.33229 -0.5686,-0.25834 -0.5252,-1.3125 z m -71.5048,-6.08389 c -0.3519,-0.91697 -0.2837,-2.02323 0.1514,-2.45836 1.2839,-1.28396 3.3986,0.63831 2.7013,2.45553 -0.8187,2.13346 -2.0346,2.13466 -2.8527,0.003 z m 112.4258,-5.3918 c 0,-1.13246 0.4304,-1.79305 0.9563,-1.46797 0.526,0.32507 0.7029,1.25163 0.393,2.05902 -0.7932,2.06711 -1.3493,1.82352 -1.3493,-0.59105 z m 9.7089,-8.44098 c -0.3906,-1.1 -0.9889,-2.675 -1.3294,-3.5 -0.5013,-1.21423 -0.2924,-1.18912 1.0967,0.1318 0.9438,0.89749 1.542,2.47249 1.3295,3.5 -0.3647,1.76227 -0.4268,1.75479 -1.0968,-0.1318 z m -122.8481,-4.57597 -2.3608,-2.07597 2.2738,0.48856 c 1.7123,0.36792 2.2061,0.078 2,-1.17402 -0.2161,-1.31206 0.6818,-1.72499 4.2588,-1.95851 3.7782,-0.24667 4.9299,0.12712 6.9206,2.24606 1.3134,1.39808 2.1987,2.72861 1.9674,2.95672 -0.2313,0.22812 -2.1807,0.74359 -4.3319,1.1455 -3.3162,0.61955 -3.8197,0.49209 -3.3094,-0.8377 0.331,-0.86265 -0.057,-2.11547 -0.8629,-2.78406 -2.0032,-1.66252 -2.8204,-0.55394 -1.4622,1.98374 0.9517,1.77836 0.8326,2.08565 -0.8082,2.08565 -1.0584,0 -2.9868,-0.93419 -4.2852,-2.07597 z m 66.8032,-10.90893 c -0.9152,-3.2917 -1.664,-6.30155 -1.664,-6.68856 0,-0.79635 2.4535,1.78168 5.7657,6.05832 2.613,3.37389 2.8105,4.61514 0.7343,4.61514 -0.825,0 -1.5,0.45 -1.5,1 0,0.55 -0.3762,1 -0.836,1 -0.4599,0 -1.5849,-2.69321 -2.5,-5.9849 z m -32.664,-1.84079 c 0,-2.70054 0.6617,-4.4214 2.25,-5.85123 3.5217,-3.17035 4.365,-3.4042 7.1208,-1.9745 2.2818,1.18384 2.4236,1.55033 1.2308,3.18163 -1.2878,1.76109 -1.3801,1.74317 -2.0603,-0.40014 -0.9415,-2.96623 -3.9347,-2.36642 -4.3921,0.88015 -0.193,1.36938 -0.8549,2.80281 -1.471,3.18541 -0.6162,0.38259 -0.7621,1.05384 -0.3242,1.49167 0.4378,0.43782 1.2346,0.0123 1.7707,-0.94563 0.5361,-0.95792 1.7398,-1.72848 2.675,-1.71236 1.2616,0.0217 0.8576,0.79585 -1.5655,3 -4.2906,3.90293 -5.2342,3.74879 -5.2342,-0.855 z m 18.4025,-28.65834 c -2.6964,-2.46621 -5.69,-4.74653 -6.6525,-5.06738 -1.5735,-0.52453 -2.5305,-2.44859 -1.2179,-2.44859 1.9696,0 7.4939,3.14883 6.9808,3.97904 -0.347,0.56153 0.2259,1.02096 1.2731,1.02096 2.1299,0 5.5883,3.29239 4.5495,4.33115 -0.3678,0.36787 -0.1438,0.66885 0.4978,0.66885 0.6417,0 1.1667,0.45 1.1667,1 0,1.89101 -1.7056,0.99032 -6.5975,-3.48403 z"
           id="path17096" />
      </g>
    </g>
  </g>
</svg>
