<svg xmlns="http://www.w3.org/2000/svg" height="800" width="1200" version="1.0" viewBox="-43.498875 -12.68375 376.99025 76.1025"><path d="M156.679 48.4062c-.2936-1.2375-1.0334-6.75-1.644-12.25-.6105-5.5-1.544-13.2809-2.0744-17.2908-1.2352-9.339-1.2645-8.9804.7857-9.6225 4.2337-1.326 25.6543-3.5823 26.4505-2.7861.4796.4796 1.1127 2.6332 1.4067 4.7857l.5346 3.9137-1.782-2.716c-3.633-5.5376-10.3716-6.0324-14.945-1.0975-2.3268 2.5106-2.4148 2.5274-2.4148.4595 0-2.5933-1.9349-2.7482-6.2777-.5024-3.0626 1.5838-3.0983 1.6732-.9803 2.4567 2.6076.9646 2.8238 1.8412 4.29 17.3997.622 6.6 1.5252 12.4085 2.007 12.9076.5213.54 1.5421.355 2.52-.4566 1.2866-1.0678 1.5083-2.3858 1.0202-6.0654l-.6237-4.7012 4.0606.5446c7.358.987 12.946-3.981 12.9783-11.538.003-.72.4712-1.0213 1.0402-.6696.569.3517.9852 2.5158.9248 4.809-.0605 2.2933.2071 7.165.5947 10.8262l.7047 6.6565-6.642.7113c-4.998.5352-7.627 1.4248-10.6208 3.5935-5.073 3.6748-10.5189 3.9791-11.3132.6321zM10.4964 47.138c-.55-.1688-2.2181-.5749-3.7069-.9025-2.0158-.4436-3.2284-1.775-4.75-5.2146C.9157 38.4805-.002 35.4467 0 34.279c.0109-6.1785 8.5587-12.49 18.1655-13.4132 2.6799-.2575 5.0859-.8134 5.3467-1.2354.2608-.422.1937-2.8137-.1491-5.315l-.6234-4.5476-5.1217-.8377-5.1217-.8377 4.674-2.7687c2.5709-1.5228 6.261-3.0262 8.2002-3.3409 3.2345-.5249 3.5896-.3346 4.2952 2.3006.423 1.58.7352 5.1227.6936 7.8727-.3875 25.61-.8123 33.7252-1.7806 34.0116-1.675.4956-16.957 1.3155-18.0824.9702zm9.4068-3.8695c2.1395-2.578 3.6073-12.1884 2.2999-15.058-3.8346-8.416-15.5677-2.6226-13.7977 6.8128.7282 3.8814 5.7508 9.633 8.4121 9.633 1.0637 0 2.4522-.6245 3.0857-1.3878zm54.8201 1.6777c1.4506-2.217 1.7572-4.7799 1.686-14.0902-.094-12.2858-.7757-13.9029-5.042-11.959-3.4468 1.5705-4.588 6.369-3.8063 16.0042.5781 7.1245.4273 8.6202-1.0142 10.0618-2.6162 2.6161-3.3621 2.0782-4.2392-3.0568-.795-4.6545-.9531-26.9949-.1957-27.6437.2114-.1811 4.2708-.5911 9.0209-.9111 12.6968-.8553 12.3239-1.3972 12.544 18.2234l.1804 16.0814h-10.907zm22.2147 1.761c-7.4839-2.2686-9.9416-5.9734-9.9416-14.9855 0-5.241.3799-6.4591 2.8909-9.2694 2.6272-2.9404 3.4252-3.2382 8.75-3.2658 5.8501-.0302 5.859-.0257 5.859 2.9697 0 2.7325-.3 3.003-3.3648 3.0327-5.766.056-8.9052 6.2359-5.9854 11.783 1.6597 3.1533 2.9302 3.7282 6.7098 3.036 3.6915-.6762 5.0988.5316 5.1252 4.3983.0117 1.7173-.5573 2.25-2.403 2.25-1.33 0-3.0175.186-3.75.4133-.7324.2273-2.483.0643-3.8901-.3623zm150.8853-.7983c-5.104-1.6995-5.998-3.2366-4.904-8.4326l.699-3.32 1.859 3.868c1.6074 3.3446 6.5055 7.6167 8.746 7.6282 1.4454.0074 3.803-4.7544 3.1704-6.4032-.3564-.9289-3.254-3.4584-6.439-5.6213-6.6298-4.5023-8.3-8.2752-5.5328-12.4985 3.173-4.8426 5.396-5.5478 11.8245-3.7512l5.75 1.607v4.3355c0 2.3845-.219 4.3354-.4866 4.3354-.2676 0-1.185-1.6717-2.0388-3.715-1.8619-4.456-2.9546-5.2496-7.256-5.2697-6.1398-.0286-5.1346 6.103 1.7625 10.751 4.4155 2.9756 7.008 6.9526 6.997 10.7337-.0112 3.8488-.868 5.1274-4.3136 6.4375-3.4254 1.3023-3.9878 1.2631-9.8376-.6848zm-27.327-.2527c-.3399-.55-3.4843-1-6.9875-1-4.5049 0-6.8379-.4683-7.9692-1.5996-2.171-2.171-4.544-8.064-4.5395-11.2725.005-3.6423 3.3238-8.7288 6.9024-10.5793 4.4763-2.3148 12.2306-2.0155 15.5562.6005l2.732 2.149-.7077 10.101c-.6604 9.425-1.5552 12.601-3.55 12.601-.4503 0-1.0967-.45-1.4366-1zm-2.98-5.391c1.4783-1.0808 1.9915-2.9692 2.3024-8.4707.3894-6.8914.328-7.1127-2.3094-8.3143-2.3087-1.052-3.245-.9453-6.3303.7207-4.8879 2.6395-6.128 6.8621-3.554 12.1001 1.6304 3.3176 3.3385 4.5258 7.4302 5.2555.3074.0549 1.415-.5262 2.4612-1.2913zM44.9837 43.926l-7.5126-.3453-2.2374-5.0402c-4.0025-9.0169-2.347-15.7076 4.8013-19.4042 3.4068-1.7617 9.8849-1.9276 13.3645-.3421 3.8288 1.7445 4.55 5.2983 3.2384 15.9563-.8708 7.076-1.5214 9.398-2.648 9.4508-.8214.0385-4.8742-.0854-9.0062-.2753zm4.3047-5.7046c1.9667-1.9666 3.1943-13.2742 1.6439-15.1423-.6494-.7825-2.893-1.4228-4.9858-1.4228-2.9195 0-4.2873.6132-5.8776 2.6349-3.6384 4.6256-2.4317 11.8657 2.3227 13.9353 4.0078 1.7446 5.148 1.7438 6.8968-.005zm61.2493 4.2824c-.7658-3.294-2.5233-19.6828-2.5331-23.6222-.0104-4.1538 1.3117-4.6823 14.973-5.9854 11.3403-1.0816 12.5067-.945 13.5595 1.5874.9687 2.33 3.1473 25.078 2.4935 26.0349-.2939.43-5.7092 1.3473-12.0342 2.0385-6.325.6911-12.493 1.4901-13.7065 1.7755-1.7085.4017-2.3297-.011-2.7522-1.8287zm16.2087-2.4778c1.2807-.3432 2.25-1.3813 2.25-2.41 0-1.4986-.762-1.7775-4.4652-1.6341-4.5277.1752-8.4366-2.0576-7.1751-4.0986.328-.5307 4.2607-1.2845 8.7393-1.6752l8.143-.7103-.5469-4.0774c-.81-6.0394-5.07-9.9202-10.9879-10.0097-10.4454-.1579-15.2533 9.121-10.0701 19.435 2.5474 5.0691 7.603 6.9249 14.1129 5.1803zm-10.1884-14.27c-1.9145-3.0976 4.8932-7.5641 8.2763-5.4301 1.8324 1.1558 3.7773 4.0604 3.1267 4.6694-1.1778 1.1024-10.7953 1.744-11.403.7607zm72.0328 17.053c-.288-.466-.017-6.357.6021-13.0913.9475-10.3051.9037-12.3814-.277-13.1111-1.8956-1.1716-.3606-2.5104 4.3305-3.7767 3.579-.9662 3.75-.902 3.75 1.407 0 2.8651-.108 2.8466 4.9013.8422 3.0855-1.2345 4.4064-1.3284 6.081-.4323 4.2827 2.2921-.0912 6.1618-4.9092 4.3432-4.9871-1.8824-6.102-.1685-7.0442 10.8292-.4515 5.2689-1.3335 10.5377-1.96 11.7084-1.133 2.117-4.4747 2.8992-5.4745 1.2815zm84.8634-1.2407c-6.8933-3.3055-8.775-8.7952-6.3356-18.4831 1.2773-5.0725 5.6603-9.4289 9.4866-9.4289 7.143 0 13.3802 6.115 13.3874 13.125.003 3.2611-.31 3.6878-3.1212 4.25-1.7188.3438-4.9813.6567-7.25.6953-2.2688.0387-4.982.4064-6.0294.8172-1.8152.712-1.7947.8492.4386 2.9298 2.4637 2.2953 5.4898 2.7696 7.9082 1.2395.9888-.6256 1.8437-.385 2.7182.7653 1.7196 2.2617 1.6492 2.9488-.4106 4.0044-3.8103 1.9527-6.848 1.9767-10.7922.0855zm8.917-17.135c.851-1.3566.6603-2.0412-.897-3.2183-2.9854-2.2567-6.097-1.8583-8.4053 1.0762-3.06 3.8903-2.6094 4.5012 3.0745 4.1674 3.5473-.2083 5.483-.8378 6.2279-2.0254zm-51.0497 17.5052l-3.1748-.3977 1.4248-3.4101c2.0336-4.867 1.9072-17.8491-.1942-19.9506-.8905-.8904-1.3761-1.862-1.0792-2.1588.8337-.8338 8.0802-2.3164 8.6307-1.766.2687.2688.5063 6.7686.528 14.4442.0335 11.8246-.1895 13.9312-1.4604 13.7961-.825-.0876-2.9287-.3383-4.6749-.557zm-63.047-10.375c-2.8721-1.0624-4.1123-3.6294-4.8564-10.052-.5603-4.8359-.3785-5.5808 1.8748-7.6816 3.9587-3.691 7.6823-2.6898 10.5114 2.8264 4.406 8.591-.1612 17.633-7.5299 14.9072zM232.3577 3.156c-.9098-2.3708.9402-3.7131 4.0438-2.9342 3.5315.8864 3.0694 3.82-.6696 4.2514-1.83.2112-2.9564-.2285-3.3742-1.3172z" fill="red"/></svg>